<svg width="66" height="66" viewBox="0 0 66 66" fill="none" xmlns="http://www.w3.org/2000/svg">
<rect x="0.5" y="0.5" width="65" height="65" rx="32.5" fill="#E0EFFF"/>
<g clip-path="url(#clip0_984:48350)">
<path d="M32.9997 9.52075C20.0535 9.52075 9.52051 20.0537 9.52051 32.9999C9.52051 45.9461 20.0535 56.4791 32.9997 56.4791C45.9459 56.4791 56.4788 45.9461 56.4788 32.9999C56.4788 20.0537 45.9459 9.52075 32.9997 9.52075Z" fill="white" stroke="#546071" stroke-width="2" stroke-miterlimit="10"/>
<path d="M25.5818 28.3072C25.5818 29.743 24.4132 30.9116 22.9774 30.9116C21.5416 30.9116 20.373 29.743 20.373 28.3072C20.373 26.8714 21.5416 25.7029 22.9774 25.7029C24.4132 25.7029 25.5818 26.8714 25.5818 28.3072Z" fill="#546071" stroke="#546071"/>
<path d="M40.418 28.306C40.418 26.8702 41.5865 25.7017 43.0223 25.7017C44.4581 25.7017 45.6267 26.8702 45.6267 28.306C45.6267 29.7418 44.4581 30.9104 43.0223 30.9104C41.5865 30.9104 40.418 29.7418 40.418 28.306Z" fill="#546071" stroke="#546071"/>
<path d="M25.783 44.1508L25.7828 44.1506C23.787 42.7064 22.3181 40.7174 21.5318 38.3968C21.1217 37.1839 20.9131 35.9151 20.9131 34.625C20.9131 34.4377 21.0649 34.2859 21.2522 34.2859H44.077C44.2643 34.2859 44.4161 34.4377 44.4161 34.625C44.4161 35.9152 44.2075 37.1841 43.7973 38.3971C43.0121 40.7174 41.5423 42.7064 39.5464 44.1506L39.5461 44.1508C37.5361 45.6077 35.1582 46.3771 32.6651 46.3771C30.172 46.3771 27.7942 45.6077 25.783 44.1508ZM43.7037 35.5035L43.7462 34.9641H43.2052H22.124H21.583L21.6256 35.5035C21.6811 36.2077 21.803 36.9028 21.9913 37.5822L22.0929 37.9486H22.4731H42.8561H43.2369L43.3381 37.5815C43.5251 36.903 43.6481 36.2082 43.7037 35.5035ZM26.8163 43.3269L26.3986 43.7756L26.9221 44.0945C28.6497 45.1472 30.618 45.6988 32.6649 45.6998H32.6651C34.7113 45.6998 36.6796 45.1471 38.407 44.0957L38.9312 43.7766L38.5127 43.3276C37.7182 42.4753 36.5914 41.9681 35.402 41.9681C34.4821 41.9681 33.6034 42.2588 32.8676 42.8073L32.8675 42.8074C32.7477 42.8966 32.5825 42.8966 32.4628 42.8074L32.4627 42.8073C31.7268 42.2588 30.8481 41.9681 29.9273 41.9681C28.7372 41.9681 27.6102 42.474 26.8163 43.3269ZM39.1355 43.0072L39.4594 43.3823L39.8374 43.0617C41.0494 42.0335 42.0164 40.7704 42.6881 39.3393L43.0225 38.6269H42.2354H23.0948H22.3081L22.6421 39.3392C23.3128 40.7694 24.2799 42.0325 25.4919 43.0607L25.87 43.3815L26.1939 43.006C27.1206 41.9318 28.4881 41.2888 29.9273 41.2888C30.8139 41.2888 31.6615 41.5196 32.412 41.9601L32.6651 42.1087L32.9182 41.9601C33.6688 41.5196 34.5164 41.2888 35.402 41.2888C36.8398 41.2888 38.2065 41.9316 39.1355 43.0072Z" fill="#546071" stroke="#546071"/>
</g>
<defs>
<clipPath id="clip0_984:48350">
<rect width="49" height="49" fill="white" transform="translate(8.5 8.5)"/>
</clipPath>
</defs>
</svg>
