<svg width="66" height="66" viewBox="0 0 66 66" fill="none" xmlns="http://www.w3.org/2000/svg">
<rect x="0.5" y="0.5" width="65" height="65" rx="32.5" fill="#E0EFFF"/>
<g clip-path="url(#clip0_984:48351)">
<path d="M32.9997 9.52075C20.0535 9.52075 9.52051 20.0537 9.52051 32.9999C9.52051 45.9461 20.0535 56.4791 32.9997 56.4791C45.9459 56.4791 56.4788 45.9461 56.4788 32.9999C56.4788 20.0537 45.9459 9.52075 32.9997 9.52075Z" fill="white" stroke="#546071" stroke-width="2" stroke-miterlimit="10"/>
<path d="M25.783 44.151L25.7828 44.1509C23.787 42.7067 22.3181 40.7177 21.5318 38.3971C21.1217 37.1842 20.9131 35.9154 20.9131 34.6253C20.9131 34.4379 21.0649 34.2861 21.2522 34.2861H44.077C44.2643 34.2861 44.4161 34.4379 44.4161 34.6253C44.4161 35.9155 44.2075 37.1844 43.7973 38.3973C43.0121 40.7176 41.5423 42.7066 39.5464 44.1509L39.5461 44.1511C37.5361 45.608 35.1582 46.3773 32.6651 46.3773C30.172 46.3773 27.7942 45.608 25.783 44.151ZM43.7037 35.5037L43.7462 34.9644H43.2052H22.124H21.583L21.6256 35.5037C21.6811 36.2079 21.803 36.903 21.9913 37.5824L22.0929 37.9489H22.4731H42.8561H43.2369L43.3381 37.5817C43.5251 36.9033 43.6481 36.2084 43.7037 35.5037ZM26.8163 43.3271L26.3986 43.7758L26.9221 44.0948C28.6497 45.1474 30.618 45.699 32.6649 45.7001H32.6651C34.7113 45.7001 36.6796 45.1473 38.407 44.0959L38.9312 43.7768L38.5127 43.3279C37.7182 42.4756 36.5914 41.9683 35.402 41.9683C34.4821 41.9683 33.6034 42.2591 32.8676 42.8075L32.8675 42.8076C32.7477 42.8969 32.5825 42.8969 32.4628 42.8076L32.4627 42.8075C31.7268 42.259 30.8481 41.9683 29.9273 41.9683C28.7372 41.9683 27.6102 42.4742 26.8163 43.3271ZM39.1355 43.0075L39.4594 43.3825L39.8374 43.0619C41.0494 42.0337 42.0164 40.7706 42.6881 39.3396L43.0225 38.6271H42.2354H23.0948H22.3081L22.6421 39.3394C23.3128 40.7696 24.2799 42.0327 25.4919 43.0609L25.87 43.3817L26.1939 43.0062C27.1206 41.932 28.4881 41.2891 29.9273 41.2891C30.8139 41.2891 31.6615 41.5198 32.412 41.9604L32.6651 42.1089L32.9182 41.9604C33.6688 41.5198 34.5164 41.2891 35.402 41.2891C36.8398 41.2891 38.2065 41.9318 39.1355 43.0075Z" fill="#546071" stroke="#546071"/>
<path d="M22.1065 30.0401L22.1062 30.0405C22.0909 30.057 22.0766 30.0661 22.065 30.0711C22.0532 30.0763 22.0413 30.0787 22.0295 30.0787C22.0081 30.0787 21.9792 30.0708 21.9497 30.0393C21.9496 30.0392 21.9495 30.0391 21.9494 30.039L18.2418 26.0303L18.2417 26.0302C17.1512 24.8519 17.1512 22.9173 18.2417 21.739L18.2419 21.7388C18.765 21.173 19.4505 20.8704 20.1737 20.8704C20.7352 20.8704 21.2721 21.0529 21.7274 21.3963L22.0282 21.6232L22.3292 21.3966C22.786 21.0527 23.3221 20.8704 23.8834 20.8704C24.6062 20.8704 25.2909 21.1728 25.8153 21.739C26.9058 22.9173 26.9058 24.8519 25.8153 26.0302L25.8152 26.0303L22.1065 30.0401Z" fill="#546071" stroke="#546071"/>
<path d="M43.713 30.0401L43.7126 30.0405C43.6974 30.057 43.6831 30.0661 43.6715 30.0711C43.6597 30.0763 43.6478 30.0787 43.636 30.0787C43.6164 30.0787 43.5867 30.0714 43.5553 30.0384C43.555 30.0381 43.5547 30.0378 43.5545 30.0375L39.8482 26.0303L39.8481 26.0302C38.7577 24.8519 38.7577 22.9173 39.8481 21.739L39.8483 21.7388C40.3715 21.173 41.0569 20.8704 41.7801 20.8704C42.3416 20.8704 42.8785 21.0529 43.3339 21.3963L43.6347 21.6232L43.9357 21.3966C44.3924 21.0527 44.9285 20.8704 45.4898 20.8704C46.2127 20.8704 46.8973 21.1728 47.4218 21.739C48.5122 22.9173 48.5122 24.8519 47.4218 26.0302L47.4216 26.0303L43.713 30.0401Z" fill="#546071" stroke="#546071"/>
</g>
<defs>
<clipPath id="clip0_984:48351">
<rect width="49" height="49" fill="white" transform="translate(8.5 8.5)"/>
</clipPath>
</defs>
</svg>
