<svg width="66" height="66" viewBox="0 0 66 66" fill="none" xmlns="http://www.w3.org/2000/svg">
<rect x="0.5" y="0.5" width="65" height="65" rx="32.5" fill="#E0EFFF"/>
<g clip-path="url(#clip0_984:48349)">
<path d="M32.9997 9.52075C20.0535 9.52075 9.52051 20.0537 9.52051 32.9999C9.52051 45.9461 20.0535 56.4791 32.9997 56.4791C45.9459 56.4791 56.4788 45.9461 56.4788 32.9999C56.4788 20.0537 45.9459 9.52075 32.9997 9.52075Z" fill="white" stroke="#546071" stroke-width="2" stroke-miterlimit="10"/>
<path d="M20.7849 37.6587L20.7843 37.6582C20.6529 37.5272 20.6521 37.3124 20.7849 37.1796C20.9173 37.0472 21.1326 37.0472 21.265 37.1796C27.7353 43.651 38.2643 43.651 44.7357 37.1796C44.8681 37.0472 45.0823 37.0472 45.2148 37.1796L45.2153 37.1802C45.3467 37.3112 45.3475 37.526 45.2148 37.6587C41.8479 41.0256 37.4239 42.7104 32.9998 42.7104C28.5747 42.7104 24.1528 41.0266 20.7849 37.6587Z" fill="#546071" stroke="#546071"/>
<path d="M37.0228 45.9147L36.8879 45.4332C35.616 45.7894 34.3078 45.968 33.0007 45.968C31.6927 45.968 30.3856 45.7894 29.1138 45.4333C28.9323 45.3821 28.8277 45.1939 28.878 45.015L28.8783 45.014C28.9287 44.8336 29.1161 44.7285 29.2954 44.779L29.2959 44.7791C31.7188 45.4582 34.2805 45.4582 36.7034 44.7791L36.704 44.779C36.8827 44.7287 37.071 44.8321 37.1233 45.0158C37.173 45.1956 37.0682 45.3825 36.8873 45.4334L37.0228 45.9147ZM37.0228 45.9147C37.4689 45.7891 37.7292 45.3267 37.6046 44.8806C37.4781 44.4324 37.0146 44.1721 36.5685 44.2977C34.2338 44.952 31.7655 44.952 29.4308 44.2977C28.9847 44.1721 28.5213 44.4334 28.3967 44.8795C28.2712 45.3256 28.5325 45.7891 28.9786 45.9147C30.2945 46.2832 31.6471 46.468 33.0007 46.468C34.3533 46.468 35.7069 46.2832 37.0228 45.9147Z" fill="#546071" stroke="#546071"/>
<path d="M20.5654 27.6205V27.6202C20.5654 26.1844 21.734 25.0159 23.1698 25.0159C24.6056 25.0159 25.7741 26.1844 25.7741 27.6202C25.7741 29.056 24.6056 30.2246 23.1698 30.2246C21.7337 30.2246 20.5646 29.0558 20.5654 27.6205Z" fill="#546071" stroke="#546071"/>
<path d="M40.2266 27.8744C40.2266 26.4386 41.3951 25.27 42.8309 25.27C44.2667 25.27 45.4353 26.4386 45.4353 27.8744C45.4353 29.3102 44.2667 30.4787 42.8309 30.4787C41.3951 30.4787 40.2266 29.3102 40.2266 27.8744Z" fill="#546071" stroke="#546071"/>
</g>
<defs>
<clipPath id="clip0_984:48349">
<rect width="49" height="49" fill="white" transform="translate(8.5 8.5)"/>
</clipPath>
</defs>
</svg>
