<svg width="501" height="313" viewBox="0 0 501 313" fill="none" xmlns="http://www.w3.org/2000/svg">
<path fill-rule="evenodd" clip-rule="evenodd" d="M270.037 68.3939C323.83 76.8831 413.309 46.7665 445.121 112.44C484.673 194.089 336.451 332.387 203.957 310.084C52.7074 284.623 20.9394 125.573 72.3613 68.9587C131.689 3.64096 204.793 58.0982 270.037 68.3939ZM339.315 5.588C355.726 27.8327 315.7 52.7609 290.693 56.0036C260.95 59.8579 212.368 46.2117 220.211 20.2744C226.468 -0.414873 261.817 17.3142 285.764 11.7058C307.221 6.68214 329.813 -7.29334 339.315 5.588Z" fill="#EEF5FF"/>
<path fill-rule="evenodd" clip-rule="evenodd" d="M240.468 61.3789C250.405 64.3094 260.241 66.8028 269.903 68.3269C323.697 76.8161 413.176 46.6995 444.988 112.374C480.916 186.544 361.897 307.46 240.467 312.27V61.3789H240.468Z" fill="#C9DFFF"/>
<path fill-rule="evenodd" clip-rule="evenodd" d="M265.466 67.6274C267.06 67.9269 268.649 68.2036 270.235 68.4534C321.354 76.5211 404.702 49.7253 440.162 103.402V187.025C412.94 242.53 341.768 297.29 265.466 309.86V67.6274Z" fill="#97C1FF"/>
<path fill-rule="evenodd" clip-rule="evenodd" d="M308.362 244.601C308.362 244.601 288.505 219.225 292.279 204.903C298.635 180.866 249.115 172.351 246.912 139.392C242.852 79.0177 328.656 54.5748 343.751 111.514L292.372 214.354L314.584 234.21L308.362 244.601Z" fill="#001244"/>
<path fill-rule="evenodd" clip-rule="evenodd" d="M310.477 195.74C310.477 195.74 360.983 193.667 361.359 155.008C361.574 133.668 348.755 133.99 348.398 124.597C347.99 115.2 347.394 105.553 331.087 114.537L315.697 148.344L310.989 214.438L310.477 195.74Z" fill="#001244"/>
<path fill-rule="evenodd" clip-rule="evenodd" d="M287.645 196.969C288.355 192.852 288.259 188.971 286.271 186.747C280.402 180.217 320.35 179.412 320.35 179.412L318.363 200.802C319.877 202.175 321.723 203.736 323.9 205.44C330.432 210.504 322.717 234.166 322.717 234.166L298.957 240.176L269.043 239.561L257.826 225.979L273.019 197.348L287.645 196.969Z" fill="#FFA98A"/>
<path fill-rule="evenodd" clip-rule="evenodd" d="M288.381 189.132L301.108 196.797C307.527 205.206 310.314 214.825 310.617 225.272L332.688 246.239L302.664 254.311L288.381 189.132Z" fill="#FF846B"/>
<path fill-rule="evenodd" clip-rule="evenodd" d="M286.992 187.053C286.992 187.053 300.814 193.046 308.765 200.996C316.715 208.944 324.666 212.736 325.89 205.52L321.853 178.371L286.992 187.053Z" fill="#FF846B"/>
<path fill-rule="evenodd" clip-rule="evenodd" d="M271.624 108.27L334.908 111.716C334.908 111.716 331.816 140.586 329.36 163.975C327.669 180.245 313.214 192.153 296.94 190.769C280.2 189.349 267.247 175.434 267.056 158.618C266.811 135.85 271.624 108.27 271.624 108.27Z" fill="#FFA98A"/>
<path fill-rule="evenodd" clip-rule="evenodd" d="M293.258 170.796L293.349 170.795C295.609 170.679 297.879 170.88 300.086 171.381C300.469 171.468 300.849 171.229 300.936 170.847C301.023 170.465 300.783 170.084 300.401 169.998C298.07 169.468 295.672 169.256 293.286 169.378C293.296 169.377 293.258 169.377 293.258 169.377C292.867 169.377 292.549 169.695 292.549 170.087C292.549 170.479 292.867 170.796 293.258 170.796Z" fill="#614544"/>
<path fill-rule="evenodd" clip-rule="evenodd" d="M292.225 145.506C292.586 148.063 292.956 150.907 291.482 153.028C291.063 153.628 290.53 154.16 290.191 154.811C290.191 154.811 290.191 154.812 290.19 154.812C289.325 156.475 289.839 158.733 291.345 159.862C291.658 160.096 292.104 160.033 292.338 159.719C292.573 159.406 292.51 158.961 292.196 158.726C291.224 157.998 290.891 156.54 291.449 155.467C291.761 154.869 292.261 154.391 292.646 153.84C292.646 153.84 292.646 153.839 292.647 153.838C294.322 151.429 294.04 148.213 293.631 145.307C293.576 144.919 293.217 144.649 292.829 144.703C292.441 144.758 292.171 145.118 292.225 145.506Z" fill="#614544"/>
<path fill-rule="evenodd" clip-rule="evenodd" d="M273.26 132.44C273.26 132.44 276.217 132.181 279.097 131.126C281.207 130.354 283.238 129.134 284.285 127.413C284.693 126.744 284.48 125.87 283.811 125.462C283.142 125.055 282.268 125.268 281.861 125.937C281.12 127.155 279.613 127.915 278.121 128.461C275.599 129.385 273.011 129.613 273.011 129.613C272.23 129.682 271.653 130.371 271.721 131.152C271.79 131.932 272.479 132.509 273.26 132.44Z" fill="#614544"/>
<path fill-rule="evenodd" clip-rule="evenodd" d="M306.951 126.727C308.664 128.143 311.004 128.774 313.212 128.97C316.317 129.247 319.113 128.693 319.113 128.693C319.882 128.542 320.383 127.795 320.232 127.027C320.08 126.258 319.333 125.757 318.565 125.908C318.565 125.908 316.147 126.382 313.464 126.143C311.814 125.997 310.041 125.598 308.76 124.54C308.156 124.04 307.261 124.125 306.762 124.729C306.263 125.332 306.347 126.228 306.951 126.727Z" fill="#614544"/>
<path d="M308.315 146.133C307.153 146.042 306.408 144.367 306.651 142.39C306.893 140.414 308.032 138.886 309.194 138.977C310.356 139.068 311.101 140.744 310.859 142.72C310.616 144.696 309.478 146.224 308.315 146.133Z" fill="#001244"/>
<path d="M279.149 145.786C277.987 145.695 277.242 144.02 277.485 142.044C277.727 140.067 278.866 138.539 280.028 138.63C281.19 138.721 281.935 140.397 281.693 142.373C281.45 144.349 280.312 145.877 279.149 145.786Z" fill="#001244"/>
<path fill-rule="evenodd" clip-rule="evenodd" d="M322.503 109.657C322.503 109.657 311.187 123.305 289.609 121.902C268.032 120.499 267.108 138.268 265.39 142.273C263.62 146.274 262.647 108.252 262.647 108.252L299.945 100.182L322.503 109.657Z" fill="#001244"/>
<path fill-rule="evenodd" clip-rule="evenodd" d="M311.134 128.583C303.007 127.738 295.701 133.654 294.855 141.785C294.01 149.916 299.942 157.207 308.07 158.052C316.197 158.896 323.503 152.981 324.349 144.85C325.194 136.719 319.262 129.428 311.134 128.583ZM310.841 131.405C317.411 132.088 322.209 137.982 321.526 144.557C320.842 151.131 314.933 155.912 308.363 155.23C301.793 154.547 296.995 148.652 297.679 142.078C298.362 135.504 304.271 130.722 310.841 131.405Z" fill="#FAFBFD"/>
<path fill-rule="evenodd" clip-rule="evenodd" d="M277.801 126.153C269.674 125.308 262.368 131.224 261.522 139.355C260.677 147.486 266.609 154.777 274.737 155.622C282.864 156.467 290.17 150.551 291.016 142.42C291.861 134.289 285.929 126.998 277.801 126.153ZM277.508 128.975C284.078 129.658 288.876 135.553 288.193 142.127C287.509 148.701 281.6 153.482 275.03 152.8C268.46 152.117 263.662 146.222 264.346 139.648C265.029 133.074 270.938 128.293 277.508 128.975Z" fill="#FAFBFD"/>
<path fill-rule="evenodd" clip-rule="evenodd" d="M290.447 141.941C290.447 141.941 291.787 141.399 293.307 141.252C294.113 141.167 295.041 141.175 295.704 141.611C296.367 142.039 297.272 141.849 297.694 141.19C298.116 140.535 297.943 139.654 297.279 139.231C296.076 138.455 294.501 138.283 293.026 138.426C291.059 138.611 289.349 139.309 289.349 139.309C288.654 139.604 288.304 140.435 288.582 141.159C288.861 141.883 289.709 142.236 290.447 141.941Z" fill="#FAFBFD"/>
<path fill-rule="evenodd" clip-rule="evenodd" d="M339.828 134.426L330.788 149.563C328.995 150.541 330.101 128.475 330.674 125.145C331.14 122.514 323.843 118.063 320.876 112.121C317.909 106.178 319.313 106.842 319.313 106.842L340.145 108.472L339.828 134.426Z" fill="#001244"/>
<path fill-rule="evenodd" clip-rule="evenodd" d="M322.558 140.61L333.737 142.645C334.506 142.788 335.223 142.272 335.387 141.505C335.499 140.734 334.985 139.992 334.216 139.853L323.088 137.823C322.319 137.679 321.55 138.191 321.438 138.963C321.274 139.73 321.789 140.472 322.558 140.61Z" fill="#FAFBFD"/>
<path fill-rule="evenodd" clip-rule="evenodd" d="M330.114 144.094C330.114 144.094 333.365 137.099 337.453 140.685C342.809 145.337 343.474 164.067 328.885 165.739" fill="#FFA98A"/>
<path fill-rule="evenodd" clip-rule="evenodd" d="M337.876 149.525C337.876 149.525 338.173 147.075 337.671 145.247C337.258 143.752 336.325 142.636 334.605 142.923C334.219 142.989 333.951 143.346 334.021 143.746C334.079 144.12 334.445 144.393 334.831 144.328C335.716 144.191 336.089 144.855 336.304 145.63C336.738 147.209 336.467 149.349 336.467 149.349C336.415 149.728 336.693 150.091 337.084 150.144C337.465 150.172 337.824 149.904 337.876 149.525Z" fill="#614544"/>
<path fill-rule="evenodd" clip-rule="evenodd" d="M241.854 312.168L262.928 222.46C262.928 222.46 277.265 244.259 323.857 229.328L315.281 295.526C291.813 305.043 266.893 311.066 241.854 312.168Z" fill="#F0F3F8"/>
<path fill-rule="evenodd" clip-rule="evenodd" d="M324.367 205.221L324.29 205.102C324.29 205.102 324.32 205.14 324.367 205.221C329.066 212.562 339.117 212.087 353.785 226.566C359.013 231.727 361.895 249.374 363.438 270.011C346.716 281.206 328.406 290.79 309.214 298.004C309.327 296.53 309.438 295.05 309.545 293.567C311.784 262.213 323.617 221.942 324.851 213.687C325.698 208.01 324.665 205.736 324.367 205.221Z" fill="#C62545"/>
<path fill-rule="evenodd" clip-rule="evenodd" d="M183.607 305.781C182.412 305.46 181.226 305.131 180.05 304.792C181.679 300.991 183.669 297.218 185.96 293.554C194.919 279.22 211.047 251.15 225.384 228.755C239.72 206.359 263.016 201.282 263.016 201.282L252.862 253.54C252.862 253.54 246.562 287.275 235.88 312.671L235.386 312.676C235.222 312.678 235.057 312.679 234.892 312.68L234.539 312.683L234.251 312.685L233.915 312.686H233.345L233.087 312.685L232.56 312.683H232.423L231.756 312.678L231.591 312.676L230.896 312.668L230.856 312.666L230.147 312.655L230.075 312.654L229.333 312.638L229.293 312.636L228.535 312.618L227.764 312.595L227.737 312.594C225.919 312.537 224.1 312.452 222.28 312.338L222.267 312.337L221.491 312.287C221.231 312.269 220.97 312.252 220.709 312.233L219.935 312.177L219.915 312.175L219.146 312.116L218.394 312.053L218.333 312.049L217.583 311.984L216.844 311.916L216.773 311.908L216.039 311.839L215.985 311.833L215.271 311.762L215.227 311.757L214.506 311.681L214.401 311.67L213.68 311.591L212.968 311.51L212.844 311.496L212.142 311.412L212.069 311.403L211.413 311.322L211.303 311.308L210.613 311.22L210.482 311.203L209.827 311.115L209.77 311.108L209.078 311.013L208.929 310.992L208.24 310.894L208.183 310.885L207.534 310.79L207.392 310.769L206.715 310.667L206.588 310.647L205.969 310.55L205.864 310.533L205.185 310.424L205.033 310.4L204.341 310.285L203.499 310.142L203.222 310.093L202.659 309.996L202.331 309.937L201.82 309.846L201.475 309.784L200.983 309.693L200.631 309.629L200.144 309.539L199.795 309.472L199.302 309.378L198.963 309.313L198.449 309.214L198.135 309.153L197.546 309.036L197.311 308.989L196.493 308.823L196.293 308.782L195.675 308.654L195.363 308.589L194.861 308.483L194.516 308.409L194.048 308.308L193.688 308.23L193.236 308.131L192.869 308.05L192.425 307.952L192.058 307.868L191.616 307.769L191.249 307.685L190.803 307.582L190.445 307.498L189.968 307.386L189.649 307.311L189.432 307.258L188.882 307.127L188.475 307.028L188.093 306.934L187.663 306.828L187.31 306.74L186.866 306.629L186.531 306.544L186.074 306.428L185.76 306.347L185.286 306.225L185.002 306.151L184.5 306.019L184.268 305.958L183.717 305.811L183.607 305.781Z" fill="#E35459"/>
<path fill-rule="evenodd" clip-rule="evenodd" d="M191.922 228.388C191.922 228.388 176.104 223.382 164.078 235.044L166.082 236.968L190.728 231.715L191.922 228.388Z" fill="#C62545"/>
<path fill-rule="evenodd" clip-rule="evenodd" d="M188.371 230.347C188.371 230.347 191.582 217.021 191.51 211.087C191.44 205.511 189.994 197.433 187.931 194.745C184.724 190.569 181.932 189.387 180.599 190.686C179.506 191.75 181.116 196.991 182.151 198.748C183.184 200.505 181.293 207.086 181.293 207.086C181.293 207.086 179.382 201.845 176.404 196.744C174.057 192.72 170.718 188.667 169.408 188.137C164.638 186.21 158.945 185.552 158.213 187.656C157.271 190.371 159.435 191.623 160.374 192.129C162.705 193.385 165.755 193.397 167.233 195.932C168.712 198.467 170.941 205.608 170.941 205.608C170.941 205.608 164.424 198.881 162.005 197.216C159.805 195.701 152.019 192.359 148.357 192.394C145.939 192.418 144.196 195.23 145.994 196.744C147.749 198.221 151.13 199.291 153.568 199.933C156.005 200.574 162.257 207.224 163.474 209.387C163.474 209.387 154.354 203.419 151.193 203.354C147.554 203.277 145.644 201.701 144.185 202.378C142.232 203.282 141.774 205.9 144.233 207.086C146.369 208.117 150.707 209.355 152.098 209.694C153.723 210.09 155.885 211.82 157.905 213.911C157.905 213.911 151.034 213.527 148.893 215.105C146.752 216.681 149.08 223.225 151.484 223.374C153.263 223.484 153.026 221.749 153.175 220.174C153.206 219.846 161.88 234.705 164.133 235.151L175.051 236.027L188.371 230.347Z" fill="#FFA98A"/>
<path fill-rule="evenodd" clip-rule="evenodd" d="M181.504 206.213C181.504 206.213 174.679 209.403 174.494 220.137C174.489 220.529 174.801 220.851 175.193 220.858C175.584 220.865 175.908 220.553 175.914 220.161C176.08 210.449 182.116 207.493 182.116 207.493C182.47 207.324 182.62 206.901 182.451 206.548C182.282 206.194 181.858 206.044 181.504 206.213Z" fill="#614544"/>
<path fill-rule="evenodd" clip-rule="evenodd" d="M182.477 199.823C182.477 199.823 183.73 200.588 185.615 200.65C186.007 200.665 186.334 200.357 186.347 199.965C186.361 199.575 186.053 199.246 185.662 199.233C184.191 199.183 183.208 198.607 183.208 198.607C182.871 198.405 182.435 198.515 182.234 198.85C182.032 199.186 182.142 199.622 182.477 199.823Z" fill="#614544"/>
<path fill-rule="evenodd" clip-rule="evenodd" d="M165.724 194.617C165.724 194.617 167.926 193.802 168.908 192.759C169.176 192.474 169.163 192.024 168.878 191.756C168.593 191.487 168.143 191.5 167.875 191.785C167.067 192.644 165.242 193.283 165.242 193.283C164.874 193.416 164.682 193.822 164.816 194.191C164.948 194.56 165.355 194.75 165.724 194.617Z" fill="#614544"/>
<path fill-rule="evenodd" clip-rule="evenodd" d="M153.235 200.256C153.235 200.256 155.09 199.571 156.236 197.472C156.423 197.128 156.295 196.697 155.952 196.509C155.608 196.322 155.177 196.448 154.99 196.793C154.12 198.386 152.731 198.929 152.731 198.929C152.365 199.068 152.181 199.478 152.32 199.844C152.459 200.211 152.869 200.395 153.235 200.256Z" fill="#614544"/>
<path fill-rule="evenodd" clip-rule="evenodd" d="M149.818 209.544C149.818 209.544 150.632 209.152 151.351 208.491C151.885 208 152.353 207.362 152.497 206.646C152.573 206.261 152.325 205.887 151.94 205.81C151.557 205.733 151.182 205.983 151.106 206.366C151.02 206.795 150.71 207.154 150.39 207.446C149.832 207.96 149.202 208.265 149.202 208.265C148.849 208.435 148.701 208.86 148.872 209.212C149.042 209.565 149.466 209.712 149.818 209.544Z" fill="#614544"/>
<path fill-rule="evenodd" clip-rule="evenodd" d="M153.749 219.753C153.749 219.753 153.767 218.281 153.491 217.02C153.356 216.399 153.142 215.83 152.853 215.45C152.616 215.138 152.172 215.077 151.86 215.314C151.548 215.551 151.487 215.996 151.724 216.309C151.98 216.648 152.104 217.23 152.192 217.796C152.342 218.775 152.331 219.736 152.331 219.736C152.325 220.128 152.639 220.448 153.031 220.454C153.423 220.458 153.745 220.145 153.749 219.753Z" fill="#614544"/>
<path fill-rule="evenodd" clip-rule="evenodd" d="M152.273 213.941C152.273 213.941 156.75 214.213 159.858 215.17L157.159 213.086L152.273 213.941Z" fill="#FF846B"/>
<path fill-rule="evenodd" clip-rule="evenodd" d="M159.911 206.838C159.911 206.838 163.802 210.129 165.061 212.395L163.814 209.23L159.911 206.838Z" fill="#FF846B"/>
<path fill-rule="evenodd" clip-rule="evenodd" d="M134.431 211.588C134.431 211.588 132.151 204.516 134.88 199.183C135.237 198.486 134.961 197.63 134.263 197.273C133.565 196.917 132.71 197.193 132.353 197.89C129.151 204.148 131.724 212.443 131.724 212.443C131.96 213.189 132.758 213.605 133.505 213.369C134.251 213.133 134.667 212.335 134.431 211.588Z" fill="#001244"/>
<path fill-rule="evenodd" clip-rule="evenodd" d="M174.621 176.698C174.621 176.698 179.935 176.353 182.072 181.427C182.376 182.149 183.209 182.488 183.931 182.185C184.653 181.88 184.992 181.047 184.688 180.326C181.752 173.356 174.429 173.866 174.429 173.866C173.648 173.919 173.056 174.596 173.11 175.378C173.162 176.159 173.84 176.751 174.621 176.698Z" fill="#001244"/>
<path fill-rule="evenodd" clip-rule="evenodd" d="M130.186 215.965C130.186 215.965 126.306 203.825 130.991 194.67C131.347 193.973 131.072 193.117 130.374 192.76C129.675 192.403 128.821 192.681 128.463 193.377C123.306 203.459 127.479 216.819 127.479 216.819C127.714 217.566 128.512 217.98 129.26 217.745C130.007 217.508 130.421 216.712 130.186 215.965Z" fill="#001244"/>
<path fill-rule="evenodd" clip-rule="evenodd" d="M173.969 171.857C173.969 171.857 184.117 170.843 187.176 180.172C187.419 180.915 188.222 181.322 188.966 181.079C189.71 180.835 190.117 180.032 189.872 179.288C186.119 167.836 173.691 169.033 173.691 169.033C172.912 169.11 172.342 169.804 172.418 170.584C172.494 171.363 173.189 171.935 173.969 171.857Z" fill="#001244"/>
<path fill-rule="evenodd" clip-rule="evenodd" d="M217.75 311.983L203.66 288.007L205.229 261.688C205.229 261.688 225.542 305.272 232.33 298.535L230.136 312.646C226.007 312.568 221.875 312.35 217.75 311.983Z" fill="#C62545"/>
<path fill-rule="evenodd" clip-rule="evenodd" d="M177.906 303.996C170.959 275.242 164.078 234.945 164.078 234.945C177.217 237.035 191.934 228.361 191.934 228.361C192.884 235.008 217.853 290.141 228.046 312.453C220.146 312.214 212.247 311.456 204.404 310.137C195.117 308.573 186.281 306.506 177.906 303.996Z" fill="#E35459"/>
<path fill-rule="evenodd" clip-rule="evenodd" d="M227.966 312.43C228.993 309.518 229.756 307.226 230.106 305.923C232.197 298.159 234.587 293.979 231.301 281.138C228.016 268.298 233.692 259.339 243.177 248.887C252.664 238.437 260.571 212.158 260.571 212.158L270.128 209.615L273.712 222.909C264.571 234.692 253.875 277.9 246.862 312.038C240.57 312.482 234.264 312.62 227.966 312.43Z" fill="#C62545"/>
<path fill-rule="evenodd" clip-rule="evenodd" d="M317.068 265.598C317.068 265.598 313.156 257.244 309.565 247.604C307.207 241.356 305.062 234.573 304.258 229.166C302.168 215.433 306.564 199.132 292.683 192.086C278.802 185.04 266.421 184.745 264.76 192.182C264.76 192.182 260.58 194.824 261.277 199.716C261.277 199.716 261.223 199.748 261.17 199.813C260.098 201.104 259.668 202.829 260.043 204.474C260.419 206.114 261.545 207.497 263.046 208.215C267.065 210.101 272.906 212.828 272.906 212.828C272.906 212.828 273.818 231.127 276.712 235.628C279.552 240.129 294.827 270.265 294.827 270.265L317.068 265.598Z" fill="#FFA98A"/>
<path fill-rule="evenodd" clip-rule="evenodd" d="M260.79 199.556C260.793 199.573 260.794 199.59 260.797 199.607C260.797 199.607 260.769 199.64 260.718 199.701C260.384 200.101 260.113 200.544 259.91 201.011C263.874 200.804 270.577 201.235 278.558 204.899C278.914 205.064 279.335 204.906 279.499 204.552C279.662 204.195 279.506 203.774 279.149 203.611C271.519 200.107 265.007 199.458 260.79 199.556Z" fill="#614544"/>
<path fill-rule="evenodd" clip-rule="evenodd" d="M265.003 191.94C264.993 191.983 264.983 192.025 264.973 192.068C264.973 192.068 264.208 192.548 263.382 193.48C267.035 193.108 274.413 193.127 283.419 197.262C283.775 197.425 284.197 197.269 284.36 196.913C284.523 196.558 284.367 196.137 284.011 195.972C275.977 192.284 269.183 191.76 265.003 191.94Z" fill="#614544"/>
<path fill-rule="evenodd" clip-rule="evenodd" d="M262.904 205.796C262.904 205.796 254.759 209.97 259.1 217.049C261.298 220.596 264.192 213.818 264.192 213.818C264.192 213.818 267.032 213.528 268.211 218.415C269.39 223.313 272.123 236.034 280.644 238.284C289.112 240.535 276.357 209.756 276.357 209.756L262.904 205.796Z" fill="#FFA98A"/>
<path fill-rule="evenodd" clip-rule="evenodd" d="M278.22 237.477C277.372 237.008 276.596 236.424 275.882 235.757C276.89 235.75 278.208 235.562 279.829 234.957L278.22 237.477Z" fill="#FF846B"/>
<path fill-rule="evenodd" clip-rule="evenodd" d="M259.202 210.351C259.202 210.351 259.914 208.248 261.918 207.487C262.809 207.157 263.878 207.09 265.259 207.527C265.66 207.643 266.061 207.438 266.15 207.064C266.284 206.69 266.061 206.293 265.705 206.173C263.923 205.612 262.543 205.736 261.429 206.16C258.845 207.157 257.865 209.883 257.865 209.883C257.732 210.257 257.954 210.658 258.311 210.787C258.667 210.916 259.068 210.72 259.202 210.351Z" fill="#614544"/>
<path fill-rule="evenodd" clip-rule="evenodd" d="M337.312 285.342C325.92 291.253 314.04 296.379 301.842 300.533C295.685 283.228 293.937 268.622 293.937 268.622L318.378 255.339L337.312 285.342ZM338.266 284.846C335.945 277.719 331.957 263.15 332.217 247.845C332.581 226.338 333.579 213.086 333.579 213.086C333.579 213.086 359.333 218.048 368.921 243.277C371.019 248.797 373.13 255.009 375.107 261.602C363.65 270.185 351.281 278.027 338.266 284.846Z" fill="#E35459"/>
<path fill-rule="evenodd" clip-rule="evenodd" d="M253.323 106.994C255.498 105.795 256.799 103.536 257.626 101.191C257.874 100.491 259.688 97.8906 264.002 96.9883C264.327 96.9203 264.673 96.8592 265.026 96.8131C265.415 96.7627 265.687 96.4065 265.638 96.018C265.588 95.6299 265.23 95.3555 264.842 95.4059C264.45 95.4566 264.072 95.5238 263.712 95.5995C258.619 96.6644 256.581 99.8896 256.288 100.718C256.287 100.718 256.287 100.719 256.287 100.719C255.576 102.737 254.51 104.72 252.638 105.751C252.295 105.941 252.17 106.372 252.359 106.715C252.548 107.058 252.98 107.183 253.323 106.994Z" fill="#001244"/>
<path d="M317.185 90.5221C319.023 91.9226 321.442 92.1476 323.748 91.969C324.558 91.9081 328.001 92.4924 330.801 96.3965C331.005 96.6814 331.21 96.9859 331.405 97.3073" stroke="#001244" stroke-width="0.00199443" stroke-miterlimit="2" stroke-linecap="round" stroke-linejoin="round"/>
<path fill-rule="evenodd" clip-rule="evenodd" d="M276.563 84.6682C278.888 84.77 282.612 85.6412 284.695 86.6718C284.695 86.6718 284.695 86.6722 284.699 86.6726C286.337 87.4784 287.897 88.5467 288.762 90.0789L288.942 90.4239C289.05 90.6449 289.142 90.8797 289.215 91.1206C289.331 91.4957 289.727 91.7078 290.099 91.5941C290.476 91.4807 290.687 91.0841 290.576 90.7095C290.48 90.3943 290.357 90.0881 290.215 89.7991L289.999 89.3829C288.996 87.6083 287.221 86.3333 285.326 85.3995C283.097 84.297 279.111 83.3597 276.624 83.2502C276.232 83.2333 275.902 83.5368 275.882 83.928C275.867 84.3192 276.171 84.6509 276.563 84.6682Z" fill="#001244"/>
<path fill-rule="evenodd" clip-rule="evenodd" d="M346.385 103.539C347.231 105.707 347.939 109.465 347.838 111.787C347.838 111.787 347.838 111.787 347.839 111.791C347.763 113.614 347.417 115.473 346.365 116.883L346.122 117.188C345.963 117.376 345.786 117.555 345.595 117.719C345.298 117.976 345.264 118.424 345.519 118.719C345.775 119.017 346.223 119.051 346.521 118.797C346.77 118.582 347.001 118.346 347.208 118.099L347.501 117.734C348.719 116.099 349.168 113.96 349.257 111.849C349.364 109.365 348.611 105.341 347.707 103.022C347.564 102.657 347.152 102.477 346.787 102.618C346.423 102.762 346.242 103.174 346.385 103.539Z" fill="#001244"/>
<path d="M308.52 91.6824C309.949 91.8107 311.206 91.4714 312.248 90.7855C312.282 90.7667 312.313 90.7444 312.348 90.7255C313.893 89.6665 314.954 87.8469 315.407 85.6799" stroke="#001244" stroke-width="0.00199443" stroke-miterlimit="2" stroke-linecap="round" stroke-linejoin="round"/>
<path fill-rule="evenodd" clip-rule="evenodd" d="M355.294 138.852L355.409 138.931C357.144 140.005 359.422 140.284 361.782 139.783C362.165 139.702 362.41 139.324 362.328 138.941C362.247 138.557 361.869 138.311 361.486 138.393C359.528 138.813 357.631 138.626 356.182 137.741L356.071 137.664C355.152 137.074 354.437 136.18 354.032 134.985C353.907 134.616 353.504 134.416 353.133 134.542C352.762 134.668 352.563 135.071 352.69 135.444C353.204 136.965 354.123 138.096 355.294 138.852Z" fill="#001244"/>
<path d="M292.548 82.5554C294.377 83.9684 295.25 87.2167 295.515 89.5716C295.6 90.3513 295.623 91.0296 295.588 91.5157" stroke="#001244" stroke-width="0.00199443" stroke-miterlimit="2" stroke-linecap="round" stroke-linejoin="round"/>
<path fill-rule="evenodd" clip-rule="evenodd" d="M353.996 116.647C353.483 118.73 351.008 120.643 349.108 121.751C348.475 122.119 347.905 122.396 347.477 122.552C347.109 122.685 346.916 123.09 347.049 123.459C347.182 123.829 347.588 124.019 347.956 123.886C348.445 123.712 349.097 123.399 349.821 122.982C349.822 122.982 349.823 122.982 349.824 122.981C352.019 121.701 354.78 119.392 355.374 116.987C355.467 116.606 355.235 116.221 354.855 116.128C354.475 116.036 354.091 116.269 353.996 116.647Z" fill="#001244"/>
<path d="M299.492 92.5511C299.85 91.8313 300.249 91.1189 300.726 90.471C301.237 89.7739 301.841 89.156 302.571 88.6999C304.208 87.6788 304.65 87.5436 306.56 87.2607C308.47 86.9821 310.546 86.3189 311.499 84.6384" stroke="#001244" stroke-width="0.00199443" stroke-miterlimit="2" stroke-linecap="round" stroke-linejoin="round"/>
<path fill-rule="evenodd" clip-rule="evenodd" d="M348.801 128.361C349.565 128.397 350.336 128.468 351.082 128.635C351.082 128.634 351.082 128.634 351.083 128.634C351.838 128.8 352.565 129.068 353.203 129.5C354.689 130.511 354.969 130.837 355.929 132.358C357.069 134.174 358.718 135.929 360.854 136.144C361.243 136.182 361.591 135.898 361.63 135.507C361.669 135.116 361.385 134.771 360.994 134.729C359.286 134.56 358.043 133.055 357.13 131.601C356.028 129.857 355.704 129.483 353.999 128.325C353.999 128.325 353.999 128.325 353.999 128.325C353.212 127.79 352.32 127.453 351.388 127.247C350.563 127.065 349.708 126.981 348.866 126.946C348.474 126.926 348.143 127.232 348.125 127.622C348.107 128.012 348.41 128.344 348.801 128.361Z" fill="#001244"/>
<path fill-rule="evenodd" clip-rule="evenodd" d="M259.38 89.2732C259.843 89.8292 260.432 90.255 261.089 90.5593C261.89 90.934 262.8 91.1227 263.689 91.1523C263.689 91.1523 263.689 91.1523 263.689 91.1527C265.165 91.1996 266.622 90.8587 268.059 90.5409C269.889 90.1405 271.768 89.7896 273.621 90.049C274.993 90.2419 276.357 90.831 277.276 91.8263C277.28 91.8267 277.28 91.8275 277.28 91.8279C277.522 92.0861 277.726 92.3697 277.899 92.6829C278.087 93.0264 278.517 93.1528 278.863 92.9649C279.205 92.777 279.332 92.3455 279.144 92.0019C278.917 91.5842 278.64 91.2053 278.318 90.861C277.18 89.6332 275.508 88.8816 273.821 88.6441C273.821 88.6437 273.821 88.6437 273.821 88.6437C271.799 88.3609 269.75 88.7187 267.756 89.1548C267.752 89.1548 267.752 89.1552 267.752 89.1552C266.43 89.4476 265.096 89.7773 263.735 89.7343C263.036 89.7109 262.319 89.5683 261.689 89.2732C261.688 89.2728 261.687 89.2724 261.686 89.2716C261.22 89.0564 260.799 88.7594 260.471 88.3655C260.22 88.0642 259.772 88.0235 259.471 88.274C259.17 88.5246 259.129 88.9723 259.38 89.2732Z" fill="#001244"/>
<path fill-rule="evenodd" clip-rule="evenodd" d="M335.993 89.7717C335.672 90.4197 335.52 91.1307 335.507 91.8545C335.488 92.7385 335.683 93.6468 336.016 94.4726C336.016 94.4726 336.016 94.4725 336.015 94.4727C336.569 95.8415 337.469 97.036 338.34 98.2223C339.446 99.7337 340.526 101.311 341.037 103.11C341.415 104.443 341.428 105.929 340.888 107.171C340.89 107.175 340.889 107.175 340.889 107.176C340.75 107.501 340.573 107.802 340.356 108.087C340.118 108.398 340.177 108.843 340.488 109.083C340.798 109.32 341.244 109.262 341.482 108.951C341.773 108.575 342.008 108.168 342.192 107.734C342.856 106.197 342.868 104.364 342.403 102.725C342.404 102.725 342.404 102.725 342.404 102.725C341.846 100.761 340.691 99.0325 339.486 97.3843C339.484 97.3808 339.484 97.381 339.484 97.381C338.682 96.2899 337.842 95.2034 337.331 93.9416C337.07 93.2923 336.911 92.5788 336.926 91.8837C336.926 91.8825 336.926 91.8813 336.926 91.8799C336.935 91.3672 337.037 90.8615 337.264 90.4025C337.439 90.0515 337.295 89.6255 336.944 89.4516C336.593 89.2772 336.167 89.4209 335.993 89.7717Z" fill="#001244"/>
<path fill-rule="evenodd" clip-rule="evenodd" d="M49.4997 137.722C53.1532 140.695 61.8666 146.901 73.555 149.387L73.2228 121.784H84.2002L83.4649 162.334C83.4649 162.334 104.957 157.799 116.878 142.644L126.335 143.237C126.335 143.237 102.403 167.972 84.521 175.848C84.521 175.848 86.8757 236.801 89.8691 244.783C90.4283 246.273 90.8712 247.629 91.2217 248.846C83.262 239.557 76.4888 229.66 70.8668 219.434C70.9093 217.918 70.9192 216.404 70.8951 214.904C70.5615 194.95 72.8907 167.346 72.8907 167.346L49.7779 147.636C49.5764 144.298 49.4841 140.992 49.4997 137.722Z" fill="#C9DFFF"/>
<path fill-rule="evenodd" clip-rule="evenodd" d="M62.6924 82.6245C65.5013 77.6306 68.7403 73.081 72.4022 69.0492C99.3785 39.3499 129.203 34.4128 159.842 38.8291C165.053 42.8566 169.72 48.8041 170.778 57.4408C173.159 76.8828 159.796 86.0517 159.796 86.0517L62.6924 82.6245Z" fill="#C9DFFF"/>
<path fill-rule="evenodd" clip-rule="evenodd" d="M74.8898 66.3993C79.832 71.081 82.648 75.3525 82.648 75.3525C82.648 75.3525 96.7109 54.7612 120.553 57.8818C160.957 63.1723 164.833 95.9113 161.994 112.37C159.156 128.831 139.854 149.832 115.16 149.548C90.4658 149.264 79.3963 126.276 79.3963 126.276C71.1527 138.639 59.8545 143.29 49.6153 144.559C48.4216 114.225 56.3686 86.7097 72.3605 69.1027C73.2022 68.1761 74.0481 67.2721 74.8898 66.3993Z" fill="#97C1FF"/>
</svg>
