<svg width="501" height="313" viewBox="0 0 501 313" fill="none" xmlns="http://www.w3.org/2000/svg">
<g clip-path="url(#clip0_984:47725)">
<path fill-rule="evenodd" clip-rule="evenodd" d="M277.116 68.3932C330.528 76.8823 419.371 46.7658 450.958 112.44C490.229 194.089 343.059 332.386 211.506 310.083C61.3302 284.623 29.7877 125.572 80.8444 68.958C139.751 3.64023 212.336 58.0975 277.116 68.3932ZM345.903 5.58726C362.197 27.8319 322.455 52.7602 297.625 56.0028C268.094 59.8572 219.857 46.2109 227.645 20.2737C233.857 -0.415605 268.955 17.3134 292.732 11.7051C314.036 6.6814 336.468 -7.29407 345.903 5.58726Z" fill="#EEF5FF"/>
<path d="M268.647 310.39C265.946 301.061 269.47 290.792 277.71 285.209C272.542 274.572 276.365 261.571 286.702 255.561C289.565 253.896 292.638 252.947 295.726 252.638C300.227 252.184 304.758 253.102 308.708 255.243C311.52 253.78 314.507 252.97 317.496 252.764C311.772 241.996 315.528 228.521 326.11 222.369C334.444 217.525 344.569 218.644 351.621 224.407C352.696 219.574 355.327 215.103 359.297 211.82C360.243 211.036 361.264 210.318 362.359 209.681C362.927 209.352 363.504 209.055 364.087 208.78C361.686 201.63 364.537 193.536 371.276 189.618C375.655 187.072 380.729 186.843 385.104 188.548C386.264 184.808 388.765 181.479 392.4 179.366C396.274 177.114 400.692 176.674 404.689 177.782C403.178 168.697 407.277 159.217 415.667 154.341C426.049 148.304 439.209 151.523 445.745 161.448C447.501 159.139 449.725 157.13 452.383 155.586C453.816 154.751 455.304 154.096 456.821 153.609C447.245 219.588 361.229 296.893 268.647 310.39Z" fill="#C9DFFF"/>
<path d="M81.5869 223.379C83.5261 223.881 85.4301 224.653 87.248 225.711C89.9059 227.256 92.1297 229.264 93.8843 231.573C100.421 221.648 113.582 218.43 123.964 224.466C132.352 229.342 136.453 238.822 134.941 247.907C138.939 246.799 143.357 247.239 147.231 249.491C150.866 251.604 153.367 254.933 154.526 258.672C158.901 256.968 163.976 257.196 168.355 259.742C175.094 263.661 177.944 271.757 175.544 278.905C176.126 279.18 176.703 279.477 177.271 279.806C178.366 280.443 179.388 281.161 180.334 281.944C184.304 285.228 186.935 289.699 188.01 294.532C195.062 288.769 205.186 287.649 213.521 292.494C220.65 296.639 224.682 304.11 224.802 311.835C220.383 311.442 215.959 310.875 211.552 310.128C147.712 299.305 105.311 264.34 81.5869 223.379Z" fill="#C9DFFF"/>
<path fill-rule="evenodd" clip-rule="evenodd" d="M70.1879 50.3247C72.9925 37.9727 83.9805 28.7463 97.091 28.7463C112.322 28.7463 124.688 41.198 124.688 56.5356C124.688 61.0985 123.594 65.4057 121.655 69.205L152.888 84.3248H39.4242C38.5959 81.7528 38.1484 79.0089 38.1484 76.1618C38.1484 61.5508 49.928 49.6881 64.4378 49.6881C66.4123 49.6881 68.3369 49.9077 70.1879 50.3247Z" fill="#C9DFFF"/>
<path fill-rule="evenodd" clip-rule="evenodd" d="M476.541 100.167C474.478 91.0792 466.394 84.2915 456.749 84.2915C445.543 84.2915 436.446 93.4521 436.446 104.736C436.446 108.093 437.251 111.261 438.677 114.057L415.699 125.18H499.174C499.783 123.288 500.112 121.269 500.112 119.175C500.112 108.425 491.446 99.6982 480.772 99.6982C479.319 99.6982 477.903 99.8597 476.541 100.167Z" fill="#C9DFFF"/>
<path fill-rule="evenodd" clip-rule="evenodd" d="M304.043 102.86C304.043 102.86 312.335 100.425 313.889 115.56C315.444 130.695 316.136 130.347 318.381 135.914C320.627 141.482 337.409 203.213 316.826 235.152H211.887C211.887 235.152 195.016 199.814 197.715 186.564C200.414 173.312 220.998 152.925 220.66 130.84C220.323 108.754 225.968 88.4789 255 77.6468C284.369 66.6855 303.848 91.5414 304.043 102.86Z" fill="#283545"/>
<path fill-rule="evenodd" clip-rule="evenodd" d="M304.416 302.208C274.364 311.908 242.558 315.547 211.617 310.302C210.099 310.045 208.595 309.774 207.114 309.491L207.076 244.686L235.696 201.713L296.629 193.646L304.416 302.208Z" fill="#78E6A7"/>
<path fill-rule="evenodd" clip-rule="evenodd" d="M207.114 309.408L207.076 244.603L235.696 201.63L235.647 201.815C234.663 205.529 219.034 264.873 213.185 310.477C212.67 310.395 212.143 310.308 211.617 310.219C210.099 309.962 208.595 309.691 207.114 309.408Z" fill="#48DB86"/>
<path fill-rule="evenodd" clip-rule="evenodd" d="M188.708 304.92L191.126 274.51C191.126 274.51 179.156 287.007 165.959 286.832C133.271 286.402 95.377 209.899 95.377 209.899C100.373 199.393 119.66 193.018 119.66 193.018C121.265 198.539 148.078 231.208 161.912 237.895C165.042 239.408 178.22 212.499 193.488 204.448C212.017 194.676 240.061 191.91 240.061 191.91C225.428 219.989 210.742 293.38 207.657 309.355C201.11 308.127 194.793 306.643 188.708 304.92Z" fill="#3F8CFF"/>
<path fill-rule="evenodd" clip-rule="evenodd" d="M177.098 219.335C177.08 219.385 171.886 233.332 170.926 236.955C170.926 236.955 174.775 239.439 175.912 241.553C175.912 241.553 171.439 237.174 162.259 237.997C164.667 237.039 170.08 228.047 177.098 219.335Z" fill="#007AFF"/>
<path fill-rule="evenodd" clip-rule="evenodd" d="M203.086 215.729C201.144 222.647 180.908 291.395 146.4 279.155C152.876 283.929 159.48 286.933 165.884 287.017C179.08 287.191 191.051 274.694 191.051 274.694L191.11 274.31C191.682 270.545 196.438 239.9 203.086 215.729C203.187 215.362 203.239 215.169 203.239 215.169L203.086 215.729Z" fill="#007AFF"/>
<path fill-rule="evenodd" clip-rule="evenodd" d="M387.725 60.3856L394.448 52.1327C394.448 52.1327 393.298 42.9491 392.989 36.5855C392.728 31.2048 396.156 23.4761 398.004 21.2183C398.004 21.2183 401.977 22.336 401.901 25.9624C401.824 29.5871 402.192 36.063 402.192 36.063C402.192 36.063 416.66 21.4778 419.444 20.1733C422.225 18.8687 429.21 29.9781 428.552 33.665C427.895 37.352 423.359 51.8542 411.42 58.6866L406.408 70.8807L395.776 64.6971L387.725 60.3856Z" fill="#FFA98A"/>
<path fill-rule="evenodd" clip-rule="evenodd" d="M401.758 36.5885C401.758 36.5885 405.6 39.9504 405.067 45.3927C405.029 45.783 405.312 46.1306 405.698 46.169C406.086 46.2073 406.431 45.922 406.469 45.5318C407.075 39.3345 402.681 35.5156 402.681 35.5156C402.387 35.2588 401.941 35.2914 401.686 35.5866C401.432 35.8832 401.463 36.3316 401.758 36.5885Z" fill="#614544"/>
<path fill-rule="evenodd" clip-rule="evenodd" d="M411.09 58.1433C411.09 58.1433 409.101 58.0539 407.426 56.9768C407.097 56.7667 406.662 56.8632 406.453 57.1939C406.243 57.5231 406.339 57.9631 406.667 58.1731C408.661 59.4546 411.028 59.561 411.028 59.561C411.415 59.578 411.745 59.2743 411.762 58.8826C411.78 58.4924 411.479 58.1603 411.09 58.1433Z" fill="#614544"/>
<path fill-rule="evenodd" clip-rule="evenodd" d="M422.523 21.6788L413.428 31.3856C413.162 31.6708 413.174 32.1207 413.458 32.3889C413.739 32.6571 414.186 32.6443 414.454 32.3591L423.548 22.6523C423.816 22.3671 423.802 21.9172 423.52 21.649C423.237 21.3808 422.79 21.3936 422.523 21.6788Z" fill="#614544"/>
<path fill-rule="evenodd" clip-rule="evenodd" d="M424.808 25.5234L416.163 35.734C415.911 36.032 415.946 36.4804 416.242 36.7344C416.538 36.9885 416.984 36.953 417.236 36.655L425.88 26.4444C426.133 26.1464 426.098 25.698 425.802 25.4439C425.506 25.1899 425.06 25.2254 424.808 25.5234Z" fill="#614544"/>
<path fill-rule="evenodd" clip-rule="evenodd" d="M427.198 29.4262C427.198 29.4262 423.698 35.0402 420.965 38.6533C420.728 38.9655 420.789 39.4111 421.097 39.6481C421.407 39.8851 421.85 39.8255 422.085 39.5133C424.85 35.8591 428.392 30.1812 428.392 30.1812C428.599 29.8491 428.5 29.4106 428.171 29.202C427.841 28.9934 427.405 29.0941 427.198 29.4262Z" fill="#614544"/>
<path fill-rule="evenodd" clip-rule="evenodd" d="M329.743 292.218C335.585 269.802 329.044 240.433 329.044 240.433C313.724 225.186 309.811 214.61 309.811 214.61C314.619 221.873 328.242 226.312 328.242 226.312C347.309 225.697 388.817 129.191 388.868 129.075C373.617 167.347 353.649 215.383 342.058 234.992L349.122 282.551C342.817 286.025 336.349 289.258 329.743 292.218Z" fill="#007AFF"/>
<path fill-rule="evenodd" clip-rule="evenodd" d="M379.939 69.2355C382.435 66.1149 384.887 63.139 387.277 60.3376C387.277 60.3376 404.328 64.998 409.199 75.5336C409.169 75.6088 362.112 200.246 341.511 235.096L348.576 282.655C334.286 290.53 319.157 297.164 303.552 302.162C300.821 278.981 294.719 222.563 296.27 193.438C296.27 193.438 342.672 115.917 379.698 69.5378L379.939 69.2355Z" fill="#3F8CFF"/>
<path fill-rule="evenodd" clip-rule="evenodd" d="M249.833 162.749H281.845V180.891L296.279 193.636C296.279 193.636 290.298 210.137 264.998 210.137C239.699 210.137 235.346 201.703 235.346 201.703L239.761 192.148L250.174 185.894L249.833 162.749Z" fill="#FFA98A"/>
<path fill-rule="evenodd" clip-rule="evenodd" d="M282.098 174.32C282.098 174.32 281.726 184.329 271.816 189.316C271.816 189.316 267.861 198.307 258.42 198.682C251.201 198.969 245.138 194.89 245.727 188.717L250.172 168.642L282.098 162.749V174.32Z" fill="#FF846B"/>
<path fill-rule="evenodd" clip-rule="evenodd" d="M292.837 98.5249H236.724V144.358C236.724 151.851 239.68 159.037 244.941 164.335C250.203 169.633 257.339 172.61 264.78 172.61H264.781C272.222 172.61 279.359 169.633 284.619 164.335C289.882 159.037 292.837 151.851 292.837 144.358V98.5249Z" fill="#FFA98A"/>
<path fill-rule="evenodd" clip-rule="evenodd" d="M284.431 102.305C284.431 102.305 276.658 116.049 225.692 115.004C225.692 115.004 227.541 88.5619 258.059 81.9503C288.577 75.34 305.336 112.742 305.336 112.742L294.279 115.7C294.279 115.7 283.395 113.612 284.431 102.305Z" fill="#283545"/>
<path fill-rule="evenodd" clip-rule="evenodd" d="M292.989 130.262C292.989 130.262 296.444 127.896 299.07 129.845C301.697 131.793 305.43 150.419 291.884 152.031L292.989 130.262Z" fill="#FFA98A"/>
<path fill-rule="evenodd" clip-rule="evenodd" d="M242.764 119.41C242.764 119.41 245.595 115.506 255.039 119.529C255.755 119.834 256.582 119.496 256.885 118.776C257.19 118.053 256.853 117.22 256.137 116.915C244.007 111.748 240.399 117.864 240.399 117.864C239.975 118.522 240.161 119.401 240.814 119.827C241.468 120.254 242.34 120.067 242.764 119.41Z" fill="#614544"/>
<path d="M273.938 134.7C275.069 134.7 275.987 132.975 275.987 130.846C275.987 128.717 275.069 126.992 273.938 126.992C272.806 126.992 271.889 128.717 271.889 130.846C271.889 132.975 272.806 134.7 273.938 134.7Z" fill="#283545"/>
<path d="M245.668 134.7C246.8 134.7 247.717 132.975 247.717 130.846C247.717 128.717 246.8 126.992 245.668 126.992C244.537 126.992 243.619 128.717 243.619 130.846C243.619 132.975 244.537 134.7 245.668 134.7Z" fill="#283545"/>
<path fill-rule="evenodd" clip-rule="evenodd" d="M245.947 117.966C238.954 117.966 233.277 123.683 233.277 130.725C233.277 137.766 238.954 143.484 245.947 143.484C252.941 143.484 258.618 137.766 258.618 130.725C258.618 123.683 252.941 117.966 245.947 117.966ZM245.947 120.805C251.385 120.805 255.799 125.25 255.799 130.725C255.799 136.2 251.385 140.646 245.947 140.646C240.51 140.646 236.096 136.2 236.096 130.725C236.096 125.25 240.51 120.805 245.947 120.805Z" fill="white"/>
<path fill-rule="evenodd" clip-rule="evenodd" d="M274.906 117.966C267.913 117.966 262.236 123.683 262.236 130.725C262.236 137.766 267.913 143.484 274.906 143.484C281.9 143.484 287.577 137.766 287.577 130.725C287.577 123.683 281.9 117.966 274.906 117.966ZM274.906 120.805C280.344 120.805 284.758 125.25 284.758 130.725C284.758 136.2 280.344 140.646 274.906 140.646C269.469 140.646 265.055 136.2 265.055 130.725C265.055 125.25 269.469 120.805 274.906 120.805Z" fill="white"/>
<path fill-rule="evenodd" clip-rule="evenodd" d="M258.297 131.487C258.297 131.487 260.277 130.083 263.145 131.616C263.832 131.982 264.686 131.72 265.051 131.027C265.414 130.334 265.154 129.476 264.466 129.108C259.801 126.616 256.581 129.236 256.581 129.236C255.964 129.714 255.848 130.605 256.322 131.227C256.795 131.847 257.682 131.965 258.297 131.487Z" fill="white"/>
<path fill-rule="evenodd" clip-rule="evenodd" d="M286.518 132.151L293.429 131.561C294.204 131.494 294.779 130.807 294.714 130.027C294.648 129.246 293.966 128.666 293.191 128.733L286.28 129.323C285.505 129.39 284.928 130.077 284.994 130.857C285.059 131.638 285.743 132.218 286.518 132.151Z" fill="white"/>
<path fill-rule="evenodd" clip-rule="evenodd" d="M259.157 132.661C259.515 135.218 259.883 138.063 258.419 140.184C258.003 140.784 257.474 141.315 257.137 141.967C257.137 141.967 257.137 141.967 257.136 141.967C256.278 143.63 256.788 145.889 258.283 147.017C258.594 147.252 259.036 147.188 259.269 146.875C259.503 146.562 259.439 146.116 259.128 145.882C258.163 145.153 257.832 143.696 258.387 142.622C258.696 142.025 259.193 141.546 259.575 140.995C259.575 140.995 259.575 140.994 259.576 140.994C261.239 138.585 260.959 135.368 260.553 132.463C260.498 132.075 260.141 131.805 259.756 131.859C259.371 131.914 259.103 132.273 259.157 132.661Z" fill="#614544"/>
<path fill-rule="evenodd" clip-rule="evenodd" d="M266.46 157.168C266.46 157.168 272.662 156.513 274.48 150.832C274.6 150.459 274.397 150.059 274.026 149.938C273.656 149.819 273.258 150.023 273.14 150.396C271.595 155.219 266.316 155.756 266.316 155.756C265.929 155.798 265.647 156.147 265.688 156.535C265.727 156.926 266.074 157.208 266.46 157.168Z" fill="#614544"/>
<path fill-rule="evenodd" clip-rule="evenodd" d="M269.347 119.633C269.347 119.633 275.882 114.469 283.281 119.685C283.918 120.133 284.797 119.977 285.244 119.335C285.689 118.694 285.534 117.809 284.897 117.359C275.71 110.883 267.596 117.41 267.596 117.41C266.987 117.895 266.884 118.789 267.367 119.404C267.851 120.017 268.737 120.12 269.347 119.633Z" fill="#614544"/>
<path fill-rule="evenodd" clip-rule="evenodd" d="M111.711 192.443C111.711 192.443 108.882 145.45 107.301 137.568C105.517 128.667 88.28 127.088 74.8524 134.372C58.182 143.415 54.1064 155.702 60.0085 162.61C65.4426 168.969 95.6618 198.658 98.6607 200.256C101.658 201.854 112.239 199.19 111.711 192.443Z" fill="#FDD571"/>
<path fill-rule="evenodd" clip-rule="evenodd" d="M65.7275 172.059C65.7275 172.059 82.3669 172.766 93.8469 165.074C106.257 156.759 110.1 144.003 110.1 144.003L111.89 156.109C111.89 156.109 108.295 165.305 97.9747 171.28C87.6559 177.256 76.9496 178.554 71.4027 178.294L65.7275 172.059Z" fill="#F26D62"/>
<path fill-rule="evenodd" clip-rule="evenodd" d="M78.8281 185.534C78.8281 185.534 91.599 185.925 100.499 180.468C110.349 174.431 111.705 167.61 111.705 167.61L113.269 176.312C113.269 176.312 109.07 183.976 103.237 187.223C97.4038 190.47 86.1817 191.899 86.1817 191.899L78.8281 185.534Z" fill="#F26D62"/>
<path fill-rule="evenodd" clip-rule="evenodd" d="M60.2955 158.114C61.7738 160.709 75.5411 161.413 87.5679 154.457C99.9061 147.318 105.834 137.965 103.421 135.108C99.317 130.251 84.8296 130.537 73.2651 137.945C64.3881 143.632 57.0781 152.458 60.2955 158.114Z" fill="#F9B100"/>
<path fill-rule="evenodd" clip-rule="evenodd" d="M92.8381 139.437C92.8381 139.437 89.0119 133.308 87.6238 127.312C86.812 123.803 86.7078 120.293 89.422 118.521C90.7749 117.638 92.3604 117.705 93.9782 118.051C95.9244 118.468 97.9186 119.311 99.7436 119.928C101.14 120.401 102.454 120.744 103.601 120.777C105.069 120.82 106.311 120.394 107.271 119.317C108.088 118.397 108.316 117.27 108.019 115.996C107.799 115.058 107.256 114.009 106.473 112.938C103.316 108.617 96.0823 103.631 96.0823 103.631C95.4397 103.19 94.5617 103.359 94.1248 104.006C93.6865 104.653 93.8528 105.536 94.4954 105.977C94.4954 105.977 101.261 110.593 104.204 114.62C104.727 115.336 105.128 116.019 105.275 116.646C105.344 116.938 105.36 117.211 105.172 117.422C104.652 118.007 103.901 118.008 103.051 117.881C101.762 117.688 100.289 117.121 98.7458 116.564C97.0138 115.936 95.2043 115.316 93.4639 115.082C91.4768 114.814 89.57 115.041 87.8887 116.139C84.2007 118.549 83.7751 123.187 84.8785 127.956C86.3653 134.376 90.4508 140.946 90.4508 140.946C90.8651 141.61 91.7347 141.81 92.3942 141.394C93.0523 140.977 93.2525 140.1 92.8381 139.437Z" fill="#F26D62"/>
<path fill-rule="evenodd" clip-rule="evenodd" d="M76.6825 155.156C76.6825 155.156 63.0957 140.269 41.2702 146.017C40.5176 146.215 40.0667 146.992 40.2626 147.749C40.4599 148.507 41.2307 148.961 41.9833 148.763C62.0782 143.471 74.6123 157.08 74.6123 157.08C75.1394 157.656 76.0315 157.692 76.6036 157.161C77.1744 156.629 77.211 155.731 76.6825 155.156Z" fill="#F26D62"/>
<path fill-rule="evenodd" clip-rule="evenodd" d="M79.0505 138.772C79.0505 138.772 76.4574 138.744 73.822 137.969C72.2296 137.501 70.592 136.783 69.6506 135.52C69.0869 134.762 69.3927 133.776 69.7971 132.713C70.3792 131.182 71.3614 129.55 72.1196 128.045C72.8567 126.585 73.3753 125.21 73.3964 124.097C73.4162 123.013 73.054 122.101 72.2 121.398C71.2994 120.657 70.1889 120.396 68.9474 120.501C67.5381 120.621 65.9188 121.255 64.3757 121.912C63.2961 122.372 62.2589 122.84 61.3866 123.034C61.2034 123.074 61.0328 123.101 60.8736 123.104C60.8102 123.104 60.7439 123.154 60.7115 123.103C60.4325 122.69 60.51 122.027 60.5762 121.265C60.7242 119.518 61.2118 117.386 61.2922 115.516C61.4134 112.723 60.6326 110.487 58.0156 109.753C55.6339 109.084 53.2071 110.193 51.0594 111.315C50.2406 111.744 49.4754 112.161 48.7764 112.35C48.4705 112.432 48.1873 112.505 47.9562 112.312C47.2261 111.704 46.9344 110.484 46.7329 109.287C46.3665 107.113 46.5046 104.892 46.5046 104.892C46.5539 104.11 45.9634 103.436 45.1869 103.388C44.4104 103.338 43.741 103.933 43.6917 104.715C43.6917 104.715 43.4803 108.213 44.2272 111.041C44.6063 112.48 45.2503 113.742 46.1607 114.5C47.508 115.621 49.2682 115.367 51.2482 114.402C52.2615 113.908 53.3636 113.252 54.5093 112.807C55.407 112.459 56.3329 112.226 57.2588 112.488C58.0776 112.716 58.3482 113.376 58.4426 114.158C58.5427 114.972 58.4637 115.906 58.3425 116.863C58.1297 118.526 57.7816 120.249 57.7281 121.648C57.6788 122.917 57.8902 123.974 58.3806 124.699C58.9232 125.504 59.7025 125.895 60.6862 125.938C61.605 125.978 62.793 125.633 64.0783 125.113C65.365 124.593 66.7841 123.904 68.1088 123.537C68.9924 123.293 69.8197 123.105 70.4172 123.596C70.5398 123.697 70.5737 123.835 70.5779 123.987C70.5835 124.238 70.5243 124.513 70.437 124.807C70.1269 125.857 69.4575 127.065 68.7909 128.314C67.8566 130.063 66.9349 131.883 66.653 133.488C66.4064 134.887 66.6037 136.158 67.3957 137.223C68.6838 138.951 70.8541 140.054 73.0314 140.694C76.0501 141.581 79.0209 141.609 79.0209 141.609C79.7988 141.618 80.4372 140.989 80.4442 140.206C80.4527 139.422 79.827 138.78 79.0505 138.772Z" fill="#007AFF"/>
<path fill-rule="evenodd" clip-rule="evenodd" d="M19.1213 100.434C19.0861 100.583 19.017 100.842 18.9409 101.02C18.6901 101.603 18.3068 102.244 17.9136 102.897C17.2061 104.072 16.4832 105.283 16.1731 106.303C15.8391 107.406 15.9392 108.368 16.455 109.109C17.223 110.213 18.6859 110.881 20.2262 111.173C22.1513 111.538 24.1257 111.372 24.1257 111.372C24.9008 111.307 25.4772 110.621 25.4123 109.841C25.3475 109.06 24.6654 108.479 23.8903 108.544C23.8903 108.544 22.2993 108.677 20.7462 108.383C19.988 108.24 19.2003 108.053 18.7986 107.528C18.8028 107.474 18.8141 107.336 18.8367 107.248C18.9057 106.973 19.0311 106.679 19.1819 106.37C19.6681 105.375 20.4038 104.282 20.9647 103.273C21.5552 102.212 21.9441 101.201 21.9667 100.405C21.9906 99.4984 21.6679 98.7519 20.9055 98.2041C20.2558 97.7372 19.437 97.5102 18.5167 97.4903C17.4908 97.4676 16.3098 97.7103 15.1979 97.9615C14.5412 98.1105 13.6477 98.2325 13.1855 98.2907L13.1869 98.2765C13.2038 98.058 13.246 97.8238 13.2968 97.5797C13.4659 96.7822 13.7294 95.9023 13.8675 95.0565C14.1311 93.4458 13.9211 91.96 12.7711 90.924C12.1736 90.3862 11.3788 90.074 10.45 89.9718C9.41563 89.8569 8.18392 90.0087 6.99449 90.2202C6.00659 90.3947 4.62408 90.5735 4.13224 90.636C4.11251 90.5877 4.09419 90.538 4.08151 90.4955C3.97159 90.1378 3.89971 89.705 3.84898 89.2608C3.67564 87.7594 3.7461 86.1189 3.7461 86.1189C3.77852 85.3355 3.17394 84.6742 2.39742 84.6402C1.62091 84.6075 0.962778 85.2149 0.928956 85.9983C0.928956 85.9983 0.826069 88.5768 1.1798 90.4699C1.39683 91.6251 1.85202 92.5461 2.37346 92.9761C2.69195 93.2372 3.13588 93.4316 3.71228 93.487C4.38591 93.5537 5.3724 93.4089 6.46459 93.2046C7.40599 93.0272 8.44605 92.8143 9.39026 92.7746C9.98639 92.749 10.5431 92.7249 10.8911 93.0385C11.1533 93.2755 11.166 93.6161 11.1533 93.9666C11.1293 94.6634 10.9179 95.4198 10.7389 96.1407C10.3725 97.6138 10.2274 98.9917 10.6741 99.89C11.1462 100.841 12.2455 101.326 13.8281 101.123C14.8104 100.998 16.059 100.634 17.254 100.436C17.729 100.357 18.1926 100.306 18.614 100.336C18.7972 100.348 18.9705 100.37 19.1213 100.434Z" fill="#007AFF"/>
<path fill-rule="evenodd" clip-rule="evenodd" d="M45.043 129.538L46.5439 123.521L53.9736 128.093L51.8061 131.596L45.043 129.538Z" fill="#F26D62"/>
<path fill-rule="evenodd" clip-rule="evenodd" d="M41.5957 157.306L45.7658 155.112L49.4383 161.829L44.9737 165.047L41.5957 157.306Z" fill="#0049DC"/>
<path fill-rule="evenodd" clip-rule="evenodd" d="M70.5547 108.592L74.9925 110.158L74.2879 112.848H70.7661L70.5547 108.592Z" fill="#0049DC"/>
<path fill-rule="evenodd" clip-rule="evenodd" d="M55.3857 61.7266L59.8236 63.2919L59.1189 65.9825H55.5971L55.3857 61.7266Z" fill="#F26D62"/>
<path fill-rule="evenodd" clip-rule="evenodd" d="M72.031 93.8909L69.1758 89.7287L75.1102 90.0976L79.9187 86.0276L80.7474 91.9993L84.8822 94.3451L80.2964 97.2202L79.1422 101.987L75.1102 98.9047L69.7761 99.6412L72.031 93.8909Z" fill="#F9B100"/>
<path fill-rule="evenodd" clip-rule="evenodd" d="M20.7529 127.742L18.8418 124.956L22.8139 125.203L26.0323 122.479L26.587 126.476L29.3545 128.046L26.2851 129.97L25.5126 133.161L22.8139 131.098L19.2436 131.591L20.7529 127.742Z" fill="#F9B100"/>
<path fill-rule="evenodd" clip-rule="evenodd" d="M43.6641 79.6157L47.8961 77.0017L54.228 82.8116L47.4156 87.042L43.6641 79.6157Z" fill="#F9B100"/>
<path fill-rule="evenodd" clip-rule="evenodd" d="M116.222 194.002C116.222 194.002 115.62 173.899 110.651 174.569L111.807 192.694C111.807 192.694 112.086 200.736 99.1657 200.207C99.1657 200.207 100.954 195.021 97.3815 193.012C97.3815 193.012 98.2116 178.797 92.4448 179.59C90.2379 179.894 90.5803 184.144 90.5803 184.144C90.5803 184.144 89.8869 175.775 85.8085 176.3C81.7286 176.826 79.5992 180.423 78.9298 183.173C78.2618 185.923 80.9578 192.799 85.8085 196.819C90.6578 200.84 102.95 204.331 107.888 202.426C112.826 200.522 116.222 194.002 116.222 194.002Z" fill="#FFA98A"/>
</g>
<defs>
<clipPath id="clip0_984:47725">
<rect width="501" height="313" fill="white"/>
</clipPath>
</defs>
</svg>
