<svg width="16" height="12" viewBox="0 0 16 12" fill="none" xmlns="http://www.w3.org/2000/svg">
<path d="M7.2354 0.744243C7.1037 0.611461 6.94702 0.506069 6.77439 0.434147C6.60175 0.362225 6.41659 0.325195 6.22957 0.325195C6.04255 0.325195 5.85739 0.362225 5.68475 0.434147C5.51212 0.506069 5.35543 0.611461 5.22374 0.744243L0.973735 4.99424C0.840953 5.12594 0.735562 5.28263 0.663639 5.45526C0.591717 5.62789 0.554688 5.81306 0.554688 6.00008C0.554687 6.18709 0.591717 6.37226 0.663639 6.54489C0.735562 6.71753 0.840953 6.87421 0.973735 7.00591L5.22374 11.2559C5.35543 11.3887 5.51212 11.4941 5.68475 11.566C5.85739 11.6379 6.04255 11.675 6.22957 11.675C6.41659 11.675 6.60175 11.6379 6.77439 11.566C6.94702 11.4941 7.1037 11.3887 7.2354 11.2559C7.36818 11.1242 7.47358 10.9675 7.5455 10.7949C7.61742 10.6223 7.65445 10.4371 7.65445 10.2501C7.65445 10.0631 7.61742 9.87789 7.5455 9.70526C7.47358 9.53263 7.36818 9.37594 7.2354 9.24424L3.97707 6.00008L7.2354 2.75591C7.36818 2.62421 7.47358 2.46753 7.5455 2.29489C7.61742 2.12226 7.65445 1.93709 7.65445 1.75008C7.65445 1.56306 7.61742 1.37789 7.5455 1.20526C7.47358 1.03263 7.36818 0.87594 7.2354 0.744243ZM11.7687 6.00008L15.0837 2.75591C15.3505 2.48915 15.5004 2.12734 15.5004 1.75008C15.5004 1.37282 15.3505 1.01101 15.0837 0.744243C14.817 0.477479 14.4552 0.327613 14.0779 0.327613C13.7006 0.327613 13.3388 0.477479 13.0721 0.744243L8.82207 4.99424C8.68929 5.12594 8.5839 5.28263 8.51197 5.45526C8.44005 5.62789 8.40302 5.81306 8.40302 6.00008C8.40302 6.18709 8.44005 6.37226 8.51197 6.54489C8.5839 6.71753 8.68929 6.87421 8.82207 7.00591L13.0721 11.2559C13.2038 11.3887 13.3605 11.4941 13.5331 11.566C13.7057 11.6379 13.8909 11.675 14.0779 11.675C14.2649 11.675 14.4501 11.6379 14.6227 11.566C14.7954 11.4941 14.952 11.3887 15.0837 11.2559C15.2165 11.1242 15.3219 10.9675 15.3938 10.7949C15.4658 10.6223 15.5028 10.4371 15.5028 10.2501C15.5028 10.0631 15.4658 9.87789 15.3938 9.70526C15.3219 9.53263 15.2165 9.37594 15.0837 9.24424L11.7687 6.00008Z" fill="white"/>
</svg>
