<svg width="12" height="16" viewBox="0 0 12 16" fill="none" xmlns="http://www.w3.org/2000/svg">
<path d="M10.5 0.5H3C2.20435 0.5 1.44129 0.816071 0.87868 1.37868C0.31607 1.94129 0 2.70435 0 3.5V12.5C0 13.2956 0.31607 14.0587 0.87868 14.6213C1.44129 15.1839 2.20435 15.5 3 15.5H10.5C10.8978 15.5 11.2794 15.342 11.5607 15.0607C11.842 14.7794 12 14.3978 12 14V2C12 1.60218 11.842 1.22064 11.5607 0.93934C11.2794 0.658035 10.8978 0.5 10.5 0.5ZM1.5 3.5C1.5 3.10218 1.65804 2.72064 1.93934 2.43934C2.22064 2.15804 2.60218 2 3 2H10.5V9.5H3C2.47128 9.50222 1.95299 9.64734 1.5 9.92V3.5ZM3 14C2.60218 14 2.22064 13.842 1.93934 13.5607C1.65804 13.2794 1.5 12.8978 1.5 12.5C1.5 12.1022 1.65804 11.7206 1.93934 11.4393C2.22064 11.158 2.60218 11 3 11H10.5V14H3ZM4.5 5H7.5C7.69891 5 7.88968 4.92098 8.03033 4.78033C8.17098 4.63968 8.25 4.44891 8.25 4.25C8.25 4.05109 8.17098 3.86032 8.03033 3.71967C7.88968 3.57902 7.69891 3.5 7.5 3.5H4.5C4.30109 3.5 4.11032 3.57902 3.96967 3.71967C3.82902 3.86032 3.75 4.05109 3.75 4.25C3.75 4.44891 3.82902 4.63968 3.96967 4.78033C4.11032 4.92098 4.30109 5 4.5 5Z" fill="#29384E"/>
</svg>
