<svg width="14" height="16" viewBox="0 0 14 16" fill="none" xmlns="http://www.w3.org/2000/svg">
<path d="M13.6526 11.9375L11.6201 8.4275C12.036 7.66363 12.2526 6.80725 12.2501 5.9375C12.2501 4.54511 11.6969 3.20976 10.7124 2.22519C9.7278 1.24062 8.39244 0.6875 7.00005 0.6875C5.60767 0.6875 4.27231 1.24062 3.28774 2.22519C2.30318 3.20976 1.75005 4.54511 1.75005 5.9375C1.74747 6.80725 1.96415 7.66363 2.38005 8.4275L0.347555 11.9375C0.281601 12.0517 0.24694 12.1813 0.247071 12.3132C0.247201 12.4452 0.282117 12.5747 0.348297 12.6888C0.414477 12.8029 0.509579 12.8975 0.624009 12.9631C0.738439 13.0288 0.86815 13.063 1.00005 13.0625H3.15255L4.24755 14.9075C4.28447 14.9686 4.32993 15.0242 4.38255 15.0725C4.52159 15.2065 4.70695 15.2817 4.90005 15.2825H5.00505C5.11828 15.267 5.22647 15.2258 5.32136 15.1621C5.41625 15.0985 5.49533 15.0139 5.55255 14.915L7.00005 12.425L8.44755 14.9375C8.50562 15.035 8.58507 15.1181 8.67991 15.1805C8.77475 15.2428 8.8825 15.2828 8.99505 15.2975H9.10005C9.29575 15.2987 9.48415 15.2233 9.62505 15.0875C9.6755 15.042 9.71852 14.9888 9.75255 14.93L10.8476 13.085H13.0001C13.1322 13.0855 13.2622 13.0511 13.3767 12.9853C13.4913 12.9194 13.5865 12.8245 13.6526 12.71C13.7226 12.5934 13.7597 12.4598 13.7597 12.3237C13.7597 12.1877 13.7226 12.0541 13.6526 11.9375ZM4.89255 13.085L4.22505 11.9675C4.15933 11.8566 4.06614 11.7646 3.95447 11.7002C3.84281 11.6358 3.71644 11.6013 3.58755 11.6H2.29005L3.36255 9.74C4.1011 10.4517 5.03192 10.9314 6.04005 11.12L4.89255 13.085ZM7.00005 9.6875C6.25837 9.6875 5.53335 9.46757 4.91667 9.05551C4.29998 8.64346 3.81933 8.05779 3.53551 7.37256C3.25168 6.68734 3.17742 5.93334 3.32211 5.20591C3.4668 4.47848 3.82396 3.8103 4.3484 3.28585C4.87285 2.7614 5.54104 2.40425 6.26847 2.25956C6.99589 2.11486 7.74989 2.18912 8.43512 2.47295C9.12034 2.75678 9.70601 3.23743 10.1181 3.85411C10.5301 4.4708 10.7501 5.19582 10.7501 5.9375C10.7501 6.93206 10.355 7.88589 9.6517 8.58915C8.94844 9.29241 7.99462 9.6875 7.00005 9.6875ZM10.4126 11.6C10.2837 11.6013 10.1573 11.6358 10.0456 11.7002C9.93397 11.7646 9.84078 11.8566 9.77505 11.9675L9.10755 13.085L7.96755 11.0975C8.97217 10.905 9.89953 10.4257 10.6376 9.7175L11.7101 11.5775L10.4126 11.6Z" fill="#29384E"/>
</svg>
