<svg width="14" height="14" viewBox="0 0 14 14" fill="none" xmlns="http://www.w3.org/2000/svg">
<path d="M6.99992 0.333252C3.33325 0.333252 0.333252 3.33325 0.333252 6.99992C0.333252 10.6666 3.33325 13.6666 6.99992 13.6666C10.6666 13.6666 13.6666 10.6666 13.6666 6.99992C13.6666 3.33325 10.6666 0.333252 6.99992 0.333252ZM8.99992 7.66659H6.99992C6.59992 7.66659 6.33325 7.39992 6.33325 6.99992V3.66659C6.33325 3.26659 6.59992 2.99992 6.99992 2.99992C7.39992 2.99992 7.66659 3.26659 7.66659 3.66659V6.33325H8.99992C9.39992 6.33325 9.66659 6.59992 9.66659 6.99992C9.66659 7.39992 9.39992 7.66659 8.99992 7.66659Z" fill="#7F8895"/>
</svg>
