<svg width="28" height="28" viewBox="0 0 28 28" fill="none" xmlns="http://www.w3.org/2000/svg">
<path d="M22.2483 5.75164C21.1721 4.63735 19.8847 3.74856 18.4614 3.13712C17.038 2.52568 15.5071 2.20384 13.958 2.19038C12.4089 2.17692 10.8726 2.47211 9.43884 3.05872C8.00505 3.64533 6.70244 4.51161 5.60703 5.60703C4.51161 6.70244 3.64533 8.00505 3.05872 9.43884C2.47211 10.8726 2.17692 12.4089 2.19038 13.958C2.20384 15.5071 2.52568 17.038 3.13712 18.4614C3.74856 19.8847 4.63735 21.1721 5.75164 22.2483C6.82785 23.3626 8.1152 24.2514 9.53858 24.8628C10.962 25.4743 12.4929 25.7961 14.042 25.8096C15.591 25.823 17.1273 25.5278 18.5611 24.9412C19.9949 24.3546 21.2975 23.4883 22.3929 22.3929C23.4883 21.2975 24.3546 19.9949 24.9412 18.5611C25.5278 17.1273 25.823 15.591 25.8096 14.042C25.7961 12.4929 25.4743 10.962 24.8628 9.53858C24.2514 8.1152 23.3626 6.82785 22.2483 5.75164Z" fill="#A9AFB8"/>
<path d="M17.9429 9.42291C18.0849 9.48205 18.2137 9.56872 18.322 9.67791C18.4312 9.78621 18.5179 9.91506 18.5771 10.057C18.6362 10.199 18.6666 10.3513 18.6666 10.505C18.6666 10.6588 18.6362 10.8111 18.5771 10.9531C18.5179 11.095 18.4312 11.2239 18.322 11.3322L15.6426 14L18.322 16.6678C18.4312 16.7761 18.5179 16.9049 18.5771 17.0469C18.6362 17.1889 18.6666 17.3411 18.6666 17.4949C18.6666 17.6487 18.6362 17.801 18.5771 17.9429C18.5179 18.0849 18.4312 18.2137 18.322 18.322C18.2137 18.4312 18.0849 18.5179 17.9429 18.5771C17.801 18.6362 17.6487 18.6666 17.4949 18.6666C17.3411 18.6666 17.1889 18.6362 17.0469 18.5771C16.9049 18.5179 16.7761 18.4312 16.6678 18.322L14 15.6426L11.3322 18.322C11.2239 18.4312 11.095 18.5179 10.9531 18.5771C10.8111 18.6362 10.6588 18.6666 10.505 18.6666C10.3513 18.6666 10.199 18.6362 10.057 18.5771C9.91506 18.5179 9.78621 18.4312 9.67791 18.322C9.56872 18.2137 9.48205 18.0849 9.42291 17.9429C9.36376 17.801 9.33331 17.6487 9.33331 17.4949C9.33331 17.3411 9.36376 17.1889 9.42291 17.0469C9.48205 16.9049 9.56872 16.7761 9.67791 16.6678L12.3574 14L9.67791 11.3322C9.45854 11.1128 9.3353 10.8153 9.3353 10.505C9.3353 10.1948 9.45854 9.89728 9.67791 9.67791C9.89728 9.45854 10.1948 9.3353 10.505 9.3353C10.8153 9.3353 11.1128 9.45854 11.3322 9.67791L14 12.3574L16.6678 9.67791C16.7761 9.56872 16.9049 9.48205 17.0469 9.42291C17.1889 9.36376 17.3411 9.33331 17.4949 9.33331C17.6487 9.33331 17.801 9.36376 17.9429 9.42291Z" fill="white"/>
</svg>
