<svg width="16" height="16" viewBox="0 0 16 16" fill="none" xmlns="http://www.w3.org/2000/svg">
<path d="M10.7826 5.2175C10.7128 5.1472 10.6299 5.09141 10.5385 5.05333C10.4471 5.01525 10.3491 4.99565 10.2501 4.99565C10.151 4.99565 10.053 5.01525 9.96163 5.05333C9.87023 5.09141 9.78728 5.1472 9.71756 5.2175L8.00006 6.9425L6.28256 5.2175C6.14133 5.07627 5.94979 4.99693 5.75006 4.99693C5.55033 4.99693 5.35879 5.07627 5.21756 5.2175C5.07633 5.35873 4.99699 5.55027 4.99699 5.75C4.99699 5.94972 5.07633 6.14127 5.21756 6.2825L6.94256 8L5.21756 9.7175C5.14726 9.78722 5.09147 9.87017 5.05339 9.96156C5.01531 10.053 4.99571 10.151 4.99571 10.25C4.99571 10.349 5.01531 10.447 5.05339 10.5384C5.09147 10.6298 5.14726 10.7128 5.21756 10.7825C5.28728 10.8528 5.37023 10.9086 5.46163 10.9467C5.55302 10.9847 5.65105 11.0043 5.75006 11.0043C5.84907 11.0043 5.9471 10.9847 6.03849 10.9467C6.12989 10.9086 6.21284 10.8528 6.28256 10.7825L8.00006 9.0575L9.71756 10.7825C9.78728 10.8528 9.87023 10.9086 9.96163 10.9467C10.053 10.9847 10.151 11.0043 10.2501 11.0043C10.3491 11.0043 10.4471 10.9847 10.5385 10.9467C10.6299 10.9086 10.7128 10.8528 10.7826 10.7825C10.8529 10.7128 10.9087 10.6298 10.9467 10.5384C10.9848 10.447 11.0044 10.349 11.0044 10.25C11.0044 10.151 10.9848 10.053 10.9467 9.96156C10.9087 9.87017 10.8529 9.78722 10.7826 9.7175L9.05756 8L10.7826 6.2825C10.8529 6.21278 10.9087 6.12982 10.9467 6.03843C10.9848 5.94704 11.0044 5.84901 11.0044 5.75C11.0044 5.65099 10.9848 5.55296 10.9467 5.46157C10.9087 5.37017 10.8529 5.28722 10.7826 5.2175V5.2175ZM13.3026 2.6975C12.6107 1.98117 11.7831 1.40981 10.8681 1.01674C9.95306 0.623671 8.96891 0.416774 7.97307 0.40812C6.97722 0.399466 5.98963 0.589229 5.0679 0.966336C4.14618 1.34344 3.30879 1.90034 2.6046 2.60454C1.9004 3.30873 1.3435 4.14612 0.966397 5.06784C0.58929 5.98957 0.399528 6.97716 0.408181 7.97301C0.416835 8.96885 0.623732 9.953 1.0168 10.868C1.40987 11.7831 1.98123 12.6106 2.69756 13.3025C3.38941 14.0188 4.217 14.5902 5.13203 14.9833C6.04706 15.3763 7.0312 15.5832 8.02705 15.5919C9.02289 15.6005 10.0105 15.4108 10.9322 15.0337C11.8539 14.6566 12.6913 14.0997 13.3955 13.3955C14.0997 12.6913 14.6566 11.8539 15.0337 10.9322C15.4108 10.0104 15.6006 9.02283 15.5919 8.02699C15.5833 7.03114 15.3764 6.04699 14.9833 5.13196C14.5903 4.21693 14.0189 3.38935 13.3026 2.6975V2.6975ZM12.2451 12.245C11.2641 13.2271 9.97296 13.8386 8.59165 13.9755C7.21035 14.1123 5.82431 13.766 4.6697 12.9956C3.51509 12.2251 2.66333 11.0782 2.25954 9.75011C1.85575 8.42207 1.92491 6.9951 2.45524 5.71234C2.98558 4.42957 3.94427 3.37036 5.16798 2.71517C6.39169 2.05998 7.80472 1.84935 9.16631 2.11915C10.5279 2.38896 11.7538 3.12252 12.6352 4.19484C13.5166 5.26717 13.999 6.61193 14.0001 8C14.0027 8.78846 13.849 9.56963 13.5478 10.2983C13.2465 11.0269 12.8037 11.6886 12.2451 12.245V12.245Z" fill="#A9AFB8"/>
</svg>
