<svg width="40" height="32" viewBox="0 0 40 32" fill="none" xmlns="http://www.w3.org/2000/svg">
<path fill-rule="evenodd" clip-rule="evenodd" d="M26.4836 2.01103C26.7313 1.3298 26.3799 0.576733 25.6987 0.329012C25.0174 0.0812916 24.2644 0.432722 24.0166 1.11395L13.5166 29.989C13.2689 30.6702 13.6203 31.4233 14.3016 31.671C14.9828 31.9187 15.7359 31.5673 15.9836 30.886L26.4836 2.01103ZM10.5083 8.59725C10.9723 9.15411 10.8971 9.98172 10.3402 10.4458L3.67519 16L10.3402 21.5542C10.8971 22.0182 10.9723 22.8459 10.5083 23.4027C10.0442 23.9596 9.21662 24.0348 8.65976 23.5708L0.784758 17.0083C0.485518 16.7589 0.3125 16.3895 0.3125 16C0.3125 15.6105 0.485518 15.2411 0.784758 14.9917L8.65976 8.4292C9.21662 7.96514 10.0442 8.04038 10.5083 8.59725ZM29.4917 8.59725C29.9558 8.04038 30.7834 7.96514 31.3403 8.4292L39.2153 14.9917C39.5145 15.2411 39.6875 15.6105 39.6875 16C39.6875 16.3895 39.5145 16.7589 39.2153 17.0083L31.3403 23.5708C30.7834 24.0348 29.9558 23.9596 29.4917 23.4027C29.0277 22.8459 29.1029 22.0182 29.6598 21.5542L36.3248 16L29.6598 10.4458C29.1029 9.98172 29.0277 9.15411 29.4917 8.59725Z" fill="#007AFF"/>
</svg>
