<svg width="42" height="42" viewBox="0 0 42 42" fill="none" xmlns="http://www.w3.org/2000/svg">
<path fill-rule="evenodd" clip-rule="evenodd" d="M25.7063 5.25004C26.1986 4.75776 26.8663 4.4812 27.5625 4.4812C28.2587 4.4812 28.9264 4.75776 29.4187 5.25004L28.5412 6.1275L29.4187 5.25004L36.75 12.5814C37.2423 13.0737 37.5188 13.7414 37.5188 14.4375C37.5188 15.1337 37.2423 15.8014 36.75 16.2937L32.4281 20.6156L18.9187 34.125H35.4374C36.1623 34.125 36.7499 34.7127 36.7499 35.4376C36.7499 36.1624 36.1623 36.75 35.4374 36.75L15.75 36.75L15.7499 36.75C15.7489 36.75 15.7478 36.75 15.7468 36.75H7.875C7.17881 36.75 6.51113 36.4735 6.01884 35.9812C5.52656 35.4889 5.25 34.8212 5.25 34.125V26.7937C5.25 26.4893 5.30293 26.1876 5.40611 25.902C5.41311 25.8818 5.42062 25.8618 5.42864 25.8419C5.4355 25.8243 5.44256 25.8067 5.44982 25.7892C5.58173 25.4707 5.77509 25.1813 6.01885 24.9375L21.3835 9.57291L21.3844 9.57197L21.3854 9.57103L25.7063 5.25004ZM7.875 29.4188L7.875 34.125H12.5813L7.875 29.4188ZM15.75 33.5814L8.41862 26.2501L22.3125 12.3562L29.6438 19.6875L15.75 33.5814ZM34.8938 14.4375L31.5 17.8314L24.1687 10.5L27.5625 7.1062L34.8938 14.4375Z" fill="#007AFF"/>
</svg>
