<svg width="80" height="80" viewBox="0 0 80 80" fill="none" xmlns="http://www.w3.org/2000/svg">
<path fill-rule="evenodd" clip-rule="evenodd" d="M40 80C62.0914 80 80 62.0914 80 40C80 17.9086 62.0914 0 40 0C17.9086 0 0 17.9086 0 40C0 62.0914 17.9086 80 40 80Z" fill="#E0EFFF"/>
<path d="M37.494 39.7586V53.091H24V44.2993C24 40.9501 24.5783 37.9229 25.7349 35.2178C26.8916 32.4483 28.8514 29.6787 31.6145 26.9092L36.5301 30.7737C34.988 32.4483 33.7992 33.9941 32.9639 35.411C32.1285 36.828 31.5823 38.2772 31.3253 39.7586H37.494ZM56 39.7586V53.091H42.506V44.2993C42.506 40.9501 43.0843 37.9229 44.241 35.2178C45.3976 32.4483 47.3574 29.6787 50.1205 26.9092L55.0361 30.7737C53.494 32.4483 52.3052 33.9941 51.4699 35.411C50.6345 36.828 50.0884 38.2772 49.8313 39.7586H56Z" fill="white"/>
</svg>
