<svg width="16" height="16" viewBox="0 0 16 16" fill="none" xmlns="http://www.w3.org/2000/svg">
<path d="M14.75 3.5C14.5511 3.5 14.3603 3.57902 14.2197 3.71967C14.079 3.86032 14 4.05109 14 4.25V11.75C14 12.3467 13.7629 12.919 13.341 13.341C12.919 13.7629 12.3467 14 11.75 14H4.25C4.05109 14 3.86032 14.079 3.71967 14.2197C3.57902 14.3603 3.5 14.5511 3.5 14.75C3.5 14.9489 3.57902 15.1397 3.71967 15.2803C3.86032 15.421 4.05109 15.5 4.25 15.5H11.75C12.7446 15.5 13.6984 15.1049 14.4017 14.4017C15.1049 13.6984 15.5 12.7446 15.5 11.75V4.25C15.5 4.05109 15.421 3.86032 15.2803 3.71967C15.1397 3.57902 14.9489 3.5 14.75 3.5ZM12.5 10.25V2.75C12.5 2.15326 12.2629 1.58097 11.841 1.15901C11.419 0.737053 10.8467 0.5 10.25 0.5H2.75C2.15326 0.5 1.58097 0.737053 1.15901 1.15901C0.737053 1.58097 0.5 2.15326 0.5 2.75V10.25C0.5 10.8467 0.737053 11.419 1.15901 11.841C1.58097 12.2629 2.15326 12.5 2.75 12.5H10.25C10.8467 12.5 11.419 12.2629 11.841 11.841C12.2629 11.419 12.5 10.8467 12.5 10.25ZM6.5 2H8V5.645L7.73 5.42C7.59523 5.30775 7.42539 5.24628 7.25 5.24628C7.07461 5.24628 6.90477 5.30775 6.77 5.42L6.5 5.645V2ZM2 10.25V2.75C2 2.55109 2.07902 2.36032 2.21967 2.21967C2.36032 2.07902 2.55109 2 2.75 2H5V7.25C4.99999 7.39337 5.04108 7.53375 5.11839 7.65449C5.1957 7.77523 5.30601 7.87128 5.43623 7.93126C5.56645 7.99124 5.71114 8.01264 5.85315 7.99292C5.99516 7.9732 6.12855 7.91319 6.2375 7.82L7.25 6.9725L8.2625 7.82C8.39836 7.93618 8.57124 8.00001 8.75 8C8.85851 7.99923 8.96571 7.97626 9.065 7.9325C9.19518 7.87225 9.30536 7.77593 9.38246 7.65496C9.45956 7.53399 9.50035 7.39345 9.5 7.25V2H10.25C10.4489 2 10.6397 2.07902 10.7803 2.21967C10.921 2.36032 11 2.55109 11 2.75V10.25C11 10.4489 10.921 10.6397 10.7803 10.7803C10.6397 10.921 10.4489 11 10.25 11H2.75C2.55109 11 2.36032 10.921 2.21967 10.7803C2.07902 10.6397 2 10.4489 2 10.25Z" fill="#29384E"/>
</svg>
