<svg width="25" height="24" viewBox="0 0 25 24" fill="none" xmlns="http://www.w3.org/2000/svg">
<path d="M6.78994 14.29L6.49994 14.59V7C6.49994 6.73478 6.39458 6.48043 6.20705 6.29289C6.01951 6.10536 5.76516 6 5.49994 6C5.23472 6 4.98037 6.10536 4.79283 6.29289C4.6053 6.48043 4.49994 6.73478 4.49994 7V14.59L4.20994 14.29C4.02164 14.1017 3.76624 13.9959 3.49994 13.9959C3.23364 13.9959 2.97824 14.1017 2.78994 14.29C2.60164 14.4783 2.49585 14.7337 2.49585 15C2.49585 15.2663 2.60164 15.5217 2.78994 15.71L4.78994 17.71C4.88505 17.801 4.99719 17.8724 5.11994 17.92C5.23964 17.9729 5.36907 18.0002 5.49994 18.0002C5.63081 18.0002 5.76024 17.9729 5.87994 17.92C6.00269 17.8724 6.11484 17.801 6.20994 17.71L8.20994 15.71C8.30318 15.6168 8.37714 15.5061 8.4276 15.3842C8.47806 15.2624 8.50403 15.1319 8.50403 15C8.50403 14.8681 8.47806 14.7376 8.4276 14.6158C8.37714 14.4939 8.30318 14.3832 8.20994 14.29C8.1167 14.1968 8.00601 14.1228 7.88419 14.0723C7.76237 14.0219 7.6318 13.9959 7.49994 13.9959C7.36808 13.9959 7.23751 14.0219 7.11569 14.0723C6.99387 14.1228 6.88318 14.1968 6.78994 14.29ZM11.4999 8H21.4999C21.7652 8 22.0195 7.89464 22.207 7.70711C22.3946 7.51957 22.4999 7.26522 22.4999 7C22.4999 6.73478 22.3946 6.48043 22.207 6.29289C22.0195 6.10536 21.7652 6 21.4999 6H11.4999C11.2347 6 10.9804 6.10536 10.7928 6.29289C10.6053 6.48043 10.4999 6.73478 10.4999 7C10.4999 7.26522 10.6053 7.51957 10.7928 7.70711C10.9804 7.89464 11.2347 8 11.4999 8ZM21.4999 11H11.4999C11.2347 11 10.9804 11.1054 10.7928 11.2929C10.6053 11.4804 10.4999 11.7348 10.4999 12C10.4999 12.2652 10.6053 12.5196 10.7928 12.7071C10.9804 12.8946 11.2347 13 11.4999 13H21.4999C21.7652 13 22.0195 12.8946 22.207 12.7071C22.3946 12.5196 22.4999 12.2652 22.4999 12C22.4999 11.7348 22.3946 11.4804 22.207 11.2929C22.0195 11.1054 21.7652 11 21.4999 11ZM21.4999 16H11.4999C11.2347 16 10.9804 16.1054 10.7928 16.2929C10.6053 16.4804 10.4999 16.7348 10.4999 17C10.4999 17.2652 10.6053 17.5196 10.7928 17.7071C10.9804 17.8946 11.2347 18 11.4999 18H21.4999C21.7652 18 22.0195 17.8946 22.207 17.7071C22.3946 17.5196 22.4999 17.2652 22.4999 17C22.4999 16.7348 22.3946 16.4804 22.207 16.2929C22.0195 16.1054 21.7652 16 21.4999 16Z" fill="#29384E"/>
</svg>
