<svg width="42" height="42" viewBox="0 0 42 42" fill="none" xmlns="http://www.w3.org/2000/svg">
<path fill-rule="evenodd" clip-rule="evenodd" d="M7.875 21.5886C8.59987 21.5886 9.1875 22.1762 9.1875 22.9011V34.1249H32.8125V22.9014C32.8125 22.1765 33.4001 21.5889 34.125 21.5889C34.8499 21.5889 35.4375 22.1765 35.4375 22.9014V34.1249C35.4375 34.8211 35.1609 35.4888 34.6687 35.9811C34.1764 36.4734 33.5087 36.7499 32.8125 36.7499H9.1875C8.49131 36.7499 7.82363 36.4734 7.33134 35.9811C6.83906 35.4888 6.5625 34.8211 6.5625 34.1249V22.9011C6.5625 22.1762 7.15013 21.5886 7.875 21.5886Z" fill="#007AFF"/>
<path fill-rule="evenodd" clip-rule="evenodd" d="M7.28427 5.77934C7.73968 5.43582 8.29459 5.25 8.86503 5.25H33.135C33.7054 5.25 34.2603 5.43582 34.7158 5.77934C35.1712 6.12285 35.5023 6.60537 35.659 7.15386L38.012 15.3894C38.1252 15.7854 38.0459 16.2116 37.7978 16.5404C37.5498 16.8692 37.1619 17.0625 36.75 17.0625H5.25001C4.83816 17.0625 4.45019 16.8692 4.20218 16.5404C3.95416 16.2116 3.87487 15.7854 3.98801 15.3894L6.34103 7.15386L7.60303 7.51443L6.34103 7.15386C6.49774 6.60537 6.82886 6.12285 7.28427 5.77934ZM33.135 7.875L8.86503 7.875L6.99003 14.4375H35.01L33.135 7.875Z" fill="#007AFF"/>
<path fill-rule="evenodd" clip-rule="evenodd" d="M5.25 14.4375C5.97487 14.4375 6.5625 15.0251 6.5625 15.75V18.375C6.5625 19.4193 6.97734 20.4208 7.71577 21.1592C8.45419 21.8977 9.45571 22.3125 10.5 22.3125C11.5443 22.3125 12.5458 21.8977 13.2842 21.1592C14.0227 20.4208 14.4375 19.4193 14.4375 18.375V15.75C14.4375 15.0251 15.0251 14.4375 15.75 14.4375C16.4749 14.4375 17.0625 15.0251 17.0625 15.75V18.375C17.0625 20.1155 16.3711 21.7847 15.1404 23.0154C13.9097 24.2461 12.2405 24.9375 10.5 24.9375C8.75952 24.9375 7.09032 24.2461 5.85961 23.0154C4.6289 21.7847 3.9375 20.1155 3.9375 18.375V15.75C3.9375 15.0251 4.52513 14.4375 5.25 14.4375Z" fill="#007AFF"/>
<path fill-rule="evenodd" clip-rule="evenodd" d="M15.75 14.4375C16.4749 14.4375 17.0625 15.0251 17.0625 15.75V18.375C17.0625 19.4193 17.4773 20.4208 18.2158 21.1592C18.9542 21.8977 19.9557 22.3125 21 22.3125C22.0443 22.3125 23.0458 21.8977 23.7842 21.1592C24.5227 20.4208 24.9375 19.4193 24.9375 18.375V15.75C24.9375 15.0251 25.5251 14.4375 26.25 14.4375C26.9749 14.4375 27.5625 15.0251 27.5625 15.75V18.375C27.5625 20.1155 26.8711 21.7847 25.6404 23.0154C24.4097 24.2461 22.7405 24.9375 21 24.9375C19.2595 24.9375 17.5903 24.2461 16.3596 23.0154C15.1289 21.7847 14.4375 20.1155 14.4375 18.375V15.75C14.4375 15.0251 15.0251 14.4375 15.75 14.4375Z" fill="#007AFF"/>
<path fill-rule="evenodd" clip-rule="evenodd" d="M26.25 14.4375C26.9749 14.4375 27.5625 15.0251 27.5625 15.75V18.375C27.5625 19.4193 27.9773 20.4208 28.7158 21.1592C29.4542 21.8977 30.4557 22.3125 31.5 22.3125C32.5443 22.3125 33.5458 21.8977 34.2842 21.1592C35.0227 20.4208 35.4375 19.4193 35.4375 18.375V15.75C35.4375 15.0251 36.0251 14.4375 36.75 14.4375C37.4749 14.4375 38.0625 15.0251 38.0625 15.75V18.375C38.0625 20.1155 37.3711 21.7847 36.1404 23.0154C34.9097 24.2461 33.2405 24.9375 31.5 24.9375C29.7595 24.9375 28.0903 24.2461 26.8596 23.0154C25.6289 21.7847 24.9375 20.1155 24.9375 18.375V15.75C24.9375 15.0251 25.5251 14.4375 26.25 14.4375Z" fill="#007AFF"/>
</svg>
