<svg width="42" height="42" viewBox="0 0 42 42" fill="none" xmlns="http://www.w3.org/2000/svg">
<path d="M20.9991 2.625C10.8538 2.625 2.625 10.852 2.625 20.9991C2.625 31.148 10.852 39.375 20.9991 39.375C31.148 39.375 39.375 31.148 39.375 21.0009C39.375 10.852 31.148 2.625 21.0009 2.625H20.9991ZM5.25145 20.9991C5.25145 18.7773 5.74436 16.664 6.61617 14.7567L14.1295 34.8045C8.87476 32.3196 5.25145 27.0704 5.25145 21.0009V20.9991ZM21.0028 36.3439C19.4974 36.3424 17.9996 36.1326 16.5518 35.7204L21.2786 22.3436L26.1159 35.2624L26.2262 35.4758C24.5448 36.0509 22.7798 36.3443 21.0028 36.3439ZM23.1657 13.8076C24.1129 13.758 24.9682 13.6605 24.9682 13.6605C25.8161 13.563 25.7186 12.3509 24.8707 12.3969C24.8707 12.3969 22.3178 12.5919 20.6699 12.5919C19.1249 12.5919 16.5205 12.3969 16.5205 12.3969C15.6708 12.3491 15.5733 13.6108 16.4194 13.6623C16.4194 13.6623 17.2249 13.758 18.071 13.8076L20.5264 20.3553L17.0796 30.4252L11.3467 13.8095C12.2976 13.7616 13.1492 13.6642 13.1492 13.6642C13.9952 13.5648 13.8977 12.3528 13.0499 12.3988C13.0499 12.3988 10.4988 12.5937 8.85453 12.5937L7.8411 12.5753C10.6552 8.41127 15.4961 5.65976 20.9972 5.65976C25.0988 5.65976 28.8306 7.18633 31.6354 9.68771L31.4294 9.673C29.8826 9.673 28.7865 10.9844 28.7865 12.3951C28.7865 13.6605 29.5332 14.7272 30.3314 15.9926C30.9365 17.0171 31.6299 18.3285 31.6299 20.2229C31.6299 21.5361 31.1149 23.059 30.4344 25.1852L28.86 30.2965L23.1657 13.8076ZM28.917 34.2545L33.7304 20.7085C34.6316 18.5198 34.9259 16.7725 34.9259 15.2146C34.9259 14.65 34.8891 14.1258 34.8229 13.6366C36.0883 15.884 36.7528 18.4198 36.7522 20.9991C36.7504 26.6584 33.6016 31.5987 28.917 34.2545Z" fill="#007AFF"/>
</svg>
