<svg width="222" height="290" viewBox="0 0 222 290" fill="none" xmlns="http://www.w3.org/2000/svg">
<path fill-rule="evenodd" clip-rule="evenodd" d="M207.999 56.3737C124.259 56.3737 56.3733 124.259 56.3733 208C56.3733 291.741 124.259 359.626 207.999 359.626C291.74 359.626 359.626 291.741 359.626 208C359.626 124.259 291.74 56.3737 207.999 56.3737ZM55.8873 208C55.8873 123.991 123.99 55.8877 207.999 55.8877C292.009 55.8877 360.112 123.991 360.112 208C360.112 292.009 292.009 360.112 207.999 360.112C123.99 360.112 55.8873 292.009 55.8873 208Z" fill="#2199FA"/>
<path fill-rule="evenodd" clip-rule="evenodd" d="M208 0.485981C93.3932 0.485981 0.485981 93.3932 0.485981 208C0.485981 322.607 93.3932 415.514 208 415.514C322.607 415.514 415.514 322.607 415.514 208C415.514 93.3932 322.607 0.485981 208 0.485981ZM0 208C0 93.1248 93.1248 0 208 0C322.875 0 416 93.1248 416 208C416 322.875 322.875 416 208 416C93.1248 416 0 322.875 0 208Z" fill="#2199FA"/>
</svg>
