<svg width="857" height="788" viewBox="0 0 857 788" fill="none" xmlns="http://www.w3.org/2000/svg">
<path d="M428.265 672.5C600.854 672.5 740.765 532.589 740.765 360C740.765 187.411 600.854 47.5 428.265 47.5C255.676 47.5 115.765 187.411 115.765 360C115.765 532.589 255.676 672.5 428.265 672.5Z" stroke="#2199FA"/>
<path fill-rule="evenodd" clip-rule="evenodd" d="M428.265 -67C292.891 -67 172.23 -4.00301 94 94.2743V92.6714C172.434 -5.2743 293.024 -68 428.265 -68C563.776 -68 684.578 -5.02282 763 93.2603V94.8666C684.784 -3.7498 563.911 -67 428.265 -67ZM855.006 345C855.178 349.979 855.265 354.979 855.265 360C855.265 595.826 664.09 787 428.265 787C192.439 787 1.26474 595.826 1.26474 360C1.26474 354.979 1.35139 349.979 1.52328 345H0.522676C0.351188 349.979 0.26474 354.979 0.26474 360C0.26474 596.378 191.887 788 428.265 788C664.643 788 856.265 596.378 856.265 360C856.265 354.979 856.178 349.979 856.007 345H855.006Z" fill="#2199FA"/>
</svg>
