<svg width="320" height="409" viewBox="0 0 320 409" fill="none" xmlns="http://www.w3.org/2000/svg">
<path fill-rule="evenodd" clip-rule="evenodd" d="M160 56.3739C76.259 56.3739 8.37368 124.259 8.37368 208C8.37368 291.741 76.259 359.626 160 359.626C243.741 359.626 311.626 291.741 311.626 208C311.626 124.259 243.741 56.3739 160 56.3739ZM7.8877 208C7.8877 123.991 75.9906 55.8879 160 55.8879C244.009 55.8879 312.112 123.991 312.112 208C312.112 292.009 244.009 360.112 160 360.112C75.9906 360.112 7.8877 292.009 7.8877 208Z" fill="#2199FA"/>
<path fill-rule="evenodd" clip-rule="evenodd" d="M160 0.485981C45.3932 0.485981 -47.514 93.3932 -47.514 208C-47.514 322.607 45.3932 415.514 160 415.514C274.607 415.514 367.514 322.607 367.514 208C367.514 93.3932 274.607 0.485981 160 0.485981ZM-48 208C-48 93.1248 45.1248 0 160 0C274.875 0 368 93.1248 368 208C368 322.875 274.875 416 160 416C45.1248 416 -48 322.875 -48 208Z" fill="#2199FA"/>
</svg>
