<svg width="809" height="620" viewBox="0 0 809 620" fill="none" xmlns="http://www.w3.org/2000/svg">
<path d="M386.062 622.5C558.651 622.5 698.562 482.589 698.562 310C698.562 137.411 558.651 -2.5 386.062 -2.5C213.473 -2.5 73.5618 137.411 73.5618 310C73.5618 482.589 213.473 622.5 386.062 622.5Z" stroke="#2199FA"/>
<path fill-rule="evenodd" clip-rule="evenodd" d="M8.70036 110C80.4191 -25.0385 222.501 -117 386.062 -117C621.887 -117 813.062 74.1744 813.062 310C813.062 545.826 621.887 737 386.062 737C216.514 737 70.0461 638.183 1.10981 495H0C69.0107 638.752 215.946 738 386.062 738C622.44 738 814.062 546.378 814.062 310C814.062 73.6221 622.44 -118 386.062 -118C221.929 -118 79.3749 -25.6105 7.56822 110H8.70036Z" fill="#2199FA"/>
</svg>
