<svg width="55" height="55" fill="none" xmlns="http://www.w3.org/2000/svg"><path d="M24.996 16.866a12.369 12.369 0 0 0-9.66.242 11.847 11.847 0 0 0-3.285 2.24l-8.123 7.82A6.219 6.219 0 0 0 2 31.649c0 3.475 2.97 6.334 6.578 6.334h.003c.08 0 .159 0 .239-.004-1.94-.686-3.238-2.474-3.238-4.464 0-1.3.554-2.545 1.532-3.442l6.792-6.537.72-.697.245-.235.277-.267c.169-.16.344-.314.525-.46 2.807-2.36 6.411-3.658 10.137-3.654.607 0 1.214.034 1.817.102a11.917 11.917 0 0 0-2.631-1.458zm27.527 3.09c-1.359-3.22-5.227-4.794-8.572-3.49l-.084.034a6.581 6.581 0 0 0-2.095 1.358l-4.97 4.785-.717.688-.066.06c-.86.762-2.21.736-3.036-.06l-3.812-3.67a14.907 14.907 0 0 0-8.577.563 7.589 7.589 0 0 1 5.151 2.111l6.593 6.347c1.206 1.158 3.188 1.158 4.394 0l8.138-7.836a2.22 2.22 0 0 1 .254-.21 5.053 5.053 0 0 1 3.212-1.143c2.088 0 3.961 1.275 4.656 3.17a6.226 6.226 0 0 0-.47-2.708h.001zm-4.184.595c-.222 0-.444.018-.663.055.106.071.205.15.297.239.411.395.642.933.642 1.493s-.23 1.097-.642 1.493l-8.087 7.788-.052.05c-.143.137-.29.268-.442.392-2.826 2.428-6.485 3.769-10.272 3.764-.565 0-1.13-.029-1.692-.087 3.331 2.382 7.723 2.925 11.57 1.428a11.795 11.795 0 0 0 3.934-2.511l7.892-7.594.25-.242c.089-.085.175-.172.258-.261a3.615 3.615 0 0 0 .843-2.31c0-2.027-1.732-3.695-3.837-3.695h-.002l.003-.002zM34.456 33.778a7.62 7.62 0 0 1-5.222-2.111l-6.561-6.317a3.22 3.22 0 0 0-2.221-.905 3.15 3.15 0 0 0-2.202.876l-1.936 1.865-.815.784-1.892 1.823-.785.756-1.296 1.25-1.159 1.117-.232.224c-.411.396-.97.619-1.551.619-.582 0-1.14-.223-1.551-.619a2.104 2.104 0 0 1-.277-.325c-.046.23-.07.463-.07.697 0 2.027 1.732 3.695 3.837 3.697a3.9 3.9 0 0 0 2.611-.988c.017-.015.034-.03.05-.047l.05-.047.067-.064 2.138-2.059 3.474-3.345c.854-.804 2.24-.796 3.084.017l3.885 3.74c2.858.634 5.851.412 8.574-.638z" fill="#fff"/></svg>