<svg width="45" height="22" viewBox="0 0 45 22" fill="none" xmlns="http://www.w3.org/2000/svg">
<path d="M20.2866 1.77788C17.7148 0.729171 14.8304 0.729171 12.2586 1.77788L11.7636 2.00128C11.3614 2.18741 10.9733 2.40245 10.6026 2.64469C9.97491 3.04614 9.39256 3.51351 8.86561 4.03873L1.66561 11.1877C1.13097 11.7257 0.708862 12.3635 0.423612 13.0643C-0.0112361 14.1154 -0.121915 15.271 0.105611 16.3847C0.333136 17.4983 0.888617 18.5198 1.70161 19.3196C2.24453 19.8578 2.89013 20.2832 3.60061 20.5706C4.29279 20.848 5.03221 20.9905 5.77861 20.9906H5.98561C5.29896 20.7342 4.68868 20.3096 4.21137 19.7565C3.73406 19.2033 3.4052 18.5394 3.25529 17.8263C3.10537 17.1133 3.13927 16.3742 3.35382 15.6776C3.56838 14.981 3.95665 14.3495 4.48261 13.8417H4.50061L10.5036 7.87235L11.1426 7.23788L11.3586 7.03235L11.6016 6.79107C11.7459 6.64192 11.8991 6.50166 12.0606 6.37107C13.1354 5.43684 14.3499 4.67413 15.6606 4.11022C17.8368 3.19401 20.2172 2.86122 22.5636 3.14511C21.87 2.5897 21.1041 2.1298 20.2866 1.77788ZM44.5866 4.59277C44.1474 3.53073 43.3988 2.62311 42.4367 1.98626C41.4746 1.34941 40.3429 1.01236 39.1866 1.0183C38.4373 1.0186 37.695 1.16116 36.9996 1.4383H36.9276C36.6139 1.56196 36.3126 1.71454 36.0276 1.89405C35.6763 2.11765 35.3504 2.37831 35.0556 2.6715L30.6726 7.02341L30.0336 7.64894L29.9796 7.7115C29.6091 8.05049 29.1206 8.23343 28.6169 8.22176C28.1132 8.21009 27.6338 8.00472 27.2796 7.64894L23.9766 4.29788C23.0044 4.06335 22.0071 3.94633 21.0066 3.94937C19.4308 3.95907 17.8708 4.26219 16.4076 4.84299C18.116 4.87481 19.7454 5.56357 20.9526 6.76426L26.7666 12.537C27.0195 12.7909 27.321 12.992 27.6533 13.1286C27.9856 13.2651 28.342 13.3344 28.7016 13.3323C29.0627 13.3356 29.4209 13.2669 29.7548 13.1303C30.0887 12.9937 30.3916 12.792 30.6456 12.537L32.3106 10.8838L33.0306 10.1689L37.5306 5.70086L37.8006 5.43277C37.8691 5.36295 37.9445 5.30008 38.0256 5.24511C38.5595 4.77782 39.2008 4.44785 39.8932 4.28416C40.5855 4.12047 41.3078 4.12807 41.9965 4.30631C42.6852 4.48454 43.3193 4.82795 43.8431 5.30638C44.3669 5.78481 44.7644 6.38362 45.0006 7.05022C45.0006 6.95192 45.0006 6.85362 45.0006 6.75533C45.0005 6.01422 44.8569 5.28004 44.5776 4.59277H44.5866ZM40.8966 5.12894C40.7003 5.12863 40.5045 5.14658 40.3116 5.18256C40.4047 5.24641 40.492 5.31817 40.5726 5.39703C40.9245 5.75576 41.1213 6.23672 41.1213 6.73745C41.1213 7.23819 40.9245 7.71914 40.5726 8.07788L33.4266 15.2V15.2447C33.3006 15.3698 33.1656 15.4949 33.0396 15.6021C31.609 16.8694 29.9254 17.8228 28.0985 18.4003C26.2717 18.9777 24.3427 19.1661 22.4376 18.9532C23.8847 20.0187 25.5831 20.6975 27.3702 20.9243C29.1572 21.1512 30.973 20.9187 32.6436 20.2489L33.1836 20.0166C33.5819 19.8262 33.9695 19.6144 34.3446 19.3821C34.9978 18.9791 35.6019 18.5023 36.1446 17.9613L43.1016 11.0536L43.3266 10.8302C43.4061 10.7572 43.4813 10.6796 43.5516 10.5979C43.9525 10.1041 44.2045 9.50784 44.2785 8.87789C44.3524 8.24793 44.2453 7.61006 43.9694 7.03802C43.6936 6.46599 43.2604 5.98314 42.7198 5.64531C42.1792 5.30748 41.5534 5.12846 40.9146 5.12894H40.8966ZM28.6386 17.166C26.9075 17.1542 25.2512 16.4637 24.0306 15.2447L18.2346 9.49873C17.9803 9.23991 17.6766 9.03393 17.3413 8.89278C17.006 8.75164 16.6458 8.67815 16.2816 8.6766C15.9205 8.67334 15.5624 8.74205 15.2284 8.87866C14.8945 9.01527 14.5916 9.217 14.3376 9.47192L12.6006 11.1698L11.8806 11.8847L10.2156 13.5468L9.52261 14.2349L8.40661 15.3698L7.38061 16.3796L7.20061 16.5851C6.99803 16.7861 6.75303 16.94 6.48329 17.0356C6.21355 17.1312 5.92579 17.1662 5.64079 17.138C5.3558 17.1098 5.08066 17.0191 4.83524 16.8725C4.58982 16.7259 4.38023 16.527 4.22161 16.2902C4.17793 16.4989 4.15681 16.7116 4.15861 16.9247C4.15861 17.3667 4.24644 17.8043 4.41706 18.2126C4.58769 18.6208 4.83775 18.9916 5.15294 19.3037C5.46813 19.6159 5.84224 19.8632 6.25385 20.0315C6.66545 20.1998 7.10646 20.2859 7.55161 20.2847C7.67746 20.2935 7.80377 20.2935 7.92961 20.2847C8.2395 20.2464 8.54245 20.1652 8.82961 20.0434C9.19214 19.8918 9.52439 19.6769 9.81061 19.4089H9.85561V19.3643L9.91861 19.3106L11.7996 17.4341L14.2386 15.0213L14.9046 14.3511C15.2659 14.0017 15.7503 13.8062 16.2546 13.8062C16.7589 13.8062 17.2433 14.0017 17.6046 14.3511L21.0336 17.7558C23.5572 18.333 26.1983 18.1303 28.6026 17.1749L28.6386 17.166Z" fill="white"/>
</svg>
