<svg width="160" height="36" viewBox="0 0 160 36" fill="none" xmlns="http://www.w3.org/2000/svg">
<path d="M15.2634 10.9792C13.3306 10.1787 11.1589 10.1787 9.22606 10.9792C9.10129 11.0318 8.97656 11.0882 8.85179 11.1463C8.55055 11.2909 8.25881 11.4548 7.97848 11.637C7.50653 11.9433 7.0684 12.2993 6.67149 12.6989L1.27992 18.1168C0.460766 18.9395 0 20.0568 0 21.2206C0 23.6279 1.97111 25.6088 4.36647 25.6088C4.36701 25.6088 4.36751 25.6088 4.36805 25.6088C4.42087 25.6088 4.47368 25.6088 4.52649 25.6058C3.2388 25.131 2.37786 23.8919 2.37786 22.5134C2.37786 21.6126 2.74555 20.7501 3.39454 20.1286L7.90283 15.5992L8.38105 15.1166L8.54283 14.954L8.72664 14.7688C8.83892 14.6574 8.95523 14.551 9.07551 14.4496C10.9389 12.8153 13.3309 11.9156 15.8041 11.9186C16.2071 11.9185 16.6097 11.9419 17.01 11.9889C16.4735 11.5781 15.8865 11.2387 15.2634 10.9792ZM33.5348 13.1193C32.6328 10.8888 30.0654 9.79806 27.8451 10.7021L27.789 10.7255C27.5601 10.8221 27.34 10.9385 27.1311 11.0732C26.8664 11.2436 26.6209 11.4423 26.3988 11.6658L23.1002 14.9811L22.624 15.458C22.6095 15.4722 22.5949 15.4864 22.58 15.4998C22.0093 16.0277 21.1137 16.0092 20.5651 15.458L18.0347 12.915C16.1422 12.4588 14.1554 12.595 12.3421 13.3053C13.6272 13.3272 14.8544 13.8523 15.7608 14.768L20.1368 19.1653C20.9374 19.9679 22.2527 19.9679 23.0532 19.1653L28.4552 13.7366C28.5076 13.6839 28.5641 13.6353 28.6236 13.5911C29.2175 13.0799 29.9739 12.7987 30.7557 12.7987C32.1417 12.7987 33.3847 13.6823 33.8459 14.9958C33.8496 14.921 33.8513 14.8466 33.8513 14.7718C33.853 14.2054 33.7453 13.644 33.534 13.1189L33.5348 13.1193ZM30.7578 13.5318C30.6102 13.5317 30.4629 13.5446 30.3174 13.5703C30.3876 13.6192 30.4538 13.6745 30.5145 13.7353C30.7877 14.0096 30.9412 14.382 30.9412 14.7699C30.9412 15.1578 30.7877 15.5302 30.5145 15.8044L25.1466 21.2001L25.1121 21.2344C25.0173 21.3297 24.9196 21.4204 24.8189 21.5065C22.9434 23.1886 20.5148 24.1175 18.001 24.1143C17.6259 24.1144 17.2511 24.0941 16.8782 24.0537C19.0888 25.7045 22.0042 26.0803 24.5578 25.0433C24.6942 24.9876 24.8284 24.9285 24.9603 24.8661C25.7811 24.4779 26.5285 23.9491 27.1689 23.3035L32.407 18.042L32.5734 17.8748C32.632 17.8157 32.689 17.7553 32.7439 17.6934C33.1061 17.2395 33.3036 16.6746 33.3036 16.0928C33.3036 14.6888 32.1538 13.5335 30.7569 13.5335C30.7561 13.5335 30.7557 13.5335 30.7553 13.5335L30.7578 13.5318ZM21.5428 22.6959C20.2417 22.6843 18.996 22.1587 18.0767 21.2331L13.7215 16.8567C13.332 16.4602 12.8016 16.2346 12.2473 16.2299C11.6992 16.2276 11.1725 16.4463 10.7859 16.8367L9.50096 18.1289L8.96033 18.6722L7.70405 19.9351L7.18297 20.4588L6.32257 21.3255L5.55364 22.0987L5.39939 22.2541C5.1265 22.5285 4.75593 22.6828 4.36992 22.6828C3.98393 22.6828 3.61336 22.5285 3.34048 22.2541C3.27178 22.1855 3.21023 22.11 3.15667 22.0289C3.12623 22.1881 3.11092 22.3499 3.11092 22.512C3.11092 23.9161 4.26001 25.0719 5.65722 25.073C5.7528 25.073 5.84828 25.0677 5.9433 25.0571C6.4844 24.9957 6.99186 24.7612 7.3905 24.3885C7.40173 24.378 7.41296 24.3675 7.42377 24.3563L7.45703 24.3233L7.5011 24.279L8.92 22.8526L11.2259 20.5353C11.7925 19.9784 12.7129 19.9836 13.2732 20.547L15.8515 23.138C17.7488 23.5776 19.7353 23.4233 21.5428 22.6959Z" fill="white"/>
<path d="M46.6319 12.3083V17.8984L40.8931 12.2611H39.8394V23.7129H42.8385V18.1074L48.5597 23.7292H49.5997V12.3083H46.6319Z" fill="white"/>
<path d="M55.8722 23.7348V12.3303H52.9969V14.8716H53.002V21.1771H52.9969V23.7348H55.8722Z" fill="white"/>
<path d="M64.3903 12.1696H63.1426L58.0352 23.2975L57.8401 23.7209H60.8708L61.5361 22.2874H66.0109L66.6762 23.7209H69.7068L69.5131 23.2975L64.3903 12.1696ZM62.4773 19.7946L63.7583 16.7968L65.071 19.7946H62.4773Z" fill="white"/>
<path d="M81.2449 17.2193H75.8802V19.7444H78.2924C77.7735 20.836 77.0278 21.1457 75.8606 21.1457C74.1422 21.1457 73.0395 19.9074 73.0395 18.0175C73.0395 16.274 74.0285 14.8414 75.8606 14.8414C77.0114 14.8414 77.7576 15.2326 78.2273 16.2101H81.0812C80.5296 13.3753 78.1464 12.1859 75.8606 12.1696C72.9749 12.1696 70.0566 14.1247 70.0383 18.0205C70.0547 21.9142 72.9726 23.8529 75.8606 23.8529C77.9518 23.8529 80.1081 22.9406 80.9188 20.5618C81.3076 19.4519 81.3076 18.3598 81.2449 17.2193Z" fill="white"/>
<path d="M88.4665 12.1696H87.2187L82.1109 23.2975L81.9172 23.7209H84.9479L85.6131 22.2874H90.088L90.7532 23.7209H93.7844L93.5883 23.2975L88.4665 12.1696ZM86.5535 19.7946L87.8344 16.7968L89.1476 19.7946H86.5535Z" fill="white"/>
<path d="M101.59 12.3303V16.4676H98.0878V12.3303H95.1203V23.7348H98.0878V19.1565H101.59V23.7348H104.557V12.3303H101.59Z" fill="white"/>
<path d="M106.725 18.0378C106.725 25.9394 118.366 25.9394 118.366 18.0378C118.366 10.1521 106.725 10.1521 106.725 18.0378ZM109.708 18.0378C109.708 13.9318 115.399 13.9318 115.399 18.0378C115.399 22.176 109.708 22.176 109.708 18.0378Z" fill="white"/>
<path d="M124.512 16.9382C123.49 16.8241 122.647 16.6456 122.712 15.7814C122.809 14.429 125.857 14.2986 125.857 15.814H128.613C128.678 10.8934 119.859 10.8934 119.956 15.814C119.988 18.2901 121.61 19.1372 124.073 19.3165C125.207 19.3817 126.148 19.561 126.148 20.3613C126.148 21.6987 122.597 21.6811 122.597 20.2309H119.792C119.728 25.2493 128.969 25.1678 128.969 20.3776C128.97 17.5232 126.765 17.1805 124.512 16.9382Z" fill="white"/>
<path d="M129.98 12.3303V14.9368H132.767V23.7348H135.636V14.9368H138.408V12.3303H129.98Z" fill="white"/>
<path d="M143.054 21.1446V19.1406H146.912V16.5495H143.054V14.9364H147.254V12.3303H140.168V23.7348H147.399V21.1437L143.054 21.1446Z" fill="white"/>
<path d="M157.276 19.6944C160.146 17.7394 159.335 12.3466 154.876 12.3303H149.899V23.7348H152.802V20.3785H154.31L156.256 23.7348H159.757L159.498 23.3114L157.276 19.6944ZM154.876 17.7883H152.802V14.9368C153.483 14.9368 154.195 14.9205 154.876 14.9368C156.531 14.9531 156.449 17.7883 154.876 17.7883Z" fill="white"/>
</svg>
