<svg width="153" height="42" viewBox="0 0 153 42" fill="none" xmlns="http://www.w3.org/2000/svg">
<path fill-rule="evenodd" clip-rule="evenodd" d="M14.5957 5.57406C12.7474 4.80865 10.6707 4.80865 8.82242 5.57406C8.7031 5.62442 8.58384 5.67837 8.46452 5.73391C8.17646 5.87215 7.89748 6.02884 7.62942 6.20308C7.17812 6.49601 6.75916 6.83642 6.37961 7.21855L1.22392 12.3994C0.440608 13.1861 0 14.2545 0 15.3675C0 17.6694 1.88487 19.5636 4.17544 19.5636H4.17695H4.177C4.22749 19.5636 4.27797 19.5636 4.32846 19.5608C3.0971 19.1067 2.27383 17.9218 2.27383 16.6037C2.27383 15.7423 2.62544 14.9175 3.24602 14.3232L7.55708 9.99199L8.01438 9.53044L8.16908 9.37497L8.34485 9.19793C8.45222 9.09135 8.56344 8.9896 8.67846 8.89261C10.4603 7.32989 12.7477 6.46952 15.1126 6.47244C15.498 6.47228 15.8831 6.4947 16.2658 6.53957C15.7528 6.14677 15.1914 5.82228 14.5957 5.57406ZM32.0677 7.62058C31.2052 5.48766 28.75 4.44462 26.6269 5.30911L26.5732 5.33148C26.3544 5.42388 26.1439 5.53514 25.9441 5.66398C25.691 5.82691 25.4562 6.01689 25.2438 6.23066L22.0896 9.40095L21.6342 9.85693L21.6342 9.85695C21.6203 9.87052 21.6064 9.88409 21.5921 9.8969C21.0464 10.4017 20.19 10.384 19.6654 9.85693L17.2457 7.42516C15.436 6.98896 13.5361 7.11924 11.8021 7.79842C13.031 7.81936 14.2045 8.32146 15.0713 9.19713L19.2559 13.4021C20.0214 14.1695 21.2791 14.1695 22.0447 13.4021L27.2102 8.21084C27.2604 8.16049 27.3144 8.11401 27.3713 8.07177C27.9392 7.58286 28.6625 7.31398 29.4101 7.31398C30.7355 7.31398 31.9241 8.15897 32.3651 9.41493C32.3687 9.3434 32.3703 9.27227 32.3703 9.20073C32.3719 8.65915 32.2689 8.12232 32.0669 7.62018L32.0677 7.62058ZM29.4121 8.01502C29.271 8.0149 29.1302 8.02721 28.991 8.05179C29.0582 8.09862 29.1214 8.15145 29.1795 8.20964C29.4407 8.47188 29.5875 8.82799 29.5875 9.19893C29.5875 9.56987 29.4407 9.92599 29.1795 10.1882L24.0465 15.3479L24.0135 15.3806C23.9228 15.4718 23.8293 15.5585 23.7331 15.6408C21.9397 17.2493 19.6172 18.1376 17.2135 18.1345C16.8548 18.1346 16.4964 18.1153 16.1398 18.0766C18.2537 19.6552 21.0415 20.0145 23.4834 19.0229C23.6138 18.9697 23.7422 18.9131 23.8683 18.8535C24.6532 18.4823 25.3678 17.9766 25.9803 17.3592L30.9892 12.3279L31.1483 12.168C31.2044 12.1115 31.2588 12.0537 31.3113 11.9946C31.6577 11.5605 31.8466 11.0203 31.8466 10.464C31.8466 9.1214 30.747 8.01662 29.4113 8.01662H29.4097L29.4121 8.01502ZM20.6003 16.7782C19.3562 16.7671 18.1649 16.2644 17.2858 15.3794L13.1211 11.1945C12.7487 10.8153 12.2416 10.5996 11.7114 10.5951C11.1873 10.5929 10.6837 10.802 10.314 11.1753L9.08529 12.411L8.56831 12.9305L7.36699 14.1382L6.86872 14.6389L6.04596 15.4678L5.31067 16.2071L5.16317 16.3558C4.90222 16.6181 4.54786 16.7657 4.17874 16.7657C3.80963 16.7657 3.45528 16.6181 3.19433 16.3558C3.12864 16.2901 3.06978 16.2179 3.01856 16.1404C2.98945 16.2926 2.97482 16.4473 2.97482 16.6023C2.97482 17.945 4.07364 19.0502 5.40971 19.0513C5.50111 19.0513 5.59242 19.0462 5.68328 19.0361C6.20071 18.9774 6.68597 18.7532 7.06717 18.3967L7.06834 18.3956L7.06838 18.3956C7.07871 18.3859 7.08903 18.3763 7.09898 18.3659L7.13078 18.3343L7.17293 18.292L8.52975 16.928L10.7348 14.7121C11.2766 14.1795 12.1567 14.1845 12.6925 14.7233L15.158 17.201C16.9723 17.6213 18.8719 17.4738 20.6003 16.7782ZM100.6 36.9823C99.573 36.9823 98.677 36.7723 97.9117 36.3523C97.1557 35.9323 96.5724 35.3396 96.1617 34.5743C95.7604 33.809 95.5597 32.9223 95.5597 31.9143C95.5597 30.9063 95.7604 30.0243 96.1617 29.2683C96.5724 28.503 97.1557 27.9103 97.9117 27.4903C98.677 27.0703 99.573 26.8603 100.6 26.8603C101.244 26.8603 101.864 26.9583 102.462 27.1543C103.068 27.3503 103.563 27.6116 103.946 27.9383L103.148 29.7583C102.336 29.189 101.505 28.9043 100.656 28.9043C99.853 28.9043 99.237 29.1563 98.8077 29.6603C98.3877 30.1643 98.1777 30.9156 98.1777 31.9143C98.1777 32.913 98.3877 33.669 98.8077 34.1823C99.237 34.6863 99.853 34.9383 100.656 34.9383C101.505 34.9383 102.336 34.6536 103.148 34.0843L103.946 35.9043C103.563 36.231 103.068 36.4923 102.462 36.6883C101.864 36.8843 101.244 36.9823 100.6 36.9823ZM109.771 36.9823C108.763 36.9823 107.886 36.777 107.139 36.3663C106.402 35.9463 105.833 35.3583 105.431 34.6023C105.03 33.837 104.829 32.941 104.829 31.9143C104.829 30.8876 105.03 29.9963 105.431 29.2403C105.833 28.475 106.402 27.887 107.139 27.4763C107.886 27.0656 108.763 26.8603 109.771 26.8603C110.779 26.8603 111.652 27.0656 112.389 27.4763C113.136 27.887 113.705 28.475 114.097 29.2403C114.499 29.9963 114.699 30.8876 114.699 31.9143C114.699 32.941 114.499 33.837 114.097 34.6023C113.696 35.3583 113.122 35.9463 112.375 36.3663C111.638 36.777 110.77 36.9823 109.771 36.9823ZM109.771 35.0083C110.518 35.0083 111.101 34.747 111.521 34.2243C111.941 33.6923 112.151 32.9223 112.151 31.9143C112.151 30.9063 111.937 30.141 111.507 29.6183C111.087 29.0956 110.509 28.8343 109.771 28.8343C109.025 28.8343 108.441 29.0956 108.021 29.6183C107.601 30.1316 107.391 30.897 107.391 31.9143C107.391 32.9316 107.601 33.7016 108.021 34.2243C108.441 34.747 109.025 35.0083 109.771 35.0083ZM117.274 35.8903C118.02 36.6183 119.108 36.9823 120.536 36.9823C121.954 36.9823 123.037 36.6183 123.784 35.8903C124.54 35.153 124.918 34.089 124.918 32.6983V26.9863H122.384V32.7963C122.384 33.5056 122.225 34.0516 121.908 34.4343C121.59 34.817 121.133 35.0083 120.536 35.0083C119.938 35.0083 119.481 34.817 119.164 34.4343C118.846 34.0516 118.688 33.5056 118.688 32.7963V26.9863H116.168V32.6983C116.168 34.0983 116.536 35.1623 117.274 35.8903ZM135.531 36.8563H132.703L130.995 33.7063C130.781 33.3423 130.44 33.1603 129.973 33.1603H129.189V36.8563H126.655V26.9863H131.359C132.554 26.9863 133.45 27.2476 134.047 27.7703C134.654 28.2836 134.957 29.0303 134.957 30.0103C134.957 30.757 134.752 31.3916 134.341 31.9143C133.931 32.4276 133.352 32.773 132.605 32.9503C133.175 33.0716 133.627 33.4403 133.963 34.0563L135.531 36.8563ZM130.953 31.2283C131.523 31.2283 131.929 31.1396 132.171 30.9623C132.423 30.785 132.549 30.4956 132.549 30.0943C132.549 29.6836 132.423 29.3896 132.171 29.2123C131.929 29.0256 131.523 28.9323 130.953 28.9323H129.161V31.2283H130.953ZM137.858 36.6883C138.577 36.8843 139.305 36.9823 140.042 36.9823C141.395 36.9823 142.445 36.7116 143.192 36.1703C143.939 35.6196 144.312 34.859 144.312 33.8883C144.312 33.3843 144.205 32.9503 143.99 32.5863C143.775 32.2223 143.411 31.905 142.898 31.6343C142.385 31.3543 141.68 31.1163 140.784 30.9203C140.233 30.8083 139.818 30.701 139.538 30.5983C139.258 30.4863 139.067 30.3743 138.964 30.2623C138.861 30.1503 138.81 30.0056 138.81 29.8283C138.81 29.5296 138.955 29.2916 139.244 29.1143C139.533 28.9276 139.916 28.8343 140.392 28.8343C141.381 28.8343 142.324 29.1423 143.22 29.7583L144.004 27.9383C143.631 27.621 143.108 27.3643 142.436 27.1683C141.773 26.963 141.087 26.8603 140.378 26.8603C139.575 26.8603 138.861 27.0003 138.236 27.2803C137.62 27.551 137.139 27.929 136.794 28.4143C136.458 28.8903 136.29 29.4316 136.29 30.0383C136.29 30.5703 136.393 31.0183 136.598 31.3823C136.813 31.7463 137.181 32.0636 137.704 32.3343C138.227 32.605 138.95 32.8383 139.874 33.0343C140.621 33.193 141.125 33.3516 141.386 33.5103C141.657 33.669 141.792 33.8743 141.792 34.1263C141.792 34.4063 141.643 34.6256 141.344 34.7843C141.055 34.9336 140.63 35.0083 140.07 35.0083C139.519 35.0083 138.973 34.929 138.432 34.7703C137.891 34.6116 137.382 34.383 136.906 34.0843L136.108 35.9043C136.556 36.231 137.139 36.4923 137.858 36.6883ZM145.769 26.9863H152.783V28.9743H148.275V30.8503H152.503V32.8243H148.275V34.8683H152.783V36.8563H145.769V26.9863ZM44.5917 12.1906V6.84517H47.4296V17.7663H46.4351L40.9642 12.3905V17.7508H38.0963V6.80001H39.104L44.5917 12.1906ZM53.4277 17.7718V6.86626H50.6782V9.29643H50.6831V15.3261H50.6782V17.7718H53.4277ZM60.3801 6.71246H61.5732L66.4719 17.3535L66.6571 17.7583H63.759L63.1229 16.3876H58.8438L58.2076 17.7583H55.3096L55.4962 17.3535L60.3801 6.71246ZM60.9688 11.1372L59.7439 14.0038H62.2241L60.9688 11.1372ZM77.6904 11.5412H72.5604V13.9558H74.867C74.3709 14.9997 73.6578 15.2958 72.5416 15.2958C70.8984 15.2958 69.844 14.1117 69.844 12.3045C69.844 10.6373 70.7897 9.26732 72.5416 9.26732C73.6421 9.26732 74.3557 9.64139 74.8048 10.5761H77.5338C77.0063 7.86541 74.7274 6.72805 72.5416 6.71246C69.7822 6.71246 66.9916 8.58195 66.9741 12.3073C66.9898 16.0307 69.78 17.8846 72.5416 17.8846C74.5413 17.8846 76.6033 17.0122 77.3786 14.7375C77.7503 13.6761 77.7503 12.6318 77.6904 11.5412ZM83.4029 6.71246H84.5961L89.4939 17.3535L89.6813 17.7583H86.7828L86.1467 16.3876H81.8676L81.2314 17.7583H78.3334L78.5186 17.3535L83.4029 6.71246ZM83.9917 11.1372L82.7668 14.0038H85.2475L83.9917 11.1372ZM97.1451 6.86626V10.8226H93.7965V6.86626H90.9589V17.7718H93.7965V13.3939H97.1451V17.7718H99.9823V6.86626H97.1451ZM102.056 12.3236C102.056 19.8795 113.187 19.8795 113.187 12.3236C113.187 4.78294 102.056 4.78294 102.056 12.3236ZM104.908 12.3236C104.908 8.39722 110.35 8.39722 110.35 12.3236C110.35 16.2808 104.908 16.2808 104.908 12.3236ZM119.064 11.2721C118.087 11.163 117.281 10.9924 117.343 10.1659C117.436 8.87268 120.351 8.748 120.351 10.1971H122.986C123.048 5.49179 114.615 5.49179 114.708 10.1971C114.739 12.5649 116.289 13.3749 118.645 13.5464C119.729 13.6087 120.629 13.7802 120.629 14.5455C120.629 15.8243 117.234 15.8075 117.234 14.4208H114.551C114.49 19.2196 123.326 19.1417 123.326 14.561C123.327 11.8316 121.219 11.5038 119.064 11.2721ZM124.294 9.35877V6.86626H132.353V9.35877H129.702V17.7718H126.958V9.35877H124.294ZM136.795 15.2949V13.3787H140.485V10.9009H136.795V9.35837H140.811V6.86626H134.036V17.7718H140.95V15.2941L136.795 15.2949ZM148.101 6.86626C152.364 6.88184 153.14 12.0387 150.396 13.9082L152.52 17.367L152.768 17.7718H149.42L147.559 14.5624H146.117V17.7718H143.341V6.86626H148.101ZM146.117 12.0855H148.101C149.605 12.0855 149.682 9.37435 148.101 9.35877C147.665 9.34835 147.217 9.35186 146.772 9.35533C146.552 9.35705 146.333 9.35877 146.117 9.35877V12.0855Z" fill="white"/>
</svg>
