<svg width="131" height="130" viewBox="0 0 131 130" fill="none" xmlns="http://www.w3.org/2000/svg">
<path d="M0.5 65C0.5 29.1015 29.6015 0 65.5 0C101.399 0 130.5 29.1015 130.5 65C130.5 100.899 101.399 130 65.5 130C29.6015 130 0.5 100.899 0.5 65Z" fill="#007AFF"/>
<path d="M65.6443 27.0833C70.6915 27.0833 75.532 29.0858 79.1009 32.6502C82.6698 36.2146 84.6747 41.0489 84.6747 46.0898C84.6747 51.1306 82.6698 55.9649 79.1009 59.5293C75.532 63.0937 70.6915 65.0962 65.6443 65.0962C60.5972 65.0962 55.7567 63.0937 52.1878 59.5293C48.6189 55.9649 46.6139 51.1306 46.6139 46.0898C46.6139 41.0489 48.6189 36.2146 52.1878 32.6502C55.7567 29.0858 60.5972 27.0833 65.6443 27.0833ZM65.6443 102.821C65.6443 102.821 103.417 102.821 103.417 93.3178C103.417 83.8146 84.9631 69.7038 65.6443 69.7038C46.3256 69.7038 27.5835 82.0867 27.5835 93.3178C27.5835 104.549 65.6443 102.821 65.6443 102.821Z" fill="white"/>
</svg>
