<svg width="40" height="40" viewBox="0 0 40 40" fill="none" xmlns="http://www.w3.org/2000/svg">
<rect width="40" height="40" rx="20" fill="#BFC5CC"/>
<path d="M24 10H16C15.2044 10 14.4413 10.3161 13.8787 10.8787C13.3161 11.4413 13 12.2044 13 13V29C12.9993 29.1762 13.0452 29.3495 13.133 29.5023C13.2208 29.655 13.3474 29.7819 13.5 29.87C13.652 29.9578 13.8245 30.004 14 30.004C14.1755 30.004 14.348 29.9578 14.5 29.87L20 26.69L25.5 29.87C25.6524 29.9564 25.8248 30.0012 26 30C26.1752 30.0012 26.3476 29.9564 26.5 29.87C26.6526 29.7819 26.7792 29.655 26.867 29.5023C26.9548 29.3495 27.0007 29.1762 27 29V13C27 12.2044 26.6839 11.4413 26.1213 10.8787C25.5587 10.3161 24.7957 10 24 10ZM25 27.27L20.5 24.67C20.348 24.5822 20.1755 24.536 20 24.536C19.8245 24.536 19.652 24.5822 19.5 24.67L15 27.27V13C15 12.7348 15.1054 12.4804 15.2929 12.2929C15.4804 12.1054 15.7348 12 16 12H24C24.2652 12 24.5196 12.1054 24.7071 12.2929C24.8947 12.4804 25 12.7348 25 13V27.27Z" fill="white"/>
</svg>
