<svg width="80" height="80" viewBox="0 0 80 80" fill="none" xmlns="http://www.w3.org/2000/svg">
<circle cx="40" cy="40" r="40" fill="#F5FAFF"/>
<path d="M58.5078 37.6075C58.4664 37.4519 58.4015 37.3035 58.3153 37.1675C58.2208 37.0383 58.1045 36.9266 57.9716 36.8375C57.8327 36.7667 57.6846 36.7158 57.5316 36.6862H57.4353C57.2802 36.6654 57.1229 36.6654 56.9678 36.6862C56.8673 36.7107 56.7703 36.7476 56.6791 36.7962L55.8128 37.2225V27.845C55.8128 27.4803 55.6679 27.1306 55.4101 26.8727C55.1522 26.6148 54.8025 26.47 54.4378 26.47H49.2953C48.9306 26.47 48.5809 26.6148 48.323 26.8727C48.0652 27.1306 47.9203 27.4803 47.9203 27.845C47.9203 28.2096 48.0652 28.5594 48.323 28.8172C48.5809 29.0751 48.9306 29.22 49.2953 29.22H52.9253V39.1887L42.7503 46.49H37.3878L27.0753 39.1887V29.22H29.2753C29.64 29.22 29.9897 29.0751 30.2476 28.8172C30.5054 28.5594 30.6503 28.2096 30.6503 27.845C30.6503 27.4803 30.5054 27.1306 30.2476 26.8727C29.9897 26.6148 29.64 26.47 29.2753 26.47H25.7003C25.3356 26.47 24.9859 26.6148 24.728 26.8727C24.4702 27.1306 24.3253 27.4803 24.3253 27.845V37.0575L23.5003 36.6312C23.409 36.5826 23.312 36.5457 23.2116 36.5212C23.061 36.5007 22.9084 36.5007 22.7578 36.5212H22.6341C22.4838 36.5521 22.3397 36.6078 22.2078 36.6862H22.1253C21.9924 36.7754 21.8761 36.8871 21.7816 37.0162C21.6954 37.1522 21.6304 37.3006 21.5891 37.4562C21.5823 37.5386 21.5823 37.6214 21.5891 37.7037V56.5C21.5869 56.8684 21.6588 57.2336 21.8005 57.5737C21.9423 57.9139 22.1509 58.222 22.4141 58.48C22.672 58.7431 22.9802 58.9518 23.3203 59.0935C23.6604 59.2352 24.0256 59.3071 24.3941 59.305H55.7303C56.0988 59.3071 56.4639 59.2352 56.8041 59.0935C57.1442 58.9518 57.4524 58.7431 57.7103 58.48C57.9735 58.222 58.1821 57.9139 58.3238 57.5737C58.4655 57.2336 58.5375 56.8684 58.5353 56.5V37.855C58.533 37.7719 58.5238 37.6891 58.5078 37.6075ZM24.2153 40.5225L34.5003 47.865L24.2153 55.125V40.5225ZM37.3191 49.24H42.7503L52.9528 56.5H27.1028L37.3191 49.24ZM45.5003 47.865L55.7716 40.5362V55.0975L45.5003 47.865Z" fill="#007AFF"/>
<path d="M34.2803 39.23H45.7203C46.0849 39.23 46.4347 39.0851 46.6925 38.8273C46.9504 38.5694 47.0953 38.2197 47.0953 37.855C47.0953 37.4903 46.9504 37.1406 46.6925 36.8827C46.4347 36.6248 46.0849 36.48 45.7203 36.48H34.2803C33.9156 36.48 33.5659 36.6248 33.308 36.8827C33.0501 37.1406 32.9053 37.4903 32.9053 37.855C32.9053 38.2197 33.0501 38.5694 33.308 38.8273C33.5659 39.0851 33.9156 39.23 34.2803 39.23Z" fill="#007AFF"/>
<path d="M37.5938 31.75C37.7216 31.8789 37.8737 31.9812 38.0412 32.051C38.2088 32.1208 38.3885 32.1567 38.57 32.1567C38.7516 32.1567 38.9313 32.1208 39.0988 32.051C39.2664 31.9812 39.4185 31.8789 39.5463 31.75L48.1263 23.17C48.2545 23.0418 48.3562 22.8896 48.4256 22.7221C48.495 22.5546 48.5307 22.375 48.5307 22.1937C48.5307 22.0124 48.495 21.8329 48.4256 21.6654C48.3562 21.4979 48.2545 21.3457 48.1263 21.2175C47.9981 21.0893 47.8459 20.9876 47.6784 20.9182C47.5109 20.8488 47.3313 20.8131 47.15 20.8131C46.9687 20.8131 46.7892 20.8488 46.6217 20.9182C46.4542 20.9876 46.302 21.0893 46.1738 21.2175L38.625 28.7662L35.2563 25.4387C34.9974 25.1798 34.6462 25.0344 34.28 25.0344C33.9139 25.0344 33.5627 25.1798 33.3038 25.4387C33.0449 25.6977 32.8994 26.0488 32.8994 26.415C32.8994 26.7812 33.0449 27.1323 33.3038 27.3912L37.5938 31.75Z" fill="#007AFF"/>
</svg>
