<svg width="20" height="16" viewBox="0 0 20 16" fill="none" xmlns="http://www.w3.org/2000/svg">
<path d="M19.9109 7.62488C19.7693 7.33332 16.2789 0.502441 10.0061 0.502441C3.73337 0.502441 0.242932 7.33332 0.0929857 7.62488C0.0343947 7.74115 0.00390625 7.86955 0.00390625 7.99976C0.00390625 8.12996 0.0343947 8.25833 0.0929857 8.37461C0.242932 8.66617 3.73337 15.4971 10.0061 15.4971C16.2789 15.4971 19.7693 8.66617 19.9109 8.37461C19.9695 8.25833 20 8.12996 20 7.99976C20 7.86955 19.9695 7.74115 19.9109 7.62488ZM10.0061 13.831C5.52439 13.831 2.57546 9.34094 1.79241 7.99976C2.57546 6.65857 5.51606 2.16851 10.0061 2.16851C14.4962 2.16851 17.4368 6.65857 18.2198 7.99976C17.4368 9.34094 14.4962 13.831 10.0061 13.831Z" fill="#29384E"/>
<path d="M10.006 4.66748C9.34694 4.66748 8.7027 4.86289 8.15473 5.22903C7.60676 5.59517 7.1797 6.1156 6.9275 6.72447C6.6753 7.33334 6.60928 8.00332 6.73785 8.64969C6.86642 9.29606 7.18378 9.88979 7.64979 10.3558C8.1158 10.8218 8.70951 11.1392 9.35588 11.2677C10.0022 11.3963 10.6722 11.3303 11.2811 11.0781C11.89 10.8259 12.4104 10.3988 12.7765 9.85084C13.1427 9.30287 13.3381 8.65866 13.3381 7.99962C13.3381 7.11588 12.9871 6.26834 12.3622 5.64344C11.7373 5.01854 10.8897 4.66748 10.006 4.66748ZM10.006 9.66569C9.67646 9.66569 9.35434 9.56797 9.08035 9.3849C8.80637 9.20183 8.59281 8.94162 8.46671 8.63718C8.34061 8.33275 8.30765 7.99776 8.37194 7.67457C8.43622 7.35139 8.59485 7.05453 8.82786 6.82153C9.06086 6.58853 9.35774 6.42984 9.68093 6.36556C10.0041 6.30127 10.3391 6.33426 10.6436 6.46036C10.948 6.58646 11.2082 6.80001 11.3912 7.074C11.5743 7.34798 11.672 7.6701 11.672 7.99962C11.672 8.44149 11.4965 8.86526 11.184 9.17771C10.8716 9.49016 10.4478 9.66569 10.006 9.66569Z" fill="#29384E"/>
</svg>
