<svg width="48" height="48" viewBox="0 0 48 48" fill="none" xmlns="http://www.w3.org/2000/svg">
<circle cx="24" cy="24" r="24" fill="white"/>
<path d="M18.1974 32.1532V24.1188L15.6479 21.8392L13.3618 20.5742V30.7353C13.3618 31.5199 14.0122 32.1532 14.8125 32.1532H18.1974Z" fill="#4285F4"/>
<path d="M29.8027 32.1531H33.1876C33.9904 32.1531 34.6383 31.5174 34.6383 30.7352V20.5742L32.0489 22.0231L29.8027 24.1187V32.1531Z" fill="#34A853"/>
<path d="M18.1975 24.118L17.8506 20.9787L18.1975 17.9741L24.0001 22.2276L29.8028 17.9741L30.1909 20.8165L29.8028 24.118L24.0001 28.3715L18.1975 24.118Z" fill="#EA4335"/>
<path d="M29.8027 17.9746V24.1185L34.6383 20.5739V18.6834C34.6383 16.9301 32.5904 15.9306 31.1568 16.9821L29.8027 17.9746Z" fill="#FBBC04"/>
<path d="M13.3618 20.5739L15.5858 22.2042L18.1974 24.1185V17.9746L16.8433 16.9821C15.4072 15.9305 13.3618 16.9301 13.3618 18.6834V20.5739V20.5739Z" fill="#C5221F"/>
</svg>
