<svg width="80" height="80" viewBox="0 0 80 80" fill="none" xmlns="http://www.w3.org/2000/svg">
<circle cx="40" cy="40" r="40" fill="#F5FAFF"/>
<path d="M52.3751 34.3075H48.7726V29.5225C48.7726 27.1959 47.8484 24.9646 46.2032 23.3194C44.558 21.6742 42.3267 20.75 40.0001 20.75C37.6735 20.75 35.4422 21.6742 33.797 23.3194C32.1519 24.9646 31.2276 27.1959 31.2276 29.5225V34.3075H27.6251C26.9346 34.3111 26.2737 34.588 25.7867 35.0775C25.2997 35.5671 25.0264 36.2295 25.0264 36.92V56.6375C25.0264 57.328 25.2997 57.9904 25.7867 58.48C26.2737 58.9695 26.9346 59.2464 27.6251 59.25H52.3751C53.0656 59.2464 53.7266 58.9695 54.2136 58.48C54.7005 57.9904 54.9739 57.328 54.9739 56.6375V36.92C54.9739 36.2295 54.7005 35.5671 54.2136 35.0775C53.7266 34.588 53.0656 34.3111 52.3751 34.3075ZM33.9776 29.5225C33.9776 27.9252 34.6121 26.3934 35.7416 25.2639C36.871 24.1345 38.4029 23.5 40.0001 23.5C41.5974 23.5 43.1292 24.1345 44.2587 25.2639C45.3881 26.3934 46.0226 27.9252 46.0226 29.5225V34.3075H33.9776V29.5225ZM52.1826 56.5H27.8176V37.0575H52.1826V56.5Z" fill="#007AFF"/>
<path d="M44.7989 47.9066C44.4663 47.6368 44.1069 47.4018 43.7264 47.2054C44.4602 46.3457 44.8689 45.2556 44.8814 44.1254C44.8814 42.8308 44.3671 41.5892 43.4517 40.6738C42.5363 39.7584 41.2947 39.2441 40.0001 39.2441C38.7055 39.2441 37.464 39.7584 36.5486 40.6738C35.6331 41.5892 35.1189 42.8308 35.1189 44.1254C35.1216 45.2698 35.531 46.3761 36.2739 47.2466C35.8933 47.4431 35.5339 47.6781 35.2014 47.9479C33.8234 49.0293 32.8538 50.5468 32.4514 52.2516C32.4107 52.4322 32.4061 52.619 32.4376 52.8014C32.4692 52.9838 32.5364 53.1581 32.6353 53.3145C32.7343 53.4709 32.8631 53.6063 33.0144 53.713C33.1656 53.8196 33.3364 53.8954 33.517 53.936C33.6976 53.9766 33.8844 53.9813 34.0667 53.9497C34.2491 53.9182 34.4235 53.851 34.5799 53.752C34.7363 53.6531 34.8717 53.5243 34.9783 53.373C35.0849 53.2218 35.1607 53.051 35.2014 52.8704C35.4555 51.7825 36.0711 50.813 36.9476 50.1204C37.8322 49.4447 38.9145 49.0786 40.0276 49.0786C41.1408 49.0786 42.223 49.4447 43.1076 50.1204C43.9841 50.813 44.5997 51.7825 44.8539 52.8704C44.9265 53.178 45.1028 53.4512 45.3532 53.6441C45.6037 53.8369 45.9129 53.9376 46.2289 53.9291H46.5451C46.7212 53.8886 46.8876 53.8138 47.0348 53.7089C47.1819 53.604 47.307 53.4712 47.4028 53.3179C47.4985 53.1647 47.5632 52.994 47.593 52.8158C47.6228 52.6376 47.6171 52.4552 47.5764 52.2791C47.1812 50.5455 46.2002 49.0012 44.7989 47.9066ZM40.0001 41.9529C40.4238 41.9502 40.8387 42.073 41.1926 42.3059C41.5465 42.5387 41.8236 42.8712 41.9888 43.2613C42.1541 43.6513 42.2001 44.0816 42.1211 44.4979C42.0421 44.9141 41.8416 45.2976 41.5449 45.6C41.2482 45.9024 40.8686 46.1102 40.454 46.1972C40.0394 46.2841 39.6083 46.2464 39.2151 46.0886C38.8219 45.9309 38.4842 45.6603 38.2446 45.3109C38.0051 44.9615 37.8743 44.549 37.8689 44.1254C37.8634 43.8421 37.9145 43.5605 38.0191 43.2971C38.1238 43.0338 38.2799 42.7939 38.4783 42.5916C38.6768 42.3893 38.9136 42.2287 39.1749 42.119C39.4362 42.0093 39.7167 41.9528 40.0001 41.9529Z" fill="#007AFF"/>
</svg>
