<svg width="24" height="20" viewBox="0 0 24 20" fill="none" xmlns="http://www.w3.org/2000/svg">
<path d="M22.6998 15.5001L14.5998 1.50011C13.7998 0.100109 11.8998 -0.399891 10.4998 0.400109C9.99977 0.700109 9.59977 1.10011 9.39977 1.50011L1.29977 15.5001C0.499767 16.9001 0.999767 18.8001 2.39977 19.6001C2.89977 19.9001 3.39977 20.0001 3.89977 20.0001H19.9998C21.6998 20.0001 22.9998 18.6001 22.9998 17.0001C23.0998 16.4001 22.8998 15.9001 22.6998 15.5001ZM11.9998 16.0001C11.3998 16.0001 10.9998 15.6001 10.9998 15.0001C10.9998 14.4001 11.3998 14.0001 11.9998 14.0001C12.5998 14.0001 12.9998 14.4001 12.9998 15.0001C12.9998 15.6001 12.5998 16.0001 11.9998 16.0001ZM12.9998 11.0001C12.9998 11.6001 12.5998 12.0001 11.9998 12.0001C11.3998 12.0001 10.9998 11.6001 10.9998 11.0001V7.00011C10.9998 6.40011 11.3998 6.00011 11.9998 6.00011C12.5998 6.00011 12.9998 6.40011 12.9998 7.00011V11.0001Z" fill="#29384E"/>
</svg>
