<svg width="32" height="32" viewBox="0 0 32 32" fill="none" xmlns="http://www.w3.org/2000/svg">
<path d="M0 16C0 7.16344 7.16344 0 16 0V0C24.8366 0 32 7.16344 32 16V16C32 24.8366 24.8366 32 16 32V32C7.16344 32 0 24.8366 0 16V16Z" fill="#007AFF"/>
<path d="M16.0304 8C17.0953 8 18.1166 8.4225 18.8696 9.17455C19.6226 9.92659 20.0456 10.9466 20.0456 12.0101C20.0456 13.0737 19.6226 14.0937 18.8696 14.8457C18.1166 15.5978 17.0953 16.0203 16.0304 16.0203C14.9655 16.0203 13.9442 15.5978 13.1912 14.8457C12.4382 14.0937 12.0152 13.0737 12.0152 12.0101C12.0152 10.9466 12.4382 9.92659 13.1912 9.17455C13.9442 8.4225 14.9655 8 16.0304 8V8ZM16.0304 23.9798C16.0304 23.9798 24 23.9798 24 21.9747C24 19.9697 20.1065 16.9924 16.0304 16.9924C11.9544 16.9924 8 19.6051 8 21.9747C8 24.3444 16.0304 23.9798 16.0304 23.9798Z" fill="white"/>
</svg>
