<svg width="18" height="18" viewBox="0 0 18 18" fill="none" xmlns="http://www.w3.org/2000/svg">
<path d="M15.75 4.5H12.75V3.75C12.75 3.15326 12.5129 2.58097 12.091 2.15901C11.669 1.73705 11.0967 1.5 10.5 1.5H7.5C6.90326 1.5 6.33097 1.73705 5.90901 2.15901C5.48705 2.58097 5.25 3.15326 5.25 3.75V4.5H2.25C2.05109 4.5 1.86032 4.57902 1.71967 4.71967C1.57902 4.86032 1.5 5.05109 1.5 5.25V8.25C1.50169 8.56454 1.56931 8.87522 1.69849 9.16201C1.82767 9.4488 2.01555 9.70531 2.25 9.915V14.25C2.25 14.8467 2.48705 15.419 2.90901 15.841C3.33097 16.2629 3.90326 16.5 4.5 16.5H13.5C14.0967 16.5 14.669 16.2629 15.091 15.841C15.5129 15.419 15.75 14.8467 15.75 14.25V9.915C15.9844 9.70531 16.1723 9.4488 16.3015 9.16201C16.4307 8.87522 16.4983 8.56454 16.5 8.25V5.25C16.5 5.05109 16.421 4.86032 16.2803 4.71967C16.1397 4.57902 15.9489 4.5 15.75 4.5ZM6.75 3.75C6.75 3.55109 6.82902 3.36032 6.96967 3.21967C7.11032 3.07902 7.30109 3 7.5 3H10.5C10.6989 3 10.8897 3.07902 11.0303 3.21967C11.171 3.36032 11.25 3.55109 11.25 3.75V4.5H6.75V3.75ZM14.25 14.25C14.25 14.4489 14.171 14.6397 14.0303 14.7803C13.8897 14.921 13.6989 15 13.5 15H4.5C4.30109 15 4.11032 14.921 3.96967 14.7803C3.82902 14.6397 3.75 14.4489 3.75 14.25V10.5H5.25V11.25C5.25 11.4489 5.32902 11.6397 5.46967 11.7803C5.61032 11.921 5.80109 12 6 12C6.19891 12 6.38968 11.921 6.53033 11.7803C6.67098 11.6397 6.75 11.4489 6.75 11.25V10.5H11.25V11.25C11.25 11.4489 11.329 11.6397 11.4697 11.7803C11.6103 11.921 11.8011 12 12 12C12.1989 12 12.3897 11.921 12.5303 11.7803C12.671 11.6397 12.75 11.4489 12.75 11.25V10.5H14.25V14.25ZM15 8.25C15 8.44891 14.921 8.63968 14.7803 8.78033C14.6397 8.92098 14.4489 9 14.25 9H12.75V8.25C12.75 8.05109 12.671 7.86032 12.5303 7.71967C12.3897 7.57902 12.1989 7.5 12 7.5C11.8011 7.5 11.6103 7.57902 11.4697 7.71967C11.329 7.86032 11.25 8.05109 11.25 8.25V9H6.75V8.25C6.75 8.05109 6.67098 7.86032 6.53033 7.71967C6.38968 7.57902 6.19891 7.5 6 7.5C5.80109 7.5 5.61032 7.57902 5.46967 7.71967C5.32902 7.86032 5.25 8.05109 5.25 8.25V9H3.75C3.55109 9 3.36032 8.92098 3.21967 8.78033C3.07902 8.63968 3 8.44891 3 8.25V6H15V8.25Z" fill="#29384E"/>
</svg>
