<svg width="18" height="18" viewBox="0 0 18 18" fill="none" xmlns="http://www.w3.org/2000/svg">
<path d="M14.25 1.5H3.75C3.15326 1.5 2.58097 1.73705 2.15901 2.15901C1.73705 2.58097 1.5 3.15326 1.5 3.75V11.25C1.5 11.8467 1.73705 12.419 2.15901 12.841C2.58097 13.2629 3.15326 13.5 3.75 13.5H5.73L5.295 14.25C5.16335 14.478 5.09404 14.7367 5.09404 15C5.09404 15.2633 5.16335 15.522 5.295 15.75C5.42779 15.98 5.61926 16.1707 5.84986 16.3024C6.08046 16.4342 6.34192 16.5024 6.6075 16.5H11.4525C11.7155 16.4997 11.9739 16.4303 12.2016 16.2987C12.4294 16.167 12.6185 15.9778 12.75 15.75C12.8817 15.522 12.951 15.2633 12.951 15C12.951 14.7367 12.8817 14.478 12.75 14.25L12.3075 13.5H14.25C14.8467 13.5 15.419 13.2629 15.841 12.841C16.2629 12.419 16.5 11.8467 16.5 11.25V3.75C16.5 3.15326 16.2629 2.58097 15.841 2.15901C15.419 1.73705 14.8467 1.5 14.25 1.5ZM6.5775 15L7.5 13.5H10.5L11.4 15H6.5775ZM15 11.25C15 11.4489 14.921 11.6397 14.7803 11.7803C14.6397 11.921 14.4489 12 14.25 12H3.75C3.55109 12 3.36032 11.921 3.21967 11.7803C3.07902 11.6397 3 11.4489 3 11.25V10.5H15V11.25ZM15 9H3V3.75C3 3.55109 3.07902 3.36032 3.21967 3.21967C3.36032 3.07902 3.55109 3 3.75 3H14.25C14.4489 3 14.6397 3.07902 14.7803 3.21967C14.921 3.36032 15 3.55109 15 3.75V9Z" fill="#29384E"/>
</svg>
