<svg width="18" height="18" viewBox="0 0 18 18" fill="none" xmlns="http://www.w3.org/2000/svg">
<path d="M5.56498 11.655C5.4253 11.7955 5.34689 11.9856 5.34689 12.1837C5.34689 12.3819 5.4253 12.572 5.56498 12.7125C5.63471 12.7828 5.71766 12.8386 5.80905 12.8767C5.90045 12.9147 5.99848 12.9343 6.09749 12.9343C6.19649 12.9343 6.29452 12.9147 6.38592 12.8767C6.47731 12.8386 6.56026 12.7828 6.62998 12.7125C6.76967 12.572 6.84808 12.3819 6.84808 12.1837C6.84808 11.9856 6.76967 11.7955 6.62998 11.655C6.56026 11.5847 6.47731 11.5289 6.38592 11.4908C6.29452 11.4527 6.19649 11.4331 6.09749 11.4331C5.99848 11.4331 5.90045 11.4527 5.80905 11.4908C5.71766 11.5289 5.63471 11.5847 5.56498 11.655ZM5.56498 5.28748C5.4253 5.428 5.34689 5.61809 5.34689 5.81623C5.34689 6.01437 5.4253 6.20446 5.56498 6.34498C5.63471 6.41528 5.71766 6.47107 5.80905 6.50915C5.90045 6.54723 5.99848 6.56683 6.09749 6.56683C6.19649 6.56683 6.29452 6.54723 6.38592 6.50915C6.47731 6.47107 6.56026 6.41528 6.62998 6.34498C6.76967 6.20446 6.84808 6.01437 6.84808 5.81623C6.84808 5.61809 6.76967 5.428 6.62998 5.28748C6.56026 5.21719 6.47731 5.16139 6.38592 5.12331C6.29452 5.08524 6.19649 5.06563 6.09749 5.06563C5.99848 5.06563 5.90045 5.08524 5.80905 5.12331C5.71766 5.16139 5.63471 5.21719 5.56498 5.28748ZM9.27748 12.7875C9.12915 12.7875 8.98414 12.8315 8.86081 12.9139C8.73747 12.9963 8.64134 13.1134 8.58457 13.2505C8.52781 13.3875 8.51296 13.5383 8.5419 13.6838C8.57083 13.8293 8.64227 13.9629 8.74715 14.0678C8.85204 14.1727 8.98568 14.2441 9.13117 14.2731C9.27665 14.302 9.42745 14.2872 9.5645 14.2304C9.70154 14.1736 9.81868 14.0775 9.90109 13.9542C9.9835 13.8308 10.0275 13.6858 10.0275 13.5375C10.0326 13.4359 10.0169 13.3343 9.98153 13.2389C9.94612 13.1436 9.89168 13.0564 9.82153 12.9827C9.75137 12.9091 9.66696 12.8505 9.57343 12.8104C9.4799 12.7704 9.37921 12.7499 9.27748 12.75V12.7875ZM4.77748 8.28748C4.62915 8.28748 4.48414 8.33147 4.36081 8.41388C4.23747 8.49629 4.14134 8.61342 4.08458 8.75047C4.02781 8.88751 4.01296 9.03831 4.0419 9.1838C4.07083 9.32929 4.14227 9.46292 4.24715 9.56781C4.35204 9.6727 4.48568 9.74413 4.63117 9.77307C4.77665 9.80201 4.92745 9.78716 5.0645 9.73039C5.20154 9.67363 5.31868 9.5775 5.40109 9.45416C5.4835 9.33082 5.52748 9.18582 5.52748 9.03748C5.53257 8.93588 5.51694 8.83431 5.48153 8.73894C5.44612 8.64357 5.39168 8.55641 5.32153 8.48274C5.25137 8.40907 5.16696 8.35045 5.07343 8.31044C4.9799 8.27042 4.87921 8.24986 4.77748 8.24998V8.28748ZM9.27748 3.78748C9.12915 3.78748 8.98414 3.83147 8.86081 3.91388C8.73747 3.99629 8.64134 4.11343 8.58457 4.25047C8.52781 4.38751 8.51296 4.53831 8.5419 4.6838C8.57083 4.82929 8.64227 4.96292 8.74715 5.06781C8.85204 5.1727 8.98568 5.24413 9.13117 5.27307C9.27665 5.30201 9.42745 5.28716 9.5645 5.23039C9.70154 5.17363 9.81868 5.0775 9.90109 4.95416C9.9835 4.83082 10.0275 4.68582 10.0275 4.53748C10.0326 4.43588 10.0169 4.33431 9.98153 4.23894C9.94612 4.14357 9.89168 4.05641 9.82153 3.98274C9.75137 3.90908 9.66696 3.85045 9.57343 3.81044C9.4799 3.77042 9.37921 3.74985 9.27748 3.74998V3.78748ZM11.9325 5.32498C11.8271 5.42969 11.7553 5.56332 11.726 5.70893C11.6967 5.85454 11.7113 6.00557 11.7679 6.14287C11.8245 6.28017 11.9207 6.39757 12.0441 6.48018C12.1675 6.56279 12.3127 6.60689 12.4612 6.60689C12.6098 6.60689 12.7549 6.56279 12.8784 6.48018C13.0018 6.39757 13.0979 6.28017 13.1546 6.14287C13.2112 6.00557 13.2258 5.85454 13.1965 5.70893C13.1672 5.56332 13.0953 5.42969 12.99 5.32498C12.8545 5.1802 12.6672 5.09497 12.469 5.08794C12.2708 5.08092 12.0779 5.15266 11.9325 5.28748V5.32498ZM16.6575 5.32498C15.9718 3.95421 14.9178 2.80155 13.6137 1.99626C12.3096 1.19097 10.8069 0.764894 9.27419 0.76581C7.74148 0.766725 6.23932 1.1946 4.93617 2.00144C3.63302 2.80829 2.5804 3.96221 1.89634 5.3338C1.21229 6.7054 0.92385 8.24044 1.06337 9.76678C1.20289 11.2931 1.76485 12.7504 2.68624 13.9753C3.60762 15.2001 4.852 16.1441 6.27984 16.7013C7.70768 17.2585 9.26251 17.407 10.77 17.13C11.1491 17.0587 11.5101 16.9125 11.8321 16.7C12.154 16.4875 12.4304 16.213 12.645 15.8925C12.8762 15.544 13.0358 15.153 13.1144 14.7422C13.1929 14.3315 13.1889 13.9092 13.1025 13.5C13.0553 13.2527 13.0302 13.0017 13.0275 12.75C13.0308 12.0232 13.2452 11.313 13.6446 10.7059C14.0441 10.0987 14.6114 9.62069 15.2775 9.32998C15.6366 9.16918 15.959 8.93647 16.2247 8.64624C16.4905 8.356 16.6939 8.01439 16.8225 7.64248C16.9525 7.26245 17.0049 6.86016 16.9766 6.4595C16.9483 6.05883 16.8397 5.66793 16.6575 5.30998V5.32498ZM15.3825 7.15498C15.3185 7.33447 15.2191 7.4993 15.0903 7.63972C14.9615 7.78013 14.8058 7.89329 14.6325 7.97248C13.71 8.38543 12.9263 9.05589 12.3755 9.90336C11.8247 10.7508 11.5302 11.7393 11.5275 12.75C11.5286 13.1025 11.5638 13.4542 11.6325 13.8C11.6783 14.0113 11.6813 14.2297 11.6414 14.4422C11.6015 14.6548 11.5194 14.8572 11.4 15.0375C11.299 15.1953 11.166 15.3302 11.0097 15.4335C10.8534 15.5369 10.6772 15.6063 10.4925 15.6375C10.0919 15.7128 9.68511 15.7504 9.27748 15.75C8.37311 15.7504 7.47787 15.5691 6.64493 15.2168C5.81199 14.8646 5.05833 14.3485 4.42871 13.6993C3.79909 13.0501 3.30635 12.281 2.97975 11.4376C2.65315 10.5943 2.49935 9.69392 2.52748 8.78998C2.58569 7.10458 3.26924 5.5012 4.44496 4.2922C5.62068 3.08321 7.20436 2.35519 8.88748 2.24998H9.26998C10.5268 2.2503 11.7586 2.6015 12.8266 3.26403C13.8946 3.92657 14.7564 4.87412 15.315 5.99998C15.4869 6.35622 15.5112 6.76595 15.3825 7.13998V7.15498ZM9.27748 8.24998C9.12915 8.24998 8.98414 8.29397 8.86081 8.37638C8.73747 8.45879 8.64134 8.57592 8.58457 8.71297C8.52781 8.85001 8.51296 9.00081 8.5419 9.1463C8.57083 9.29179 8.64227 9.42542 8.74715 9.53031C8.85204 9.6352 8.98568 9.70663 9.13117 9.73557C9.27665 9.76451 9.42745 9.74966 9.5645 9.69289C9.70154 9.63613 9.81868 9.54 9.90109 9.41666C9.9835 9.29332 10.0275 9.14832 10.0275 8.99998C10.0275 8.80107 9.94847 8.6103 9.80781 8.46965C9.66716 8.329 9.4764 8.24998 9.27748 8.24998Z" fill="#29384E"/>
</svg>
