<svg width="18" height="18" viewBox="0 0 18 18" fill="none" xmlns="http://www.w3.org/2000/svg">
<path d="M14.9934 1.50151C14.8949 1.50145 14.7973 1.52082 14.7063 1.55849C14.6153 1.59616 14.5326 1.6514 14.463 1.72106C14.3933 1.79071 14.3381 1.87341 14.3004 1.96443C14.2627 2.05545 14.2434 2.153 14.2434 2.25151V2.72905C13.6109 3.51333 12.8114 4.1467 11.9032 4.58305C10.995 5.0194 10.001 5.24777 8.99341 5.25151H4.49341C3.89687 5.25216 3.32495 5.48942 2.90314 5.91124C2.48132 6.33306 2.24406 6.90497 2.24341 7.50151V9.00151C2.24406 9.59805 2.48132 10.17 2.90314 10.5918C3.32495 11.0136 3.89687 11.2509 4.49341 11.2515H4.85625L3.0542 15.4563C3.00523 15.5704 2.98535 15.6948 2.99634 15.8184C3.00733 15.942 3.04886 16.061 3.11718 16.1646C3.18551 16.2682 3.27849 16.3533 3.3878 16.4121C3.4971 16.4709 3.61929 16.5016 3.74341 16.5015H6.74341C6.89022 16.5016 7.03383 16.4585 7.15636 16.3777C7.2789 16.2968 7.37497 16.1817 7.43262 16.0467L9.47543 11.28C10.3984 11.3478 11.2977 11.604 12.1178 12.033C12.9378 12.4619 13.6613 13.0544 14.2434 13.7738V14.2515C14.2434 14.4504 14.3224 14.6412 14.4631 14.7818C14.6037 14.9225 14.7945 15.0015 14.9934 15.0015C15.1923 15.0015 15.3831 14.9225 15.5237 14.7818C15.6644 14.6412 15.7434 14.4504 15.7434 14.2515V2.25151C15.7435 2.153 15.7241 2.05545 15.6864 1.96443C15.6488 1.87341 15.5935 1.79071 15.5239 1.72105C15.4542 1.6514 15.3715 1.59616 15.2805 1.55848C15.1895 1.52081 15.0919 1.50145 14.9934 1.50151ZM4.49341 9.75151C4.29454 9.75138 4.10385 9.67232 3.96323 9.53169C3.8226 9.39107 3.74354 9.20038 3.74341 9.00151V7.50151C3.74354 7.30264 3.8226 7.11195 3.96323 6.97133C4.10385 6.83071 4.29454 6.75165 4.49341 6.75151H5.24341V9.75151H4.49341ZM6.24902 15.0015H4.88086L6.48779 11.2515H7.85596L6.24902 15.0015ZM14.2434 11.6429C12.7646 10.4246 10.9094 9.75622 8.99341 9.75147H6.74341V6.75147H8.99341C10.9094 6.74658 12.7646 6.07809 14.2434 4.85972V11.6429Z" fill="#29384E"/>
</svg>
