<svg width="18" height="18" viewBox="0 0 18 18" fill="none" xmlns="http://www.w3.org/2000/svg">
<path d="M16.1175 7.64251L15.3675 7.23001L8.61753 3.48001H8.53503C8.48905 3.46057 8.44134 3.44551 8.39253 3.43501H8.25003H8.11503C8.06379 3.44551 8.01359 3.46057 7.96503 3.48001H7.88253L1.13253 7.23001C1.01711 7.29543 0.921101 7.39029 0.854306 7.50492C0.787512 7.61955 0.752319 7.74984 0.752319 7.88251C0.752319 8.01518 0.787512 8.14548 0.854306 8.26011C0.921101 8.37474 1.01711 8.4696 1.13253 8.53501L3.00003 9.57001V13.125C3.00003 13.7218 3.23708 14.294 3.65904 14.716C4.081 15.138 4.65329 15.375 5.25003 15.375H11.25C11.8468 15.375 12.4191 15.138 12.841 14.716C13.263 14.294 13.5 13.7218 13.5 13.125V9.57001L15 8.73001V10.875C15 11.0739 15.079 11.2647 15.2197 11.4053C15.3604 11.546 15.5511 11.625 15.75 11.625C15.9489 11.625 16.1397 11.546 16.2804 11.4053C16.421 11.2647 16.5 11.0739 16.5 10.875V8.29501C16.4998 8.16212 16.4643 8.03167 16.3971 7.91702C16.3298 7.80237 16.2334 7.70763 16.1175 7.64251ZM12 13.125C12 13.3239 11.921 13.5147 11.7804 13.6553C11.6397 13.796 11.4489 13.875 11.25 13.875H5.25003C5.05112 13.875 4.86035 13.796 4.7197 13.6553C4.57905 13.5147 4.50003 13.3239 4.50003 13.125V10.4025L7.88253 12.2775L7.99503 12.3225H8.06253C8.12478 12.3304 8.18778 12.3304 8.25003 12.3225C8.31228 12.3304 8.37528 12.3304 8.43753 12.3225H8.50503C8.54485 12.3141 8.58291 12.2989 8.61753 12.2775L12 10.4025V13.125ZM8.25003 10.77L3.04503 7.87501L8.25003 4.98001L13.455 7.87501L8.25003 10.77Z" fill="white"/>
</svg>
