<svg width="21" height="20" viewBox="0 0 21 20" fill="none" xmlns="http://www.w3.org/2000/svg">
<path d="M15.84 3.46003C15.6027 3.46003 15.3707 3.53041 15.1733 3.66227C14.976 3.79412 14.8222 3.98154 14.7313 4.20081C14.6405 4.42008 14.6168 4.66136 14.6631 4.89414C14.7094 5.12692 14.8236 5.34074 14.9915 5.50856C15.1593 5.67638 15.3731 5.79067 15.6059 5.83697C15.8387 5.88328 16.0799 5.85951 16.2992 5.76869C16.5185 5.67786 16.7059 5.52405 16.8378 5.32671C16.9696 5.12938 17.04 4.89737 17.04 4.66003C17.04 4.34177 16.9136 4.03655 16.6885 3.8115C16.4635 3.58646 16.1583 3.46003 15.84 3.46003ZM20.44 5.88003C20.4206 5.05033 20.2652 4.22943 19.98 3.45003C19.7257 2.78316 19.33 2.17931 18.82 1.68003C18.3248 1.16746 17.7196 0.774207 17.05 0.53003C16.2727 0.236191 15.4508 0.0772405 14.62 0.0600305C13.56 3.04617e-05 13.22 3.05176e-05 10.5 3.05176e-05C7.78 3.05176e-05 7.44 3.04617e-05 6.38 0.0600305C5.54915 0.0772405 4.72734 0.236191 3.95 0.53003C3.28168 0.776679 2.67693 1.16959 2.18 1.68003C1.66743 2.17521 1.27418 2.78047 1.03 3.45003C0.736161 4.22737 0.57721 5.04918 0.56 5.88003C0.5 6.94003 0.5 7.28003 0.5 10C0.5 12.72 0.5 13.06 0.56 14.12C0.57721 14.9509 0.736161 15.7727 1.03 16.55C1.27418 17.2196 1.66743 17.8249 2.18 18.32C2.67693 18.8305 3.28168 19.2234 3.95 19.47C4.72734 19.7639 5.54915 19.9228 6.38 19.94C7.44 20 7.78 20 10.5 20C13.22 20 13.56 20 14.62 19.94C15.4508 19.9228 16.2727 19.7639 17.05 19.47C17.7196 19.2259 18.3248 18.8326 18.82 18.32C19.3322 17.8226 19.7283 17.2182 19.98 16.55C20.2652 15.7706 20.4206 14.9497 20.44 14.12C20.44 13.06 20.5 12.72 20.5 10C20.5 7.28003 20.5 6.94003 20.44 5.88003ZM18.64 14C18.6327 14.6348 18.5178 15.2637 18.3 15.86C18.1403 16.2952 17.8839 16.6885 17.55 17.01C17.2256 17.3405 16.8332 17.5965 16.4 17.76C15.8037 17.9778 15.1748 18.0928 14.54 18.1C13.54 18.15 13.17 18.16 10.54 18.16C7.91 18.16 7.54 18.16 6.54 18.1C5.88089 18.1124 5.22459 18.0109 4.6 17.8C4.18578 17.6281 3.81136 17.3728 3.5 17.05C3.16809 16.7288 2.91484 16.3352 2.76 15.9C2.51586 15.2952 2.38044 14.652 2.36 14C2.36 13 2.3 12.63 2.3 10C2.3 7.37003 2.3 7.00003 2.36 6.00003C2.36448 5.35109 2.48295 4.70798 2.71 4.10003C2.88605 3.67794 3.15627 3.30169 3.5 3.00003C3.80381 2.6562 4.17929 2.38313 4.6 2.20003C5.20955 1.98007 5.852 1.86511 6.5 1.86003C7.5 1.86003 7.87 1.80003 10.5 1.80003C13.13 1.80003 13.5 1.80003 14.5 1.86003C15.1348 1.86731 15.7637 1.98228 16.36 2.20003C16.8144 2.36868 17.2223 2.64288 17.55 3.00003C17.8777 3.30721 18.1338 3.68276 18.3 4.10003C18.5223 4.70896 18.6373 5.35181 18.64 6.00003C18.69 7.00003 18.7 7.37003 18.7 10C18.7 12.63 18.69 13 18.64 14ZM10.5 4.87003C9.48581 4.87201 8.49496 5.17456 7.65265 5.73945C6.81035 6.30434 6.15438 7.10623 5.76763 8.04378C5.38089 8.98134 5.28072 10.0125 5.47979 11.007C5.67886 12.0014 6.16824 12.9146 6.88608 13.631C7.60392 14.3475 8.51801 14.835 9.51286 15.0322C10.5077 15.2293 11.5387 15.1271 12.4755 14.7386C13.4123 14.35 14.2129 13.6925 14.7761 12.8491C15.3394 12.0057 15.64 11.0142 15.64 10C15.6413 9.32514 15.5092 8.65664 15.2512 8.03299C14.9933 7.40934 14.6146 6.84284 14.1369 6.36608C13.6592 5.88932 13.0919 5.51171 12.4678 5.25496C11.8436 4.99821 11.1749 4.86739 10.5 4.87003ZM10.5 13.33C9.84139 13.33 9.19757 13.1347 8.64995 12.7688C8.10234 12.4029 7.67552 11.8828 7.42348 11.2744C7.17144 10.6659 7.1055 9.99634 7.23398 9.35038C7.36247 8.70442 7.67963 8.11107 8.14533 7.64536C8.61104 7.17966 9.20439 6.8625 9.85035 6.73402C10.4963 6.60553 11.1659 6.67147 11.7743 6.92351C12.3828 7.17555 12.9029 7.60237 13.2688 8.14998C13.6347 8.6976 13.83 9.34142 13.83 10C13.83 10.4373 13.7439 10.8704 13.5765 11.2744C13.4092 11.6784 13.1639 12.0455 12.8547 12.3547C12.5454 12.6639 12.1784 12.9092 11.7743 13.0765C11.3703 13.2439 10.9373 13.33 10.5 13.33Z" fill="white"/>
</svg>
