<svg width="21" height="20" viewBox="0 0 21 20" fill="none" xmlns="http://www.w3.org/2000/svg">
<path d="M18.9701 1.77605e-05H2.03006C1.83964 -0.00262686 1.65056 0.0322653 1.47362 0.102702C1.29669 0.173138 1.13536 0.277738 0.998856 0.41053C0.86235 0.543321 0.75334 0.701702 0.678051 0.876627C0.602761 1.05155 0.562667 1.2396 0.560059 1.43002V18.57C0.562667 18.7604 0.602761 18.9485 0.678051 19.1234C0.75334 19.2983 0.86235 19.4567 0.998856 19.5895C1.13536 19.7223 1.29669 19.8269 1.47362 19.8973C1.65056 19.9678 1.83964 20.0027 2.03006 20H18.9701C19.1605 20.0027 19.3496 19.9678 19.5265 19.8973C19.7034 19.8269 19.8648 19.7223 20.0013 19.5895C20.1378 19.4567 20.2468 19.2983 20.3221 19.1234C20.3974 18.9485 20.4375 18.7604 20.4401 18.57V1.43002C20.4375 1.2396 20.3974 1.05155 20.3221 0.876627C20.2468 0.701702 20.1378 0.543321 20.0013 0.41053C19.8648 0.277738 19.7034 0.173138 19.5265 0.102702C19.3496 0.0322653 19.1605 -0.00262686 18.9701 1.77605e-05ZM6.59006 16.74H3.59006V7.74002H6.59006V16.74ZM5.09006 6.48002C4.67632 6.48002 4.27953 6.31566 3.98697 6.0231C3.69442 5.73055 3.53006 5.33376 3.53006 4.92002C3.53006 4.50628 3.69442 4.10949 3.98697 3.81693C4.27953 3.52437 4.67632 3.36002 5.09006 3.36002C5.30975 3.3351 5.53224 3.35687 5.74293 3.4239C5.95363 3.49093 6.1478 3.60171 6.31272 3.74898C6.47763 3.89625 6.60958 4.0767 6.69993 4.2785C6.79028 4.4803 6.83698 4.69891 6.83698 4.92002C6.83698 5.14112 6.79028 5.35973 6.69993 5.56154C6.60958 5.76334 6.47763 5.94378 6.31272 6.09106C6.1478 6.23833 5.95363 6.3491 5.74293 6.41613C5.53224 6.48316 5.30975 6.50493 5.09006 6.48002ZM17.4101 16.74H14.4101V11.91C14.4101 10.7 13.9801 9.91002 12.8901 9.91002C12.5527 9.91249 12.2242 10.0183 11.9489 10.2132C11.6735 10.4081 11.4645 10.6827 11.3501 11C11.2718 11.2351 11.2379 11.4826 11.2501 11.73V16.73H8.25006C8.25006 16.73 8.25006 8.55002 8.25006 7.73002H11.2501V9.00002C11.5226 8.52712 11.919 8.13754 12.3965 7.87322C12.874 7.6089 13.4146 7.47987 13.9601 7.50002C15.9601 7.50002 17.4101 8.79002 17.4101 11.56V16.74Z" fill="white"/>
</svg>
