<svg width="18" height="18" viewBox="0 0 18 18" fill="none" xmlns="http://www.w3.org/2000/svg">
<path d="M11.7825 9.53253C12.5178 8.95403 13.0545 8.16072 13.3179 7.26299C13.5814 6.36526 13.5584 5.40773 13.2523 4.52363C12.9462 3.63954 12.3722 2.87283 11.6101 2.33017C10.8479 1.78752 9.93559 1.49591 9 1.49591C8.06441 1.49591 7.15208 1.78752 6.38995 2.33017C5.62781 2.87283 5.05376 3.63954 4.74766 4.52363C4.44156 5.40773 4.41863 6.36526 4.68207 7.26299C4.9455 8.16072 5.4822 8.95403 6.2175 9.53253C4.95756 10.0373 3.85821 10.8745 3.03667 11.955C2.21512 13.0354 1.70217 14.3185 1.5525 15.6675C1.54166 15.766 1.55033 15.8657 1.57802 15.9608C1.6057 16.056 1.65185 16.1447 1.71383 16.222C1.83901 16.3782 2.02109 16.4782 2.22 16.5C2.41891 16.5219 2.61837 16.4639 2.77449 16.3387C2.93062 16.2135 3.03062 16.0314 3.0525 15.8325C3.21719 14.3664 3.91626 13.0124 5.01616 12.0291C6.11606 11.0459 7.53967 10.5023 9.015 10.5023C10.4903 10.5023 11.9139 11.0459 13.0138 12.0291C14.1137 13.0124 14.8128 14.3664 14.9775 15.8325C14.9979 16.0168 15.0858 16.187 15.2243 16.3103C15.3628 16.4336 15.5421 16.5012 15.7275 16.5H15.81C16.0066 16.4774 16.1863 16.378 16.3099 16.2235C16.4335 16.0689 16.4911 15.8718 16.47 15.675C16.3196 14.3222 15.8039 13.0358 14.9781 11.9537C14.1524 10.8716 13.0477 10.0346 11.7825 9.53253ZM9 9.00003C8.40665 9.00003 7.82663 8.82409 7.33329 8.49444C6.83994 8.1648 6.45542 7.69626 6.22836 7.14808C6.0013 6.59991 5.94189 5.99671 6.05764 5.41476C6.1734 4.83282 6.45912 4.29827 6.87868 3.87871C7.29823 3.45915 7.83278 3.17343 8.41473 3.05768C8.99667 2.94192 9.59987 3.00133 10.148 3.22839C10.6962 3.45546 11.1648 3.83997 11.4944 4.33332C11.8241 4.82667 12 5.40669 12 6.00003C12 6.79568 11.6839 7.55874 11.1213 8.12135C10.5587 8.68396 9.79565 9.00003 9 9.00003Z" fill="white"/>
</svg>
