<svg width="18" height="18" viewBox="0 0 18 18" fill="none" xmlns="http://www.w3.org/2000/svg">
<path d="M17.1226 16.0688L12.675 11.6417C13.7545 10.2947 14.2772 8.58512 14.1358 6.86434C13.9943 5.14356 13.1995 3.5424 11.9146 2.39011C10.6298 1.23782 8.95261 0.621967 7.22797 0.669195C5.50333 0.716423 3.86232 1.42314 2.64236 2.64402C1.4224 3.86491 0.716223 5.50717 0.669031 7.23312C0.621838 8.95907 1.23722 10.6375 2.38864 11.9233C3.54006 13.2092 5.14 14.0046 6.85947 14.1462C8.57895 14.2877 10.2873 13.7646 11.6332 12.6843L16.0582 17.1114C16.1279 17.1818 16.2108 17.2376 16.3021 17.2756C16.3934 17.3137 16.4914 17.3333 16.5904 17.3333C16.6893 17.3333 16.7873 17.3137 16.8786 17.2756C16.97 17.2376 17.0529 17.1818 17.1226 17.1114C17.2577 16.9716 17.3332 16.7846 17.3332 16.5901C17.3332 16.3956 17.2577 16.2087 17.1226 16.0688ZM7.42816 12.6843C6.39042 12.6843 5.37599 12.3764 4.51315 11.7994C3.6503 11.2224 2.9778 10.4023 2.58067 9.44288C2.18355 8.48341 2.07964 7.42763 2.2821 6.40907C2.48455 5.3905 2.98427 4.45488 3.71805 3.72054C4.45184 2.98619 5.38675 2.48609 6.40454 2.28349C7.42234 2.08088 8.47731 2.18486 9.43605 2.58229C10.3948 2.97972 11.2142 3.65273 11.7908 4.51623C12.3673 5.37973 12.675 6.39494 12.675 7.43346C12.675 8.82607 12.1222 10.1617 11.1383 11.1464C10.1543 12.1311 8.81972 12.6843 7.42816 12.6843Z" fill="white"/>
<path fill-rule="evenodd" clip-rule="evenodd" d="M17.2423 15.953C17.4075 16.1239 17.4998 16.3524 17.4998 16.5901C17.4998 16.8278 17.4075 17.0563 17.2423 17.2272L17.2408 17.2288C17.1557 17.3147 17.0543 17.3829 16.9427 17.4295C16.831 17.476 16.7113 17.5 16.5903 17.5C16.4693 17.5 16.3495 17.476 16.2379 17.4295C16.1263 17.3829 16.025 17.3148 15.9399 17.2289C15.9398 17.2289 15.9399 17.229 15.9399 17.2289L11.6197 12.9067C10.2594 13.951 8.55796 14.4532 6.84572 14.3123C5.08372 14.1672 3.44425 13.3521 2.2644 12.0345C1.08455 10.7169 0.453989 8.99706 0.502345 7.22854C0.550701 5.46002 1.2743 3.77723 2.52438 2.5262C3.77447 1.27516 5.45604 0.550966 7.22333 0.50257C8.99061 0.454174 10.7092 1.08525 12.0258 2.26601C13.3424 3.44676 14.1569 5.08744 14.3018 6.85067C14.4426 8.56405 13.9408 10.2666 12.8974 11.6279L17.2423 15.953ZM12.675 11.6416C13.7544 10.2947 14.2771 8.5851 14.1357 6.86432C13.9943 5.14354 13.1994 3.54238 11.9145 2.39009C10.6297 1.2378 8.95253 0.621946 7.22789 0.669174C5.50325 0.716403 3.86224 1.42312 2.64228 2.644C1.42232 3.86489 0.716142 5.50715 0.668949 7.2331C0.621757 8.95905 1.23714 10.6375 2.38856 11.9233C3.53998 13.2091 5.13991 14.0046 6.85939 14.1462C8.57887 14.2877 10.2872 13.7646 11.6331 12.6843L16.0581 17.1114C16.1278 17.1817 16.2107 17.2375 16.302 17.2756C16.3934 17.3137 16.4913 17.3333 16.5903 17.3333C16.6892 17.3333 16.7872 17.3137 16.8785 17.2756C16.9699 17.2375 17.0528 17.1817 17.1225 17.1114C17.2576 16.9716 17.3331 16.7846 17.3331 16.5901C17.3331 16.3956 17.2576 16.2086 17.1225 16.0688L12.675 11.6416ZM4.60571 11.6608C5.44114 12.2195 6.42333 12.5176 7.42808 12.5176C8.77539 12.5176 10.0676 11.982 11.0203 11.0286C11.973 10.0751 12.5083 8.78189 12.5083 7.43344C12.5083 6.42785 12.2103 5.44486 11.6521 4.60876C11.0939 3.77267 10.3004 3.12103 9.37215 2.73623C8.44388 2.35144 7.42244 2.25076 6.437 2.44692C5.45156 2.64309 4.54636 3.12729 3.83587 3.83832C3.12538 4.54935 2.64151 5.45527 2.44548 6.44154C2.24945 7.4278 2.35006 8.45009 2.73459 9.37912C3.11911 10.3081 3.77028 11.1022 4.60571 11.6608ZM4.51307 11.7994C5.37591 12.3763 6.39034 12.6843 7.42808 12.6843C8.81964 12.6843 10.1542 12.1311 11.1382 11.1464C12.1222 10.1616 12.675 8.82605 12.675 7.43344C12.675 6.39491 12.3672 5.37971 11.7907 4.51621C11.2142 3.65271 10.3947 2.9797 9.43597 2.58227C8.47723 2.18484 7.42226 2.08086 6.40446 2.28347C5.38667 2.48607 4.45176 2.98617 3.71797 3.72051C2.98418 4.45486 2.48447 5.39048 2.28201 6.40905C2.07956 7.42761 2.18347 8.48339 2.58059 9.44286C2.97772 10.4023 3.65022 11.2224 4.51307 11.7994Z" fill="white"/>
</svg>
