<svg width="21" height="18" viewBox="0 0 21 18" fill="none" xmlns="http://www.w3.org/2000/svg">
<path d="M20.5 2.80003C19.7483 3.12612 18.9534 3.34169 18.14 3.44003C18.9982 2.92735 19.6413 2.12081 19.95 1.17003C19.1436 1.65009 18.2608 1.98832 17.34 2.17003C16.7245 1.5026 15.905 1.05832 15.0098 0.906878C14.1147 0.755433 13.1945 0.905385 12.3938 1.33322C11.593 1.76105 10.9569 2.44256 10.5852 3.27086C10.2135 4.09917 10.1273 5.02742 10.34 5.91003C8.70943 5.82755 7.11444 5.40298 5.65865 4.66389C4.20287 3.9248 2.91885 2.88772 1.89 1.62003C1.52914 2.25019 1.33952 2.96385 1.34 3.69003C1.33872 4.36441 1.50422 5.02864 1.82176 5.62359C2.13929 6.21854 2.59902 6.72574 3.16 7.10003C2.50798 7.08229 1.86989 6.90733 1.3 6.59003V6.64003C1.30489 7.58492 1.63599 8.49912 2.23731 9.22799C2.83864 9.95687 3.67326 10.4557 4.6 10.64C4.24326 10.7486 3.87287 10.8058 3.5 10.81C3.24189 10.807 2.98442 10.7836 2.73 10.74C2.99391 11.5528 3.50462 12.2632 4.19107 12.7722C4.87753 13.2812 5.70558 13.5636 6.56 13.58C5.1172 14.7153 3.33588 15.3349 1.5 15.34C1.16574 15.3411 0.831736 15.3211 0.5 15.28C2.37443 16.4903 4.55881 17.1327 6.79 17.13C8.32969 17.146 9.85714 16.855 11.2831 16.2741C12.7091 15.6932 14.005 14.8339 15.0952 13.7465C16.1854 12.6591 17.048 11.3654 17.6326 9.94093C18.2172 8.51645 18.512 6.98975 18.5 5.45003C18.5 5.28003 18.5 5.10003 18.5 4.92003C19.2847 4.33484 19.9615 3.61745 20.5 2.80003Z" fill="white"/>
</svg>
